<svg width="330" height="338" viewBox="0 0 330 338" fill="none" xmlns="http://www.w3.org/2000/svg">
<g opacity="0.5">
<path d="M159.369 6.33706C160.895 0.554319 169.105 0.554308 170.631 6.33705L184.686 59.5872C185.885 64.1298 191.694 65.4555 194.746 61.8828L230.518 20.003C234.403 15.455 241.799 19.0163 240.665 24.8885L230.219 78.9621C229.327 83.575 233.986 87.2894 238.286 85.3944L288.69 63.1796C294.164 60.7672 299.283 67.1845 295.712 71.983L262.834 116.17C260.029 119.94 262.615 125.307 267.311 125.465L322.364 127.315C328.343 127.516 330.17 135.518 324.87 138.293L276.072 163.842C271.909 166.021 271.909 171.979 276.072 174.158L324.87 199.707C330.17 202.482 328.343 210.484 322.364 210.685L267.311 212.535C262.615 212.693 260.029 218.06 262.834 221.83L295.712 266.017C299.283 270.816 294.164 277.233 288.69 274.82L238.286 252.606C233.986 250.711 229.327 254.425 230.219 259.038L240.665 313.111C241.799 318.984 234.403 322.545 230.518 317.997L194.746 276.117C191.694 272.544 185.885 273.87 184.686 278.413L170.631 331.663C169.105 337.446 160.895 337.446 159.369 331.663L145.314 278.413C144.115 273.87 138.306 272.544 135.254 276.117L99.4822 317.997C95.5975 322.545 88.2008 318.984 89.3352 313.112L99.7814 259.038C100.673 254.425 96.0139 250.711 91.714 252.606L41.3098 274.82C35.8361 277.233 30.7174 270.816 34.2878 266.017L67.1661 221.83C69.9708 218.06 67.3855 212.693 62.689 212.535L7.63577 210.685C1.65722 210.484 -0.169627 202.482 5.12966 199.707L53.9279 174.158C58.0908 171.979 58.0908 166.021 53.9279 163.842L5.12967 138.293C-0.16962 135.518 1.65721 127.516 7.63577 127.315L62.689 125.465C67.3854 125.307 69.9708 119.94 67.1661 116.17L34.2879 71.983C30.7174 67.1845 35.8361 60.7672 41.3098 63.1796L91.714 85.3943C96.0139 87.2894 100.673 83.575 99.7814 78.9621L89.3352 24.8885C88.2008 19.0163 95.5975 15.455 99.4822 20.003L135.254 61.8828C138.306 65.4555 144.115 64.1299 145.314 59.5872L159.369 6.33706Z" stroke="#FF6D00" stroke-width="3"/>
<path d="M161.613 77.536C162.504 74.0235 167.496 74.0235 168.387 77.536L175.917 107.203C176.618 109.965 180.152 110.772 181.982 108.588L201.641 85.1245C203.969 82.3466 208.466 84.5117 207.745 88.063L201.654 118.059C201.087 120.851 203.921 123.111 206.518 121.937L234.412 109.326C237.715 107.832 240.827 111.734 238.636 114.621L220.131 139.004C218.408 141.274 219.981 144.539 222.83 144.608L253.436 145.346C257.059 145.433 258.17 150.298 254.943 151.949L227.689 165.89C225.152 167.188 225.152 170.813 227.689 172.11L254.943 186.051C258.17 187.702 257.059 192.567 253.436 192.654L222.83 193.392C219.981 193.461 218.408 196.727 220.131 198.996L238.636 223.379C240.827 226.266 237.715 230.168 234.412 228.674L206.518 216.063C203.921 214.889 201.087 217.149 201.654 219.941L207.745 249.937C208.466 253.488 203.969 255.653 201.641 252.876L181.982 229.412C180.152 227.228 176.618 228.035 175.917 230.797L168.387 260.464C167.496 263.977 162.504 263.977 161.613 260.464L154.083 230.797C153.382 228.035 149.848 227.228 148.018 229.412L128.359 252.876C126.031 255.653 121.534 253.488 122.255 249.937L128.346 219.941C128.913 217.149 126.079 214.889 123.482 216.063L95.5876 228.674C92.285 230.168 89.1731 226.266 91.364 223.379L109.869 198.996C111.592 196.727 110.019 193.461 107.17 193.392L76.5645 192.654C72.941 192.567 71.8304 187.702 75.0571 186.051L102.311 172.11C104.848 170.813 104.848 167.188 102.311 165.89L75.0571 151.949C71.8304 150.298 72.941 145.433 76.5645 145.346L107.17 144.608C110.019 144.539 111.592 141.274 109.869 139.004L91.364 114.621C89.1731 111.734 92.285 107.832 95.5876 109.326L123.482 121.937C126.079 123.111 128.913 120.851 128.346 118.059L122.255 88.063C121.534 84.5117 126.031 82.3466 128.359 85.1245L148.018 108.588C149.848 110.772 153.382 109.965 154.083 107.203L161.613 77.536Z" stroke="#FF6D00" stroke-width="3"/>
</g>
</svg>
