<svg width="87" height="86" viewBox="0 0 87 86" fill="none" xmlns="http://www.w3.org/2000/svg">
<g opacity="0.6">
<path d="M36.4461 29.1742C35.3302 33.9577 33.0092 37.509 31.2621 37.1063C29.5149 36.7036 29.0032 32.4994 30.1192 27.7159C31.2351 22.9324 33.556 19.3811 35.3032 19.7838C37.0503 20.1864 37.562 24.3907 36.4461 29.1742Z" fill="#E86605"/>
<path d="M61.5979 34.9715C60.482 39.755 58.161 43.3064 56.4139 42.9037C54.6668 42.501 54.1551 38.2967 55.271 33.5132C56.3869 28.7298 58.7079 25.1784 60.455 25.5811C62.2021 25.9838 62.7139 30.188 61.5979 34.9715Z" fill="#E86605"/>
<path d="M33.9607 83.6759L33.7361 84.6504L33.9607 83.6759ZM52.8671 2.63226L52.6425 3.60671L52.8671 2.63226ZM36.4461 29.1742L37.4199 29.4014L36.4461 29.1742ZM31.2621 37.1063L31.0375 38.0807L31.2621 37.1063ZM30.1192 27.7159L31.093 27.9431L30.1192 27.7159ZM35.3032 19.7838L35.0786 20.7582L35.3032 19.7838ZM61.5979 34.9715L62.5718 35.1987L61.5979 34.9715ZM56.4139 42.9037L56.6385 41.9292L56.4139 42.9037ZM55.271 33.5132L56.2448 33.7404L55.271 33.5132ZM60.455 25.5811L60.6796 24.6067L60.455 25.5811ZM37.2718 69.4896L37.4964 68.5152L37.2718 69.4896ZM83.2196 52.3261C78.1252 74.1637 56.1753 87.7699 34.1853 82.7015L33.7361 84.6504C56.79 89.964 79.82 75.7022 85.1673 52.7805L83.2196 52.3261ZM34.1853 82.7015C12.1973 77.6335 -1.48566 55.8175 3.60824 33.982L1.66054 33.5277C-3.68723 56.4514 10.6803 79.3362 33.7361 84.6504L34.1853 82.7015ZM3.60824 33.982C8.70263 12.1445 30.6525 -1.46175 52.6425 3.60671L53.0917 1.65781C30.0379 -3.65585 7.00784 10.606 1.66054 33.5277L3.60824 33.982ZM52.6425 3.60671C74.6305 8.67471 88.3135 30.4907 83.2196 52.3261L85.1673 52.7805C90.5151 29.8568 76.1475 6.97193 53.0917 1.65781L52.6425 3.60671ZM35.4722 28.947C34.9337 31.2553 34.1128 33.2235 33.2537 34.538C32.8218 35.1988 32.4106 35.6476 32.0625 35.9019C31.7109 36.1586 31.5345 36.1429 31.4867 36.1318L31.0375 38.0807C31.8632 38.2711 32.6321 37.9624 33.242 37.517C33.8553 37.0692 34.4217 36.4067 34.9279 35.6321C35.945 34.0758 36.8425 31.8765 37.4199 29.4014L35.4722 28.947ZM31.4867 36.1318C31.4397 36.121 31.2758 36.0592 31.0747 35.6766C30.8752 35.2971 30.7048 34.7151 30.6096 33.9331C30.4203 32.3776 30.5545 30.2515 31.093 27.9431L29.1453 27.4887C28.5679 29.9638 28.4 32.3315 28.6243 34.1747C28.7359 35.092 28.9513 35.9355 29.3043 36.6071C29.6556 37.2755 30.2109 37.8902 31.0375 38.0807L31.4867 36.1318ZM31.093 27.9431C31.6315 25.6347 32.4525 23.6666 33.3115 22.3521C33.7434 21.6912 34.1546 21.2424 34.5028 20.9882C34.8543 20.7314 35.0307 20.7472 35.0786 20.7582L35.5278 18.8093C34.7021 18.619 33.9332 18.9276 33.3233 19.373C32.71 19.8209 32.1436 20.4833 31.6374 21.2579C30.6202 22.8143 29.7227 25.0135 29.1453 27.4887L31.093 27.9431ZM35.0786 20.7582C35.1256 20.769 35.2895 20.8308 35.4906 21.2135C35.6901 21.5929 35.8604 22.1749 35.9556 22.957C36.1449 24.5125 36.0108 26.6386 35.4722 28.947L37.4199 29.4014C37.9974 26.9263 38.1653 24.5585 37.941 22.7153C37.8293 21.7981 37.6139 20.9545 37.2609 20.2829C36.9096 19.6146 36.3543 18.9998 35.5278 18.8093L35.0786 20.7582ZM60.6241 34.7443C60.0856 37.0527 59.2646 39.0208 58.4055 40.3353C57.9736 40.9962 57.5625 41.445 57.2143 41.6992C56.8627 41.956 56.6864 41.9402 56.6385 41.9292L56.1893 43.8781C57.015 44.0684 57.7839 43.7598 58.3938 43.3144C59.0071 42.8666 59.5735 42.2041 60.0797 41.4295C61.0969 39.8731 61.9944 37.6739 62.5718 35.1987L60.6241 34.7443ZM56.6385 41.9292C56.5915 41.9184 56.4276 41.8566 56.2265 41.4739C56.027 41.0945 55.8567 40.5125 55.7615 39.7304C55.5722 38.1749 55.7063 36.0488 56.2448 33.7404L54.2971 33.2861C53.7197 35.7611 53.5518 38.1289 53.7761 39.9721C53.8878 40.8893 54.1032 41.7329 54.4562 42.4045C54.8075 43.0728 55.3627 43.6876 56.1893 43.8781L56.6385 41.9292ZM56.2448 33.7404C56.7833 31.4321 57.6043 29.4639 58.4634 28.1494C58.8953 27.4886 59.3065 27.0398 59.6546 26.7855C60.0062 26.5288 60.1825 26.5445 60.2304 26.5556L60.6796 24.6067C59.8539 24.4164 59.085 24.725 58.4751 25.1704C57.8618 25.6182 57.2954 26.2807 56.7892 27.0553C55.7721 28.6116 54.8746 30.8109 54.2971 33.2861L56.2448 33.7404ZM60.2304 26.5556C60.2774 26.5664 60.4413 26.6282 60.6424 27.0109C60.8419 27.3903 61.0123 27.9723 61.1074 28.7543C61.2968 30.3098 61.1626 32.4359 60.6241 34.7443L62.5718 35.1987C63.1492 32.7236 63.3171 30.3559 63.0928 28.5127C62.9812 27.5954 62.7658 26.7519 62.4128 26.0803C62.0614 25.4119 61.5062 24.7972 60.6796 24.6067L60.2304 26.5556ZM14.2173 36.6426C13.2335 36.4635 13.2333 36.4641 13.2332 36.4648C13.2332 36.4652 13.233 36.466 13.2329 36.4667C13.2326 36.4682 13.2323 36.4701 13.2319 36.4724C13.231 36.477 13.23 36.4832 13.2286 36.491C13.2259 36.5065 13.2222 36.5283 13.2176 36.5564C13.2084 36.6124 13.1956 36.6929 13.1805 36.7967C13.1503 37.0042 13.1105 37.3045 13.0705 37.6862C12.9905 38.4493 12.9091 39.5397 12.9011 40.8657C12.8852 43.5137 13.1614 47.1241 14.3396 50.9518C16.7144 58.6667 22.7331 67.1648 37.0472 70.4641L37.4964 68.5152C23.946 65.392 18.4375 57.4665 16.2511 50.3635C15.1488 46.7823 14.886 43.3851 14.9011 40.8778C14.9087 39.6261 14.9854 38.6019 15.0596 37.8948C15.0966 37.5415 15.133 37.2678 15.1596 37.0851C15.1729 36.9937 15.1838 36.9251 15.1911 36.8807C15.1948 36.8586 15.1975 36.8424 15.1992 36.8325C15.2001 36.8275 15.2007 36.8241 15.201 36.8223C15.2012 36.8214 15.2013 36.8209 15.2013 36.8208C15.2013 36.8207 15.2013 36.8209 15.2013 36.8209C15.2012 36.8212 15.2011 36.8216 14.2173 36.6426ZM72.5157 50.0797C71.5542 49.8049 71.5543 49.8045 71.5544 49.8042C71.5544 49.8042 71.5544 49.804 71.5544 49.8041C71.5544 49.8042 71.5542 49.8047 71.554 49.8056C71.5535 49.8074 71.5525 49.8107 71.5511 49.8155C71.5482 49.8252 71.5436 49.8409 71.537 49.8624C71.5239 49.9055 71.5033 49.9718 71.4748 50.0596C71.4178 50.2354 71.3293 50.4971 71.2061 50.8306C70.9596 51.498 70.575 52.4514 70.0275 53.5787C68.9309 55.837 67.1905 58.773 64.6145 61.5072C59.5043 66.9311 51.0466 71.6383 37.4964 68.5152L37.0472 70.4641C51.3599 73.763 60.5242 68.7652 66.0702 62.8787C68.8223 59.9576 70.6686 56.837 71.8266 54.4524C72.4065 53.2583 72.8162 52.2437 73.0822 51.5235C73.2152 51.1633 73.3125 50.8763 73.3772 50.6767C73.4096 50.577 73.4338 50.499 73.4504 50.4447C73.4586 50.4176 73.465 50.3963 73.4694 50.3812C73.4716 50.3736 73.4734 50.3676 73.4747 50.3631C73.4754 50.3609 73.4759 50.359 73.4763 50.3576C73.4765 50.3568 73.4767 50.356 73.4769 50.3557C73.4771 50.355 73.4772 50.3544 72.5157 50.0797ZM77.0967 49.1084C76.5139 48.2958 76.5143 48.2955 76.5147 48.2953C76.5148 48.2952 76.5151 48.2949 76.5154 48.2948C76.5158 48.2945 76.5161 48.2942 76.5164 48.294C76.5169 48.2936 76.5172 48.2935 76.5172 48.2935C76.5172 48.2935 76.516 48.2943 76.5138 48.2958C76.5093 48.2989 76.5005 48.305 76.4874 48.3136C76.4614 48.331 76.4187 48.3586 76.3611 48.3936C76.2455 48.4639 76.0715 48.5628 75.8511 48.668C75.4057 48.8806 74.797 49.1063 74.1148 49.189C73.4397 49.2707 72.7059 49.2115 71.9728 48.8725C71.2422 48.5346 70.4406 47.8857 69.6794 46.6722L67.9851 47.735C68.9181 49.2224 69.9967 50.1621 71.1333 50.6877C72.2674 51.2122 73.388 51.2916 74.3554 51.1744C75.3157 51.0581 76.1379 50.7472 76.7126 50.4729C77.0023 50.3347 77.2357 50.2025 77.4 50.1027C77.4823 50.0526 77.5477 50.0104 77.5947 49.9792C77.6182 49.9635 77.6372 49.9506 77.6514 49.9408C77.6585 49.9359 77.6644 49.9318 77.669 49.9285C77.6714 49.9268 77.6734 49.9254 77.6752 49.9241C77.676 49.9235 77.6768 49.923 77.6775 49.9224C77.6779 49.9222 77.6784 49.9218 77.6786 49.9217C77.679 49.9214 77.6795 49.9211 77.0967 49.1084ZM18.9304 35.7016C18.3475 34.8891 18.3479 34.8888 18.3483 34.8885C18.3484 34.8884 18.3488 34.8882 18.349 34.888C18.3494 34.8877 18.3497 34.8875 18.35 34.8873C18.3506 34.8869 18.3508 34.8867 18.3508 34.8867C18.3508 34.8867 18.3497 34.8875 18.3474 34.8891C18.3429 34.8922 18.3341 34.8982 18.3211 34.9069C18.295 34.9242 18.2524 34.9519 18.1948 34.9869C18.0792 35.0572 17.9053 35.156 17.685 35.2612C17.2397 35.4738 16.6312 35.6996 15.9491 35.7822C15.2742 35.864 14.5404 35.8049 13.8072 35.4658C13.0765 35.1278 12.2747 34.4789 11.5131 33.2652L9.81898 34.3283C10.7523 35.8157 11.8311 36.7554 12.9677 37.281C14.1019 37.8056 15.2224 37.885 16.1898 37.7677C17.1501 37.6513 17.9721 37.3404 18.5467 37.0661C18.8363 36.9278 19.0697 36.7956 19.2339 36.6957C19.3162 36.6457 19.3817 36.6035 19.4287 36.5722C19.4522 36.5566 19.4711 36.5436 19.4853 36.5338C19.4924 36.5289 19.4983 36.5248 19.503 36.5215C19.5053 36.5198 19.5074 36.5184 19.5091 36.5172C19.51 36.5165 19.5108 36.516 19.5115 36.5155C19.5118 36.5152 19.5123 36.5149 19.5125 36.5147C19.513 36.5144 19.5134 36.5141 18.9304 35.7016Z" fill="#E86605"/>
</g>
</svg>
