<svg width="13" height="13" viewBox="0 0 13 13" fill="none" xmlns="http://www.w3.org/2000/svg">
<path d="M12 8.25L8.99219 5.125L2.375 12M2.22222 1H10.7778C11.4528 1 12 1.54721 12 2.22222V10.7778C12 11.4528 11.4528 12 10.7778 12H2.22222C1.54721 12 1 11.4528 1 10.7778V2.22222C1 1.54721 1.54721 1 2.22222 1ZM5.125 4.4375C5.125 4.8172 4.8172 5.125 4.4375 5.125C4.0578 5.125 3.75 4.8172 3.75 4.4375C3.75 4.0578 4.0578 3.75 4.4375 3.75C4.8172 3.75 5.125 4.0578 5.125 4.4375Z" stroke="white" stroke-linecap="round" stroke-linejoin="round"/>
</svg>
