<svg width="158" height="158" viewBox="0 0 158 158" fill="none" xmlns="http://www.w3.org/2000/svg">
<path opacity="0.7" d="M154.172 58.9828L153.207 59.2432L154.172 58.9828ZM99.4121 154.182L99.1518 153.216L99.4121 154.182ZM4.21729 99.4145L3.25177 99.6749L4.21729 99.4145ZM58.9775 4.21575L58.7172 3.25023L58.9775 4.21575ZM53.9927 79.8778L53.7324 78.9123L53.9927 79.8778ZM55.4878 62.2825L54.5222 62.5428L55.4878 62.2825ZM45.3501 47.8236L45.0897 46.8581L45.3501 47.8236ZM43.855 65.419L42.8895 65.6793L43.855 65.419ZM100.239 67.4087L99.9784 66.4432L100.239 67.4087ZM101.734 49.8133L100.768 50.0736L101.734 49.8133ZM91.5961 35.3545L91.3357 34.3889L91.5961 35.3545ZM90.101 52.9498L89.1355 53.2101L90.101 52.9498ZM92.3374 127.929L92.5977 128.895L92.3374 127.929ZM153.207 59.2432C164.229 100.122 140.027 142.195 99.1518 153.216L99.6725 155.147C141.615 143.838 166.447 100.668 155.138 58.7225L153.207 59.2432ZM99.1518 153.216C58.2762 164.237 16.2048 140.033 5.18281 99.1542L3.25177 99.6749C14.5612 141.62 57.7302 166.456 99.6725 155.147L99.1518 153.216ZM5.18281 99.1542C-5.83914 58.2754 18.3622 16.2024 59.2379 5.18127L58.7172 3.25023C16.7749 14.5589 -8.05769 57.7298 3.25177 99.6749L5.18281 99.1542ZM59.2379 5.18127C100.114 -5.83984 142.185 18.3644 153.207 59.2432L155.138 58.7225C143.828 16.7774 100.659 -8.05847 58.7172 3.25023L59.2379 5.18127ZM54.253 80.8434C55.4442 80.5222 56.2733 79.5819 56.8194 78.4391C57.3674 77.2922 57.6952 75.8188 57.8362 74.1594C58.119 70.8318 57.6687 66.5301 56.4533 62.0222L54.5222 62.5428C55.6934 66.8865 56.1018 70.9493 55.8434 73.99C55.7139 75.5148 55.4212 76.7264 55.0148 77.5768C54.6065 78.4312 54.1474 78.8004 53.7324 78.9123L54.253 80.8434ZM56.4533 62.0222C55.2378 57.5143 53.4646 53.5693 51.5474 50.8349C50.5913 49.4713 49.5672 48.3623 48.5169 47.6464C47.4703 46.933 46.2809 46.5369 45.0897 46.8581L45.6104 48.7892C46.0254 48.6773 46.6079 48.7656 47.3904 49.299C48.1692 49.8298 49.0313 50.7301 49.9098 51.983C51.6617 54.4817 53.3511 58.1992 54.5222 62.5428L56.4533 62.0222ZM45.0897 46.8581C43.8986 47.1793 43.0695 48.1196 42.5234 49.2624C41.9754 50.4093 41.6475 51.8827 41.5065 53.5421C41.2238 56.8697 41.674 61.1714 42.8895 65.6793L44.8205 65.1586C43.6494 60.815 43.241 56.7521 43.4994 53.7114C43.6289 52.1867 43.9216 50.9751 44.3279 50.1247C44.7362 49.2703 45.1954 48.9011 45.6104 48.7892L45.0897 46.8581ZM42.8895 65.6793C44.1049 70.1872 45.8782 74.1322 47.7954 76.8666C48.7515 78.2302 49.7756 79.3391 50.8259 80.0551C51.8725 80.7685 53.0619 81.1645 54.253 80.8434L53.7324 78.9123C53.3174 79.0242 52.7348 78.9359 51.9524 78.4025C51.1736 77.8716 50.3115 76.9714 49.433 75.7184C47.6811 73.2198 45.9917 69.5023 44.8205 65.1586L42.8895 65.6793ZM100.499 68.3742C101.69 68.053 102.519 67.1127 103.065 65.9699C103.613 64.823 103.941 63.3496 104.082 61.6902C104.365 58.3626 103.915 54.0609 102.699 49.553L100.768 50.0736C101.939 54.4173 102.348 58.4802 102.089 61.5209C101.96 63.0456 101.667 64.2572 101.261 65.1076C100.853 65.962 100.393 66.3313 99.9784 66.4432L100.499 68.3742ZM102.699 49.553C101.484 45.0451 99.7106 41.1001 97.7934 38.3657C96.8373 37.0021 95.8132 35.8932 94.7629 35.1772C93.7163 34.4638 92.5269 34.0678 91.3357 34.3889L91.8564 36.32C92.2714 36.2081 92.8539 36.2964 93.6364 36.8298C94.4152 37.3607 95.2773 38.2609 96.1558 39.5139C97.9077 42.0125 99.5971 45.73 100.768 50.0736L102.699 49.553ZM91.3357 34.3889C90.1446 34.7101 89.3155 35.6504 88.7694 36.7932C88.2214 37.9401 87.8935 39.4135 87.7525 41.0729C87.4698 44.4005 87.92 48.7022 89.1355 53.2101L91.0665 52.6895C89.8954 48.3458 89.487 44.2829 89.7454 41.2423C89.8749 39.7175 90.1676 38.5059 90.5739 37.6555C90.9822 36.8011 91.4414 36.4319 91.8564 36.32L91.3357 34.3889ZM89.1355 53.2101C90.3509 57.718 92.1242 61.663 94.0414 64.3974C94.9975 65.761 96.0216 66.87 97.0719 67.5859C98.1184 68.2993 99.3079 68.6954 100.499 68.3742L99.9784 66.4432C99.5634 66.5551 98.9808 66.4667 98.1983 65.9333C97.4196 65.4025 96.5575 64.5022 95.679 63.2493C93.9271 60.7506 92.2377 57.0331 91.0665 52.6895L89.1355 53.2101ZM25.7062 94.031C24.7545 94.3381 24.7547 94.3388 24.755 94.3397C24.7552 94.3402 24.7555 94.3412 24.7558 94.3423C24.7565 94.3444 24.7575 94.3472 24.7586 94.3508C24.7609 94.3579 24.7642 94.3678 24.7685 94.3806C24.777 94.4062 24.7893 94.443 24.8056 94.4907C24.8382 94.5861 24.8866 94.7249 24.9513 94.9038C25.0809 95.2616 25.2761 95.7799 25.542 96.4318C26.0737 97.7353 26.8889 99.5751 28.0282 101.736C30.305 106.055 33.8867 111.678 39.1045 116.869C49.5836 127.294 66.601 135.904 92.5977 128.895L92.0771 126.964C66.842 133.768 50.5437 125.428 40.5151 115.451C35.4791 110.441 32.009 104.999 29.7974 100.804C28.6926 98.7078 27.9044 96.9281 27.3938 95.6764C27.1386 95.0507 26.9529 94.5574 26.8319 94.223C26.7714 94.0558 26.727 93.9284 26.6982 93.8441C26.6838 93.8019 26.6733 93.7706 26.6666 93.7504C26.6632 93.7403 26.6608 93.733 26.6594 93.7285C26.6586 93.7263 26.6581 93.7248 26.6579 93.724C26.6578 93.7236 26.6577 93.7236 26.6577 93.7234C26.6577 93.7235 26.6578 93.7238 25.7062 94.031ZM132.894 65.1307C131.916 65.3435 131.916 65.3432 131.916 65.3431C131.916 65.3433 131.916 65.3433 131.917 65.3438C131.917 65.3446 131.917 65.3461 131.918 65.3484C131.919 65.353 131.92 65.3605 131.922 65.3709C131.927 65.3917 131.933 65.4241 131.942 65.4678C131.96 65.5552 131.985 65.6876 132.017 65.8626C132.08 66.2125 132.168 66.7323 132.262 67.4015C132.45 68.7402 132.663 70.6749 132.762 73.0421C132.959 77.7805 132.695 84.2293 130.86 91.0919C127.207 104.758 117.311 120.16 92.0771 126.964L92.5977 128.895C118.593 121.886 128.975 105.888 132.792 91.6084C134.693 84.498 134.963 77.837 134.76 72.9589C134.658 70.5179 134.438 68.5177 134.242 67.1235C134.145 66.4263 134.053 65.8801 133.985 65.5058C133.951 65.3186 133.923 65.1742 133.903 65.0754C133.893 65.026 133.885 64.9879 133.88 64.9615C133.877 64.9483 133.875 64.9381 133.873 64.9308C133.873 64.9271 133.872 64.9242 133.872 64.922C133.871 64.921 133.871 64.9199 133.871 64.9193C133.871 64.9185 133.871 64.9178 132.894 65.1307ZM139.532 59.522C138.634 59.0831 138.634 59.0826 138.634 59.0822C138.634 59.0822 138.635 59.0818 138.635 59.0816C138.635 59.0813 138.635 59.0811 138.635 59.0811C138.635 59.0811 138.635 59.0816 138.634 59.0827C138.633 59.085 138.631 59.0895 138.627 59.0963C138.62 59.1098 138.609 59.1322 138.593 59.1626C138.56 59.2234 138.509 59.3164 138.439 59.4351C138.3 59.673 138.087 60.0126 137.799 60.4051C137.222 61.1943 136.362 62.1735 135.222 62.9751C134.087 63.7724 132.686 64.387 131.001 64.4809C129.318 64.5747 127.271 64.1537 124.836 62.7522L123.839 64.4856C126.553 66.0478 128.981 66.5965 131.112 66.4778C133.241 66.3592 134.995 65.5792 136.372 64.6113C137.743 63.6477 138.751 62.4913 139.413 61.5862C139.746 61.1315 139.996 60.7343 140.164 60.4471C140.249 60.3033 140.313 60.1867 140.357 60.1036C140.38 60.062 140.397 60.0288 140.409 60.0048C140.415 59.9928 140.42 59.983 140.424 59.9757C140.426 59.972 140.427 59.9689 140.428 59.9664C140.429 59.9652 140.429 59.9641 140.43 59.9632C140.43 59.9627 140.43 59.9621 140.43 59.9619C140.431 59.9614 140.431 59.9609 139.532 59.522ZM32.5864 88.3573C31.6878 87.9186 31.688 87.9182 31.6882 87.9178C31.6882 87.9177 31.6884 87.9173 31.6884 87.9172C31.6886 87.9168 31.6887 87.9167 31.6887 87.9166C31.6887 87.9166 31.6885 87.9171 31.6879 87.9183C31.6868 87.9205 31.6845 87.925 31.6811 87.9318C31.6742 87.9453 31.6626 87.9677 31.6464 87.9981C31.614 88.0589 31.563 88.1518 31.4934 88.2706C31.3539 88.5084 31.1408 88.848 30.8537 89.2404C30.2764 90.0296 29.417 91.0087 28.2768 91.8101C27.1426 92.6074 25.7416 93.222 24.0558 93.3159C22.3725 93.4097 20.3258 92.9889 17.89 91.5875L16.8926 93.3211C19.6075 94.883 22.0356 95.4316 24.1671 95.3128C26.2962 95.1942 28.0501 94.4142 29.4269 93.4464C30.7978 92.4828 31.8057 91.3264 32.4679 90.4213C32.8005 89.9666 33.0502 89.5694 33.2186 89.2823C33.3029 89.1385 33.3671 89.0219 33.4114 88.9388C33.4335 88.8972 33.4507 88.864 33.463 88.84C33.4691 88.8279 33.474 88.8182 33.4777 88.8108C33.4795 88.8072 33.481 88.8041 33.4823 88.8016C33.4829 88.8004 33.4834 88.7993 33.4839 88.7984C33.4841 88.7979 33.4844 88.7973 33.4845 88.7971C33.4848 88.7965 33.485 88.796 32.5864 88.3573Z" fill="white"/>
</svg>
