<svg width="58" height="60" viewBox="0 0 58 60" fill="none" xmlns="http://www.w3.org/2000/svg">
<g style="mix-blend-mode:screen" opacity="0.8">
<path d="M25.2513 2.51715C25.3457 1.40267 26.9196 1.26001 27.2128 2.33937L33.0169 23.7085C33.1256 24.1087 33.47 24.4003 33.8827 24.4415L55.2782 26.5761C56.3743 26.6854 56.514 28.2275 55.4555 28.5321L34.7924 34.4787C34.3939 34.5934 34.1075 34.9421 34.0725 35.3553L32.205 57.4198C32.1107 58.5343 30.5367 58.6769 30.2435 57.5976L24.4394 36.2284C24.3307 35.8282 23.9863 35.5366 23.5737 35.4955L2.17816 33.3609C1.08206 33.2515 0.942301 31.7095 2.00087 31.4048L22.6639 25.4583C23.0625 25.3436 23.3488 24.9948 23.3838 24.5816L25.2513 2.51715Z" stroke="#FFF5BE" stroke-width="2.5"/>
</g>
</svg>
