<svg width="86" height="89" viewBox="0 0 86 89" fill="none" xmlns="http://www.w3.org/2000/svg">
<g style="mix-blend-mode:screen" opacity="0.8">
<path d="M49.1459 2.83865C49.5174 1.78367 51.0767 2.0413 51.0891 3.1597L51.4747 37.9483C51.4793 38.363 51.7394 38.7318 52.1284 38.8754L83.7077 50.5305C84.7411 50.9119 84.4887 52.4396 83.3875 52.4683L49.7375 53.3464C49.323 53.3572 48.9581 53.6227 48.8204 54.0139L37.2651 86.8296C36.8937 87.8846 35.3344 87.627 35.322 86.5086L34.9363 51.72C34.9317 51.3053 34.6717 50.9365 34.2826 50.7929L2.70339 39.1377C1.66999 38.7563 1.92239 37.2286 3.02355 37.1999L36.6735 36.3219C37.0881 36.3111 37.4529 36.0455 37.5907 35.6544L49.1459 2.83865Z" stroke="#FFF5BE" stroke-width="2.5"/>
</g>
</svg>
