<svg width="15" height="20" viewBox="0 0 15 20" fill="none" xmlns="http://www.w3.org/2000/svg">
<path fill-rule="evenodd" clip-rule="evenodd" d="M12.917 9.8972C13.3158 9.13767 13.554 8.27881 13.5852 7.36356C13.6965 4.09595 11.1279 1.34692 7.848 1.22343C4.56808 1.09993 1.81889 3.64873 1.70752 6.91634C1.67503 7.86972 1.87067 8.77894 2.24556 9.59171C3.40863 12.8245 7.27969 17.8973 7.27969 17.8973C7.27969 17.8973 11.9692 12.1366 12.917 9.8972ZM7.55926 9.69489C9.19922 9.75664 10.5738 8.48225 10.6295 6.84845C10.6852 5.21464 9.40088 3.84012 7.76092 3.77838C6.12096 3.71663 4.74635 4.99104 4.69066 6.62484C4.63498 8.25864 5.9193 9.63314 7.55926 9.69489Z" stroke="white" stroke-width="1.5"/>
</svg>
