<svg width="16" height="16" viewBox="0 0 16 16" fill="none" xmlns="http://www.w3.org/2000/svg">
<path d="M14.3919 11.261L14.3249 13.2249C14.3195 13.4073 14.2757 13.5863 14.1964 13.7506C14.1171 13.9149 14.004 14.0607 13.8644 14.1789C13.7248 14.2971 13.5618 14.3849 13.3858 14.4367C13.2097 14.4886 13.0246 14.5033 12.8422 14.48C10.8196 14.1847 8.89317 13.4229 7.21753 12.2559C5.65786 11.1908 4.35219 9.79894 3.39325 8.17909C2.33657 6.42929 1.70902 4.45876 1.56145 2.42713C1.55113 2.24548 1.57903 2.06384 1.64337 1.89379C1.7077 1.72373 1.80707 1.56898 1.93514 1.43938C2.0632 1.30979 2.21717 1.20819 2.38722 1.14105C2.55728 1.07392 2.7397 1.04272 2.92288 1.04945L4.90195 1.12397C5.22221 1.13289 5.52875 1.25708 5.76444 1.47339C6.00012 1.68969 6.14887 1.98334 6.18296 2.29962C6.24507 2.93126 6.37895 3.55419 6.58205 4.15654C6.66282 4.39419 6.67335 4.64956 6.61239 4.89239C6.55143 5.13522 6.42154 5.35533 6.2381 5.52664L5.37196 6.32649C6.25521 8.00076 7.57643 9.40924 9.19623 10.4033L10.0624 9.6035C10.2477 9.43424 10.4783 9.32147 10.7268 9.27855C10.9753 9.23563 11.2313 9.26435 11.4644 9.36132C12.0553 9.60548 12.672 9.78262 13.3025 9.88936C13.6214 9.94629 13.9086 10.1175 14.1095 10.3704C14.3103 10.6233 14.4108 10.9403 14.3919 11.261Z" stroke="white" stroke-width="1.5" stroke-linecap="round" stroke-linejoin="round"/>
</svg>
