<svg width="140" height="210" viewBox="0 0 140 210" fill="none" xmlns="http://www.w3.org/2000/svg">
<g style="mix-blend-mode:screen" opacity="0.2">
<path d="M98.6313 4.72464C99.6765 0.74657 105.324 0.74657 106.369 4.72464L114.565 35.919C115.386 39.0462 119.386 39.9569 121.481 37.4937L142.334 12.9681C144.997 9.83595 150.086 12.2772 149.309 16.3146L143.208 48.0408C142.598 51.2117 145.803 53.761 148.756 52.4538L178.173 39.4295C181.928 37.7666 185.451 42.1671 183.006 45.4678L163.773 71.4354C161.854 74.0257 163.63 77.7051 166.852 77.8139L199.039 78.9006C203.141 79.0391 204.399 84.528 200.766 86.4385L172.206 101.46C169.355 102.959 169.355 107.041 172.206 108.54L200.766 123.561C204.399 125.472 203.141 130.961 199.039 131.099L166.852 132.186C163.63 132.295 161.854 135.974 163.773 138.565L183.006 164.532C185.451 167.833 181.928 172.233 178.173 170.571L148.756 157.546C145.803 156.239 142.598 158.788 143.208 161.959L149.309 193.685C150.086 197.723 144.997 200.164 142.334 197.032L121.481 172.506C119.386 170.043 115.386 170.954 114.565 174.081L106.369 205.275C105.324 209.253 99.6765 209.253 98.6313 205.275L90.4354 174.081C89.6138 170.954 85.6138 170.043 83.5193 172.506L62.6661 197.032C60.0028 200.164 54.9143 197.723 55.6907 193.685L61.7918 161.959C62.4016 158.788 59.1969 156.239 56.2444 157.546L26.8274 170.571C23.0716 172.233 19.549 167.833 21.9937 164.532L41.2274 138.565C43.146 135.974 41.3697 132.295 38.1481 132.186L5.96098 131.099C1.85892 130.961 0.601366 125.472 4.23397 123.561L32.794 108.54C35.6447 107.041 35.6447 102.959 32.794 101.46L4.23398 86.4385C0.601379 84.528 1.85892 79.0391 5.96098 78.9006L38.1481 77.8139C41.3696 77.7051 43.146 74.0257 41.2274 71.4354L21.9937 45.4678C19.5489 42.1671 23.0716 37.7666 26.8274 39.4295L56.2444 52.4538C59.1969 53.761 62.4016 51.2117 61.7918 48.0408L55.6907 16.3146C54.9143 12.2772 60.0028 9.83595 62.6661 12.9681L83.5193 37.4937C85.6138 39.9569 89.6138 39.0462 90.4354 35.919L98.6313 4.72464Z" stroke="#FFF5BE" stroke-width="2.5"/>
</g>
</svg>
