<svg width="14" height="16" viewBox="0 0 14 16" fill="none" xmlns="http://www.w3.org/2000/svg">
<path d="M8 14C7.89838 14.3042 7.75251 14.5566 7.57701 14.7321C7.40151 14.9076 7.20253 15 7 15C6.79747 15 6.59849 14.9076 6.42299 14.7321C6.24749 14.5566 6.10162 14.3042 6 14M11 5C11 3.93913 10.5786 2.92172 9.82843 2.17157C9.07828 1.42143 8.06087 1 7 1C5.93913 1 4.92172 1.42143 4.17157 2.17157C3.42143 2.92172 3 3.93913 3 5C3 9.66667 1 11 1 11H13C13 11 11 9.66667 11 5Z" stroke="white" stroke-linecap="round" stroke-linejoin="round"/>
</svg>
