<svg width="15" height="15" viewBox="0 0 15 15" fill="none" xmlns="http://www.w3.org/2000/svg">
<path d="M14 9.6258L10.4453 5.93262L2.625 14.0576M2.44444 1.05762H12.5556C13.3533 1.05762 14 1.70432 14 2.50206V12.6132C14 13.4109 13.3533 14.0576 12.5556 14.0576H2.44444C1.6467 14.0576 1 13.4109 1 12.6132V2.50206C1 1.70432 1.6467 1.05762 2.44444 1.05762ZM5.875 5.12012C5.875 5.56885 5.51123 5.93262 5.0625 5.93262C4.61377 5.93262 4.25 5.56885 4.25 5.12012C4.25 4.67139 4.61377 4.30762 5.0625 4.30762C5.51123 4.30762 5.875 4.67139 5.875 5.12012Z" stroke="white" stroke-linecap="round" stroke-linejoin="round"/>
</svg>
