<svg width="138" height="24" viewBox="0 0 138 24" fill="none" xmlns="http://www.w3.org/2000/svg">
<path d="M134.74 10.5922C135.46 10.0882 135.946 9.09817 135.946 8.03617C135.946 6.12817 134.416 4.83217 132.166 4.83217C129.898 4.83217 128.35 6.14617 128.35 8.03617C128.35 9.08017 128.854 10.0522 129.628 10.5922C128.584 11.1862 127.918 12.3022 127.918 13.5442C127.918 15.7402 129.628 17.2162 132.166 17.2162C134.668 17.2162 136.414 15.6862 136.414 13.5442C136.414 12.2662 135.748 11.1502 134.74 10.5922ZM132.166 6.09217C133.534 6.09217 134.488 6.88417 134.488 8.03617C134.488 9.20617 133.534 9.99817 132.166 9.99817C130.762 9.99817 129.808 9.20617 129.808 8.03617C129.808 6.88417 130.762 6.09217 132.166 6.09217ZM132.166 15.9022C130.528 15.9022 129.412 14.9482 129.412 13.5982C129.412 12.1942 130.546 11.2582 132.166 11.2582C133.786 11.2582 134.92 12.1942 134.92 13.5982C134.92 14.9482 133.804 15.9022 132.166 15.9022Z" fill="white"/>
<path d="M106.5 1.00017L109.127 6.59533L115 7.49806L110.75 11.8509L111.753 18.0002L106.5 15.0953L101.247 18.0002L102.25 11.8509L98 7.49806L103.874 6.59533L106.5 1.00017Z" stroke="#858585" stroke-width="1.5" stroke-linecap="round" stroke-linejoin="round"/>
<path d="M82.5 1.00017L85.1265 6.59533L91 7.49806L86.75 11.8509L87.753 18.0002L82.5 15.0953L77.247 18.0002L78.25 11.8509L74 7.49806L79.8735 6.59533L82.5 1.00017Z" stroke="#FF9E00" stroke-width="1.5" stroke-linecap="round" stroke-linejoin="round"/>
<path d="M58 1.00017L60.472 6.59533L66 7.49806L62 11.8509L62.944 18.0002L58 15.0953L53.056 18.0002L54 11.8509L50 7.49806L55.528 6.59533L58 1.00017Z" stroke="#FF9E00" stroke-width="1.5" stroke-linecap="round" stroke-linejoin="round"/>
<path d="M33.5 1.00017L36.1265 6.59533L42 7.49806L37.75 11.8509L38.753 18.0002L33.5 15.0953L28.247 18.0002L29.25 11.8509L25 7.49806L30.8735 6.59533L33.5 1.00017Z" stroke="#FF9E00" stroke-width="1.5" stroke-linecap="round" stroke-linejoin="round"/>
<path d="M9.5 1.00017L12.1265 6.59533L18 7.49806L13.75 11.8509L14.753 18.0002L9.5 15.0953L4.247 18.0002L5.25 11.8509L1 7.49806L6.8735 6.59533L9.5 1.00017Z" stroke="#FF9E00" stroke-width="1.5" stroke-linecap="round" stroke-linejoin="round"/>
</svg>
