<svg width="100" height="100" viewBox="0 0 100 100" fill="none" xmlns="http://www.w3.org/2000/svg">
<g filter="url(#filter0_b_760_301)">
<path d="M91.4168 54.6129C91.2764 56.1543 91.7143 57.4491 92.637 58.3559L94.1108 56.9768C93.5372 56.3922 93.2559 55.7149 93.3289 54.9143C93.454 53.5402 94.4791 52.673 95.8861 52.8061C97.2932 52.9392 98.1441 53.9838 98.019 55.3579C97.9461 56.1585 97.5473 56.7715 96.8779 57.2385L98.0775 58.8704C99.1481 58.1522 99.8124 56.9617 99.9528 55.4203C100.194 52.7677 98.6013 50.6526 96.1038 50.4164C93.6063 50.1802 91.6584 51.9603 91.4168 54.6129Z" fill="#FF5557"/>
<path d="M88.8629 66.4686L94.9801 68.3242L95.5851 66.2665L92.954 63.3835L96.6567 62.6226L97.3327 60.3237L91.2189 58.4566L90.6409 60.4223L93.9008 61.4178L90.726 62.1394L90.4522 63.0705L92.6557 65.4847L89.4409 64.503L88.8629 66.4686Z" fill="#FF5557"/>
<path d="M86.9175 69.9878C85.9406 71.8912 86.4683 73.8923 88.1796 74.8045C89.8804 75.711 91.7839 75.0058 92.7609 73.1024C93.7269 71.2203 93.2206 69.2035 91.5197 68.2969C89.8085 67.3848 87.8836 68.1057 86.9175 69.9878ZM88.4932 70.8276C88.8425 70.1471 89.6058 69.8769 90.4718 70.3385C91.3275 70.7945 91.5346 71.5821 91.1853 72.2626C90.8305 72.9537 90.0831 73.2189 89.2275 72.7629C88.3614 72.3012 88.1384 71.5188 88.4932 70.8276Z" fill="#FF5557"/>
<path d="M84.9453 84.3451C85.5408 83.6325 85.7744 82.7792 85.6186 81.9662C86.4287 82.0703 87.1518 81.7048 87.7168 81.0287C88.2054 80.444 88.4434 79.7521 88.3619 79.0352L88.8729 79.4787L90.2549 77.8251L85.3957 73.6081L83.9451 75.344L86.3567 77.4369C87.1098 78.0904 87.1361 78.7437 86.7086 79.2553C86.3192 79.7213 85.7867 79.7477 85.0874 79.1409L82.5861 76.9702L81.1354 78.706L83.5471 80.7989C84.3002 81.4525 84.3265 82.1058 83.9066 82.6083C83.5248 83.0651 82.9846 83.1007 82.2853 82.4938L79.784 80.3231L78.3334 82.0589L81.1126 84.4708C82.6188 85.7779 83.9833 85.4962 84.9453 84.3451Z" fill="#FF5557"/>
<path d="M78.6907 89.8996C78.1333 90.3289 77.5674 90.5942 76.9931 90.6955C76.4188 90.7969 75.8706 90.7277 75.3485 90.488C74.8248 90.2596 74.3618 89.8741 73.9595 89.3316C73.5619 88.7955 73.315 88.2436 73.2188 87.6759C73.1273 87.1147 73.1866 86.5777 73.3967 86.0649C73.6116 85.5585 73.9664 85.1147 74.4612 84.7337C75.0437 84.2851 75.6358 84.1149 76.2375 84.2231L74.5194 81.9063L76.3044 80.5316L79.5916 84.9643C79.9891 85.5004 80.2204 86.0643 80.2853 86.6561C80.3502 87.2479 80.2463 87.8242 79.9735 88.3853C79.7008 88.9463 79.2732 89.4511 78.6907 89.8996ZM75.8715 85.9189C75.552 86.1649 75.3781 86.4743 75.3496 86.8472C75.3196 87.2313 75.4418 87.6085 75.7163 87.9787C75.9908 88.3489 76.3111 88.5685 76.6772 88.6375C77.0418 88.7178 77.3838 88.6349 77.7032 88.3889C78.0226 88.1429 78.1942 87.8303 78.218 87.451C78.2465 87.0781 78.1235 86.7065 77.8489 86.3363C77.5697 85.9598 77.2533 85.7321 76.8997 85.6535C76.5399 85.5796 76.1972 85.6681 75.8715 85.9189Z" fill="#FF5557"/>
<path d="M68.8381 95.6785L65.964 89.8712L67.8671 88.8932L68.1693 89.5039C68.2665 89.1673 68.4322 88.8626 68.6665 88.5898C68.8938 88.3207 69.1722 88.1015 69.5016 87.9322C70.2446 87.5503 70.9465 87.4673 71.6073 87.6832C72.2611 87.9027 72.8071 88.4554 73.2455 89.3411L74.8522 92.5876L72.8545 93.6143L71.4122 90.7C70.9986 89.8642 70.4728 89.6103 69.835 89.9381C69.5195 90.1002 69.3185 90.3424 69.2318 90.6647C69.1487 90.9941 69.222 91.391 69.4518 91.8553L70.8358 94.6518L68.8381 95.6785Z" fill="#FF5557"/>
<path d="M57.7891 95.8115C57.0232 95.734 56.5562 95.3169 56.3879 94.5601C56.2613 93.9905 56.3797 93.4915 56.7433 93.063C57.1086 92.6424 57.7161 92.3339 58.566 92.1377L62.0688 91.3289L63.4792 97.6721L60.1372 98.4438C59.3256 98.6312 58.6657 98.6318 58.1574 98.4456C57.6415 98.2613 57.3254 97.9077 57.2092 97.3849C57.1415 97.0807 57.1583 96.7938 57.2593 96.5244C57.3604 96.255 57.537 96.0173 57.7891 95.8115ZM60.9595 95.5716L59.7651 95.8474C59.2598 95.964 59.0497 96.2135 59.1347 96.5958C59.2162 96.9626 59.5096 97.0876 60.0149 96.9709L61.2093 96.6951L60.9595 95.5716ZM59.0813 93.5321C58.553 93.6541 58.3322 93.9101 58.419 94.3003C58.5057 94.6904 58.8056 94.8262 59.3186 94.7078L60.6967 94.3895L60.4365 93.2192L59.0813 93.5321Z" fill="#FF5557"/>
<path d="M51.8574 92.9404C52.5625 92.8932 53.2023 92.9947 53.777 93.2448C54.3517 93.495 54.8122 93.865 55.1585 94.3549C55.4969 94.8454 55.687 95.4139 55.7287 96.0605C55.7704 96.7071 55.6546 97.2921 55.3815 97.8155C55.1011 98.3474 54.6918 98.7716 54.1537 99.0882C53.616 99.4128 52.9947 99.5987 52.2896 99.6459C51.5689 99.6942 50.9359 99.5762 50.3904 99.292C49.8455 99.0158 49.4454 98.6056 49.19 98.0615L50.8595 97.0478C51.1869 97.6112 51.6287 97.8742 52.1848 97.837C52.5844 97.8103 52.9085 97.6523 53.1574 97.363C53.3984 97.0743 53.5035 96.6905 53.4726 96.2115C53.4412 95.7246 53.2873 95.35 53.0107 95.088C52.7269 94.8344 52.3852 94.7209 51.9857 94.7477C51.4295 94.7849 51.0253 95.1046 50.773 95.7067L48.9878 94.9243C49.1712 94.3508 49.515 93.8868 50.0192 93.5324C50.524 93.1859 51.1367 92.9886 51.8574 92.9404Z" fill="#FF5557"/>
<path d="M45.1934 94.5134C44.8885 94.4846 44.6227 94.5036 44.3958 94.5705C44.1612 94.6367 43.9214 94.7586 43.6766 94.9363L42.629 93.5839C43.2947 92.9398 44.2256 92.6744 45.4215 92.7875C46.1642 92.8577 46.8038 93.0628 47.3405 93.4028C47.8772 93.7428 48.2787 94.1825 48.5449 94.7219C48.8033 95.2606 48.9032 95.8525 48.8444 96.4977C48.7863 97.135 48.582 97.6901 48.2315 98.1631C47.8802 98.6441 47.4257 99.0028 46.868 99.2393C46.3026 99.4751 45.6876 99.5615 45.0232 99.4987C44.4056 99.4403 43.8548 99.2556 43.3706 98.9447C42.8779 98.641 42.502 98.2238 42.2429 97.6931C41.983 97.1704 41.8842 96.5665 41.9466 95.8815L46.5649 95.4265C46.3697 94.8858 45.9125 94.5814 45.1934 94.5134ZM45.1584 97.8845C45.5414 97.9207 45.8653 97.8268 46.1301 97.6028C46.3942 97.3868 46.5626 97.0532 46.6352 96.6021L44.0088 96.8719C44.0623 97.1501 44.1913 97.3793 44.3956 97.5593C44.5993 97.7473 44.8535 97.8557 45.1584 97.8845Z" fill="#FF5557"/>
<path d="M35.9804 90.7037C36.6524 90.9259 37.2099 91.2617 37.6528 91.711C38.0957 92.1602 38.389 92.6777 38.5326 93.2635C38.6687 93.8468 38.6386 94.4467 38.4423 95.063C38.246 95.6794 37.9259 96.1791 37.482 96.5622C37.0282 96.9504 36.4939 97.19 35.8789 97.281C35.2615 97.3796 34.6168 97.3177 33.9447 97.0955C33.2578 96.8683 32.7126 96.5198 32.3092 96.0499C31.9035 95.5877 31.6808 95.0557 31.6414 94.4539L33.5605 94.1424C33.6599 94.7892 33.9747 95.2003 34.5048 95.3757C34.8856 95.5016 35.2442 95.4772 35.5805 95.3025C35.9093 95.1252 36.1464 94.8083 36.2918 94.3518C36.4396 93.8876 36.4327 93.4816 36.2711 93.1338C36.0996 92.7911 35.8235 92.5568 35.4427 92.4309C34.9125 92.2555 34.4208 92.3999 33.9676 92.864L32.5938 91.4635C32.9725 91 33.4605 90.6987 34.0577 90.5598C34.6525 90.4285 35.2934 90.4765 35.9804 90.7037Z" fill="#FF5557"/>
<path d="M30.3885 88.2728C28.5135 87.2914 26.5538 87.8439 25.6714 89.5945C24.7944 91.3344 25.5005 93.2689 27.3755 94.2503C29.2295 95.2208 31.2048 94.6899 32.0818 92.95C32.9642 91.1994 32.2425 89.2433 30.3885 88.2728ZM29.5761 89.8846C30.2464 90.2355 30.5173 91.0113 30.0707 91.8973C29.6295 92.7726 28.8583 92.9894 28.1879 92.6385C27.5071 92.2821 27.2413 91.5225 27.6825 90.6472C28.1291 89.7612 28.8952 89.5282 29.5761 89.8846Z" fill="#FF5557"/>
<path d="M20.1823 88.7674C19.6903 88.3827 19.3377 87.9508 19.1246 87.4715C18.9067 86.9987 18.8405 86.5083 18.9261 86.0005C19.0006 85.494 19.217 85.0028 19.5754 84.5268C19.9434 84.0381 20.3929 83.7039 20.924 83.5242C21.4441 83.346 22.001 83.3226 22.5947 83.454C23.1773 83.5869 23.7396 83.8652 24.2815 84.2888C25.1722 84.9852 25.6696 85.8228 25.7737 86.8016C25.8778 87.7804 25.5046 88.8347 24.6539 89.9645C23.0579 92.0845 21.2042 92.6014 19.093 91.5154L16.2774 90.0704L17.1742 88.3667L19.6126 89.6227C20.2309 89.9448 20.7538 90.0915 21.1812 90.0626C21.5976 90.0353 21.9908 89.8284 22.3608 89.4421C21.5812 89.5183 20.855 89.2934 20.1823 88.7674ZM23.24 85.6525C22.9223 85.4042 22.5943 85.3141 22.256 85.3823C21.9114 85.4457 21.6221 85.6329 21.3879 85.9439C21.1394 86.2739 21.0393 86.604 21.0876 86.9342C21.1311 87.2707 21.3086 87.5607 21.62 87.8042C21.9376 88.0525 22.2647 88.157 22.6011 88.1175C22.9313 88.0732 23.2207 87.886 23.4692 87.556C23.7081 87.2386 23.8075 86.9029 23.7673 86.5488C23.7272 86.1948 23.5514 85.896 23.24 85.6525Z" fill="#FF5557"/>
<path d="M18.7168 79.1517C20.0918 80.785 20.0912 82.2033 18.7148 83.4066L15.7923 85.9616L14.3431 84.2403L15.8804 82.8963C15.6896 82.8418 15.478 82.7317 15.2454 82.566C15.0078 82.3943 14.7714 82.1688 14.5363 81.8895C14.0251 81.2823 13.7758 80.6729 13.7883 80.0611C13.7948 79.4546 14.093 78.8935 14.6829 78.3778C15.3204 77.8204 15.9952 77.6205 16.7071 77.7781C17.4079 77.9349 18.0778 78.3927 18.7168 79.1517ZM11.2991 80.6245L9.84232 78.8941L14.6864 74.6592L16.1432 76.3896L11.2991 80.6245ZM17.5549 80.1675C17.3556 79.9307 17.1363 79.8115 16.897 79.8098C16.6577 79.8082 16.4249 79.9064 16.1985 80.1043C15.978 80.297 15.8563 80.5088 15.8334 80.7396C15.8106 80.9705 15.8962 81.2012 16.0905 81.432C16.2285 81.5959 16.381 81.7156 16.5479 81.791C16.7148 81.8664 16.8796 81.8963 17.0422 81.8806L17.4176 81.5524C17.65 81.3493 17.7836 81.1271 17.8184 80.8858C17.8472 80.6498 17.7594 80.4103 17.5549 80.1675Z" fill="#FF5557"/>
<path d="M4.68004 69.4367C4.33434 68.7185 4.27097 68.0418 4.48992 67.4066C4.70541 66.7643 5.23958 66.23 6.09243 65.8038L9.36993 64.1657L10.3551 66.2127L7.4054 67.687C7.00364 67.8878 6.74564 68.1148 6.63138 68.3679C6.51367 68.6138 6.52222 68.8769 6.65704 69.157C6.80569 69.4659 7.03068 69.6608 7.33201 69.7419C7.63334 69.8229 7.99898 69.756 8.42893 69.5411L11.273 68.1197L12.2582 70.1668L9.30843 71.641C8.52606 72.0321 8.27661 72.5221 8.56007 73.111C8.71218 73.4271 8.93889 73.6256 9.24022 73.7067C9.54156 73.7878 9.9072 73.7208 10.3371 73.506L13.1812 72.0845L14.1664 74.1316L8.43606 76.9956L7.4975 75.0455L8.10014 74.7443C7.76384 74.6451 7.46843 74.4764 7.21392 74.2383C6.94891 73.9965 6.73171 73.6996 6.56232 73.3477C6.36528 72.9383 6.26298 72.535 6.25544 72.1378C6.24789 71.7406 6.34727 71.3657 6.55355 71.0131C6.15395 70.9277 5.79192 70.7477 5.46747 70.4733C5.14301 70.1988 4.88054 69.8533 4.68004 69.4367Z" fill="#FF5557"/>
<path d="M2.08224 60.4065L5.07972 59.7144C6.12481 59.4731 6.66684 59.9016 6.81256 60.557C6.96089 61.2241 6.67037 61.7095 5.70567 61.9322L2.58186 62.6535L3.07628 64.8772L6.55611 64.0737C8.53146 63.6176 9.15187 62.2808 8.80318 60.7126C8.64444 59.9987 8.24086 59.3782 7.62884 59.0151L8.28347 58.8639L7.81247 56.7456L1.58782 58.1828L2.08224 60.4065Z" fill="#FF5557"/>
<path d="M1.10369 52.8127C1.19418 54.8026 2.12134 56.0082 3.65054 55.9359C4.56806 55.8926 5.20499 55.382 5.53094 54.5137L7.63137 55.8561L7.5218 53.4467L5.7403 52.3775L5.69342 51.3466L7.42259 51.265L7.33046 49.2392L0.954876 49.5402L1.10369 52.8127ZM2.86597 52.6815L2.81146 51.4827L4.25832 51.4144L4.31338 52.6251C4.34172 53.2485 4.14471 53.5821 3.62713 53.6065C3.12132 53.6304 2.89377 53.2928 2.86597 52.6815Z" fill="#FF5557"/>
<path d="M8.51159 41.0806C8.81329 39.5634 8.51408 38.2283 7.69212 37.2259L6.08175 38.4361C6.59053 39.0799 6.79893 39.7841 6.64224 40.5721C6.37329 41.9246 5.2629 42.6748 3.87796 42.3888C2.49303 42.1029 1.75683 40.9713 2.02579 39.6188C2.18248 38.8308 2.64346 38.2648 3.35805 37.8737L2.33704 36.1201C1.19701 36.7173 0.411348 37.8284 0.109655 39.3456C-0.409539 41.9565 0.951961 44.2334 3.41022 44.741C5.86848 45.2487 7.9924 43.6915 8.51159 41.0806Z" fill="#FF5557"/>
<path d="M11.5044 31.5025L8.41341 30.1703L10.3462 32.8144L9.97459 33.7096L6.74155 34.075L9.87589 35.426L9.09147 37.3159L3.21323 34.7823L4.13068 32.5719L7.89262 32.2259L5.58483 29.0684L6.40595 27.09L12.2888 29.6126L11.5044 31.5025Z" fill="#FF5557"/>
<path d="M14.6392 26.2294C14.2579 26.8068 13.7966 27.2474 13.2553 27.5512C12.714 27.8551 12.1473 27.9968 11.5552 27.9764C10.9674 27.9494 10.4097 27.7551 9.88216 27.3933C9.36111 27.036 8.97763 26.585 8.73172 26.0403C8.4902 25.489 8.40666 24.9061 8.48112 24.2919C8.55345 23.6665 8.78245 23.0617 9.16814 22.4777C9.55383 21.8936 10.0173 21.4497 10.5586 21.1458C11.0933 20.8376 11.6546 20.6969 12.2424 20.7239C12.8236 20.7464 13.378 20.9386 13.9056 21.3004C14.4332 21.6621 14.8199 22.1154 15.0658 22.6601C15.3117 23.2048 15.3985 23.7898 15.3262 24.4152C15.2539 25.0406 15.0248 25.6453 14.6392 26.2294ZM13.1639 25.2178C13.3831 24.8859 13.4521 24.5378 13.3709 24.1736C13.2831 23.8049 13.0406 23.4843 12.6433 23.2119C12.2526 22.9439 11.8763 22.8402 11.5146 22.9007C11.1529 22.9612 10.8625 23.1574 10.6434 23.4893C10.4242 23.8212 10.3552 24.1692 10.4364 24.5334C10.5176 24.8977 10.7536 25.2138 11.1444 25.4818C11.5417 25.7542 11.9245 25.8624 12.2927 25.8063C12.6544 25.7458 12.9448 25.5496 13.1639 25.2178Z" fill="#FF5557"/>
<path d="M17.9756 12.3001C18.5447 11.749 19.1593 11.4849 19.8195 11.5076C20.4855 11.5249 21.1456 11.8844 21.8 12.586L24.3148 15.2825L22.693 16.8532L20.4297 14.4264C20.1214 14.0958 19.8317 13.9129 19.5605 13.8776C19.2949 13.8367 19.0512 13.9238 18.8293 14.1387C18.5846 14.3757 18.4694 14.6528 18.4837 14.9701C18.498 15.2873 18.6701 15.6228 19 15.9766L21.1822 18.3164L19.5604 19.8871L17.2971 17.4603C16.6968 16.8166 16.1633 16.7207 15.6967 17.1726C15.4463 17.4151 15.3283 17.695 15.3425 18.0122C15.3568 18.3295 15.5289 18.665 15.8588 19.0187L18.041 21.3586L16.4192 22.9292L12.0224 18.2148L13.5674 16.7185L14.0298 17.2143C14.022 16.8576 14.0915 16.5199 14.2383 16.2011C14.3854 15.8711 14.5983 15.571 14.8771 15.301C15.2015 14.9868 15.5485 14.7667 15.9181 14.6404C16.2878 14.5142 16.6686 14.4986 17.0604 14.5937C17.0208 14.1795 17.0809 13.7737 17.2408 13.3761C17.4006 12.9784 17.6456 12.6198 17.9756 12.3001Z" fill="#FF5557"/>
<path d="M24.6701 7.48899C22.7824 8.64452 22.23 10.5505 23.2609 12.2992L26.0685 17.062L27.9864 15.8879L26.5189 13.3985C27.1188 13.5773 27.7125 13.4658 28.3384 13.0827C29.9434 12.1002 30.3403 10.3033 29.3155 8.56489C28.2725 6.79558 26.4871 6.37671 24.6701 7.48899ZM27.0593 11.7519C26.3628 12.1782 25.6094 11.9255 25.1364 11.1231C24.6634 10.3208 24.8084 9.51809 25.4949 9.09789C26.1813 8.6777 26.9609 8.92835 27.4279 9.72043C27.9008 10.5228 27.7457 11.3317 27.0593 11.7519Z" fill="#FF5557"/>
<path d="M35.2274 2.71676L37.4696 8.8062L35.474 9.56924L35.2382 8.92884C35.106 9.25283 34.9089 9.53752 34.6471 9.78289C34.3926 10.0254 34.0927 10.2128 33.7472 10.3449C32.9681 10.6428 32.2615 10.6481 31.6275 10.3607C31.0008 10.0706 30.5165 9.46115 30.1745 8.53238L28.921 5.12813L31.0158 4.32715L32.141 7.38311C32.4637 8.25945 32.9594 8.56974 33.6283 8.31399C33.9591 8.18752 34.1846 7.96884 34.3049 7.65796C34.4224 7.33958 34.3916 6.93697 34.2123 6.45011L33.1326 3.51774L35.2274 2.71676Z" fill="#FF5557"/>
<path d="M46.2059 3.78306C46.7465 3.42914 47.0183 2.90166 46.9476 2.28183C46.8254 1.20904 45.7969 0.714654 44.1476 0.909865L40.7438 1.31275L41.4801 7.77332L45.0477 7.35105C46.8257 7.14061 47.5967 6.31243 47.4676 5.18005C47.382 4.42909 46.9597 3.94754 46.2059 3.78306ZM42.898 2.53161L44.1145 2.38763C44.6292 2.32671 44.9069 2.47505 44.9504 2.85648C44.9939 3.23792 44.7596 3.47102 44.2449 3.53193L43.0285 3.67592L42.898 2.53161ZM44.6818 5.90844L43.3015 6.07181L43.1657 4.87982L44.5693 4.71369C45.0957 4.65139 45.3761 4.82357 45.421 5.21692C45.4658 5.61028 45.2198 5.84476 44.6818 5.90844Z" fill="#FF5557"/>
<path d="M51.816 7.2682C53.2631 7.33084 54.3965 6.7193 54.8788 5.61116L53.1868 4.63711C52.8554 5.23532 52.3973 5.47973 51.8797 5.45732C51.1032 5.42371 50.5144 4.84573 50.5564 3.83864C50.5973 2.85552 51.2321 2.3305 52.0086 2.36411C52.5263 2.38652 52.9623 2.66963 53.2427 3.29432L55.0097 2.47C54.6214 1.32417 53.5429 0.616894 52.0958 0.554255C49.9546 0.46157 48.3789 1.78662 48.2975 3.74086C48.215 5.71908 49.6747 7.17552 51.816 7.2682Z" fill="#FF5557"/>
<path d="M58.4281 6.37616C57.7356 6.23317 57.3 5.88609 57.1605 5.31856L61.8 5.37057C62.2024 3.2865 60.9221 1.80996 59.1216 1.43817C57.1366 1.02825 55.388 2.08746 55.0068 4.0045C54.6279 5.90977 55.7923 7.60723 58.0197 8.0672C59.2084 8.31268 60.1557 8.14098 60.88 7.58039L59.9806 6.1213C59.4788 6.40947 59.0397 6.50247 58.4281 6.37616ZM58.8174 3.02828C59.4291 3.15459 59.8091 3.60037 59.8539 4.16059L57.2142 4.142C57.4636 3.2507 58.0673 2.87337 58.8174 3.02828Z" fill="#FF5557"/>
<path d="M67.2084 11.1258C66.564 10.8306 66.0456 10.4352 65.6531 9.93957C65.2606 9.44398 65.0242 8.89709 64.9438 8.2989C64.8706 7.70399 64.9644 7.11102 65.2251 6.52001C65.4859 5.929 65.8573 5.46762 66.3393 5.13588C66.8318 4.80013 67.3885 4.62102 68.0095 4.59856C68.6338 4.56881 69.2681 4.70155 69.9125 4.9968C70.5713 5.2986 71.0761 5.70533 71.4271 6.21698C71.7812 6.72134 71.9459 7.27482 71.921 7.87743L69.9801 7.97493C69.9502 7.32091 69.681 6.87744 69.1727 6.64452C68.8075 6.47722 68.4485 6.46184 68.0956 6.59838C67.7498 6.7382 67.4804 7.02701 67.2872 7.4648C67.0909 7.90988 67.0545 8.31424 67.1781 8.67787C67.3121 9.03749 67.5617 9.30095 67.9268 9.46825C68.4352 9.70117 68.9393 9.61199 69.4393 9.20073L70.6559 10.7449C70.2301 11.1638 69.7129 11.4093 69.1044 11.4814C68.4992 11.5461 67.8671 11.4276 67.2084 11.1258Z" fill="#FF5557"/>
<path d="M72.5881 14.1598C72.0173 13.7776 71.5799 13.3124 71.2758 12.7642C70.9717 12.216 70.8264 11.64 70.8399 11.0364C70.8599 10.4372 71.0445 9.86681 71.3937 9.32526C71.7386 8.79039 72.1769 8.39467 72.7087 8.13811C73.247 7.88594 73.818 7.79441 74.4216 7.86353C75.036 7.93035 75.632 8.15706 76.2093 8.54366C76.7867 8.93025 77.2274 9.39765 77.5314 9.94586C77.8398 10.4874 77.984 11.0578 77.964 11.657C77.9483 12.2495 77.7658 12.8166 77.4166 13.3581C77.0674 13.8997 76.6269 14.2987 76.0952 14.5553C75.5634 14.8119 74.9903 14.9067 74.3758 14.8399C73.7614 14.7731 73.1655 14.5464 72.5881 14.1598ZM73.5645 12.6454C73.8926 12.8651 74.2349 12.9315 74.5914 12.8448C74.9522 12.7514 75.2641 12.5007 75.5271 12.0929C75.7857 11.6918 75.8834 11.3072 75.82 10.9393C75.7566 10.5714 75.5609 10.2777 75.2329 10.058C74.9048 9.83835 74.5625 9.77189 74.206 9.85863C73.8495 9.94537 73.5419 10.1893 73.2833 10.5905C73.0203 10.9983 72.9183 11.3895 72.9774 11.7641C73.0408 12.132 73.2365 12.4258 73.5645 12.6454Z" fill="#FF5557"/>
<path d="M82.8385 14.7836C83.2881 15.219 83.5941 15.6864 83.7564 16.1858C83.9243 16.6794 83.9394 17.1741 83.8018 17.67C83.6754 18.1656 83.4093 18.6308 83.0037 19.0658C82.5873 19.5123 82.1057 19.7964 81.559 19.9181C81.0234 20.0395 80.4672 20.0029 79.8904 19.8085C79.3247 19.6138 78.7943 19.2767 78.2993 18.7973C77.4855 18.0092 77.0775 17.1228 77.0751 16.1383C77.0727 15.1537 77.5529 14.1454 78.5155 13.1132C80.3219 11.1763 82.2186 10.8612 84.2059 12.1678L86.8564 13.907L85.7885 15.505L83.4935 13.9942C82.9119 13.6075 82.4071 13.4056 81.9791 13.3884C81.5622 13.3709 81.1498 13.5344 80.7419 13.8788C81.5251 13.8868 82.224 14.1884 82.8385 14.7836ZM79.476 17.553C79.7662 17.834 80.083 17.9588 80.4265 17.9273C80.7757 17.9012 81.0828 17.7462 81.3478 17.462C81.629 17.1605 81.7627 16.8429 81.7488 16.5094C81.7403 16.1701 81.5938 15.8627 81.3093 15.5872C81.0191 15.3061 80.7047 15.1671 80.366 15.1702C80.0331 15.1789 79.726 15.3339 79.4448 15.6355C79.1743 15.9254 79.0408 16.2486 79.0442 16.605C79.0475 16.9614 79.1914 17.2774 79.476 17.553Z" fill="#FF5557"/>
<path d="M83.4077 24.6214C82.2159 22.8448 82.3686 21.4351 83.8656 20.3922L87.0445 18.1777L88.3005 20.05L86.6284 21.2148C86.8122 21.2903 87.0108 21.4233 87.2242 21.6138C87.442 21.8109 87.6528 22.0614 87.8566 22.3652C88.2997 23.0256 88.4822 23.6592 88.4042 24.2659C88.3327 24.8681 87.9761 25.3927 87.3345 25.8396C86.6411 26.3227 85.949 26.4463 85.2582 26.2104C84.5783 25.9766 83.9615 25.4469 83.4077 24.6214ZM90.9388 23.9829L92.2015 25.8651L86.9325 29.5356L85.6699 27.6534L90.9388 23.9829ZM84.6714 23.741C84.8442 23.9986 85.0495 24.1415 85.2871 24.1697C85.5248 24.198 85.7668 24.1263 86.013 23.9548C86.2528 23.7877 86.3965 23.5907 86.444 23.3638C86.4914 23.137 86.431 22.898 86.2627 22.6471C86.143 22.4687 86.0043 22.3328 85.8465 22.2393C85.6886 22.1457 85.528 22.0977 85.3647 22.0952L84.9564 22.3796C84.7036 22.5557 84.547 22.7617 84.4866 22.9976C84.4326 23.2291 84.4942 23.4768 84.6714 23.741Z" fill="#FF5557"/>
<path d="M96.303 35.7475C96.5705 36.4997 96.5618 37.1794 96.2767 37.7867C95.9944 38.4015 95.4067 38.8739 94.5136 39.2037L91.0816 40.4712L90.3193 38.3277L93.4081 37.1869C93.8288 37.0315 94.1093 36.8343 94.2498 36.5952C94.3929 36.3637 94.4123 36.1012 94.3079 35.8079C94.1929 35.4845 93.9899 35.2659 93.699 35.1521C93.408 35.0383 93.0374 35.0646 92.5872 35.2309L89.6091 36.3308L88.8467 34.1872L91.9355 33.0464C92.7548 32.7438 93.0547 32.2842 92.8354 31.6674C92.7177 31.3365 92.5133 31.1141 92.2224 31.0004C91.9314 30.8866 91.5608 30.9128 91.1106 31.0791L88.1325 32.179L87.3701 30.0355L93.3706 27.8193L94.0969 29.8613L93.4658 30.0944C93.7896 30.2301 94.0654 30.4303 94.2932 30.6951C94.531 30.9646 94.7154 31.2837 94.8465 31.6522C94.999 32.0809 95.0579 32.4931 95.0233 32.8888C94.9887 33.2845 94.8501 33.6463 94.6077 33.9741C94.9959 34.103 95.3367 34.3218 95.6301 34.6303C95.9236 34.9389 96.1479 35.3113 96.303 35.7475Z" fill="#FF5557"/>
<path d="M98.1978 47.2642L91.8579 48.0146L91.612 45.8571L92.2788 45.7782C92.0021 45.5693 91.7784 45.3059 91.6078 44.9878C91.4381 44.6777 91.332 44.3359 91.2894 43.9624C91.1934 43.12 91.3586 42.42 91.785 41.8621C92.2123 41.3122 92.9095 40.98 93.8764 40.8656L97.4206 40.4461L97.6788 42.7108L94.4972 43.0874C93.5848 43.1954 93.1698 43.611 93.2523 44.3341C93.293 44.6917 93.4469 44.9674 93.714 45.1613C93.9889 45.3543 94.3798 45.4208 94.8867 45.3608L97.9396 44.9994L98.1978 47.2642Z" fill="#FF5557"/>
<path d="M39.4533 47.9235C40.3047 47.9235 40.995 47.1861 40.995 46.2764C40.995 45.3668 40.3047 44.6293 39.4533 44.6293C38.6018 44.6293 37.9115 45.3668 37.9115 46.2764C37.9115 47.1861 38.6018 47.9235 39.4533 47.9235Z" fill="#FF5557"/>
<path d="M46.0755 47.9235C46.927 47.9235 47.6173 47.1861 47.6173 46.2764C47.6173 45.3668 46.927 44.6293 46.0755 44.6293C45.224 44.6293 44.5337 45.3668 44.5337 46.2764C44.5337 47.1861 45.224 47.9235 46.0755 47.9235Z" fill="#FF5557"/>
<path d="M39.4533 54.997C40.3047 54.997 40.995 54.2596 40.995 53.3499C40.995 52.4403 40.3047 51.7029 39.4533 51.7029C38.6018 51.7029 37.9115 52.4403 37.9115 53.3499C37.9115 54.2596 38.6018 54.997 39.4533 54.997Z" fill="#FF5557"/>
<path d="M46.0755 54.997C46.927 54.997 47.6173 54.2596 47.6173 53.3499C47.6173 52.4403 46.927 51.7029 46.0755 51.7029C45.224 51.7029 44.5337 52.4403 44.5337 53.3499C44.5337 54.2596 45.224 54.997 46.0755 54.997Z" fill="#FF5557"/>
<path d="M39.4533 62.0716C40.3047 62.0716 40.995 61.3342 40.995 60.4245C40.995 59.5148 40.3047 58.7774 39.4533 58.7774C38.6018 58.7774 37.9115 59.5148 37.9115 60.4245C37.9115 61.3342 38.6018 62.0716 39.4533 62.0716Z" fill="#FF5557"/>
<path d="M46.0755 62.0716C46.927 62.0716 47.6173 61.3342 47.6173 60.4245C47.6173 59.5148 46.927 58.7774 46.0755 58.7774C45.224 58.7774 44.5337 59.5148 44.5337 60.4245C44.5337 61.3342 45.224 62.0716 46.0755 62.0716Z" fill="#FF5557"/>
<path d="M54.2395 46.2764C54.2395 47.1854 53.5486 47.9225 52.6977 47.9225C51.8468 47.9225 51.1569 47.1854 51.1569 46.2764C51.1569 45.3664 51.8468 44.6293 52.6977 44.6293C53.5486 44.6293 54.2395 45.3664 54.2395 46.2764Z" fill="#FF5557"/>
<path d="M60.8607 46.2764C60.8607 47.1854 60.1708 47.9225 59.3199 47.9225C58.4681 47.9225 57.7782 47.1854 57.7782 46.2764C57.7782 45.3664 58.4681 44.6293 59.3199 44.6293C60.1708 44.6293 60.8607 45.3664 60.8607 46.2764Z" fill="#FF5557"/>
<path d="M57.6699 51.7039H54.5308C52.6996 51.7039 51.2019 53.3039 51.2019 55.2591V58.6136C51.2019 60.5688 52.6996 62.1688 54.5308 62.1688H57.6699C59.501 62.1688 60.9987 60.5688 60.9987 58.6136V55.2591C60.9987 53.3039 59.501 51.7039 57.6699 51.7039ZM57.9324 58.6136C57.9324 58.76 57.8079 58.8931 57.6699 58.8931H54.5308C54.3937 58.8931 54.2682 58.76 54.2682 58.6136V55.2591C54.2682 55.1127 54.3937 54.9796 54.5308 54.9796H57.6699C57.8079 54.9796 57.9324 55.1127 57.9324 55.2591V58.6136Z" fill="#FF5557"/>
<path d="M66.0487 39.0606C66.0487 38.128 65.7038 37.2467 65.078 36.5792C64.4533 35.9108 63.6283 35.5433 62.7553 35.5433H60.9798V37.3111C60.9798 38.2161 60.2927 38.949 59.4466 38.949C58.5996 38.949 57.9135 38.2161 57.9135 37.3111V35.5433H50.9769V37.3111C50.9769 38.2161 50.2909 38.949 49.4438 38.949C48.5977 38.949 47.9107 38.2161 47.9107 37.3111V35.5433H40.9751V37.3111C40.9751 38.2161 40.289 38.949 39.4419 38.949C38.5949 38.949 37.9088 38.2161 37.9088 37.3111V35.5433H36.2223C35.3494 35.5433 34.5244 35.9108 33.8987 36.5792C33.2739 37.2467 32.929 38.128 32.929 39.0606V64.207C32.929 65.1385 33.2739 66.0199 33.8987 66.6883C34.5244 67.3568 35.3494 67.7243 36.2223 67.7243H62.7553C63.6283 67.7243 64.4533 67.3568 65.078 66.6883C65.6348 66.0936 65.9692 65.3309 66.0363 64.5141C66.0449 64.4127 66.0487 64.3103 66.0487 64.207V64.1701C66.1551 63.3727 66.7971 62.7595 67.5732 62.7595C68.405 62.7595 69.0824 63.4617 69.1131 64.341C69.1121 64.4281 69.1093 64.5151 69.1035 64.6011C68.9119 68.1562 66.1292 71 62.7553 71H36.2223C32.7249 71 29.8627 67.9433 29.8627 64.207V39.0606C29.8627 35.3242 32.7249 32.2675 36.2223 32.2675H37.9088V30.6379C37.9088 29.7329 38.5949 29 39.4419 29C40.289 29 40.9751 29.7329 40.9751 30.6379V32.2675H47.9107V30.6379C47.9107 29.7329 48.5977 29 49.4438 29C50.2909 29 50.9769 29.7329 50.9769 30.6379V32.2675H57.9135V30.6379C57.9135 29.7329 58.5996 29 59.4466 29C60.2927 29 60.9798 29.7329 60.9798 30.6379V32.2675H62.7553C66.2528 32.2675 69.115 35.3242 69.115 39.0606V56.3032C69.115 57.2133 68.4251 57.9503 67.5732 57.9503C66.7971 57.9503 66.1551 57.3371 66.0487 56.5387V39.0606Z" fill="#FF5557"/>
</g>
<defs>
<filter id="filter0_b_760_301" x="-8" y="-7.45032" width="115.977" height="115.107" filterUnits="userSpaceOnUse" color-interpolation-filters="sRGB">
<feFlood flood-opacity="0" result="BackgroundImageFix"/>
<feGaussianBlur in="BackgroundImage" stdDeviation="4"/>
<feComposite in2="SourceAlpha" operator="in" result="effect1_backgroundBlur_760_301"/>
<feBlend mode="normal" in="SourceGraphic" in2="effect1_backgroundBlur_760_301" result="shape"/>
</filter>
</defs>
</svg>
