<svg width="14" height="14" viewBox="0 0 14 14" fill="none" xmlns="http://www.w3.org/2000/svg">
<path d="M12.6391 9.16278L9.42666 5.82513L2.35919 13.168M2.19602 1.41943H11.3338C12.0547 1.41943 12.6391 2.00388 12.6391 2.72482V11.8626C12.6391 12.5835 12.0547 13.168 11.3338 13.168H2.19602C1.47507 13.168 0.890625 12.5835 0.890625 11.8626V2.72482C0.890625 2.00388 1.47507 1.41943 2.19602 1.41943ZM5.29632 5.09085C5.29632 5.49638 4.96757 5.82513 4.56204 5.82513C4.1565 5.82513 3.82776 5.49638 3.82776 5.09085C3.82776 4.68531 4.1565 4.35656 4.56204 4.35656C4.96757 4.35656 5.29632 4.68531 5.29632 5.09085Z" stroke="white" stroke-linecap="round" stroke-linejoin="round"/>
</svg>
