<svg width="15" height="19" viewBox="0 0 15 19" fill="none" xmlns="http://www.w3.org/2000/svg">
<path fill-rule="evenodd" clip-rule="evenodd" d="M12.7673 9.05115C13.1111 8.26522 13.2877 7.39161 13.2538 6.47645C13.1328 3.20919 10.3754 0.649545 7.09498 0.759326C3.81457 0.869107 1.25336 3.60674 1.37436 6.87401C1.40966 7.82729 1.6694 8.72031 2.10107 9.5044C3.49081 12.6464 7.7124 17.4314 7.7124 17.4314C7.7124 17.4314 11.981 11.3522 12.7673 9.05115ZM7.40867 9.2299C9.04888 9.17501 10.3295 7.80621 10.269 6.17258C10.2085 4.53895 8.82979 3.25912 7.18959 3.31401C5.54938 3.3689 4.26877 4.73772 4.32927 6.37136C4.38976 8.00499 5.76847 9.28479 7.40867 9.2299Z" stroke="white" stroke-width="1.5"/>
</svg>
