<svg width="16" height="15" viewBox="0 0 16 15" fill="none" xmlns="http://www.w3.org/2000/svg">
<path d="M14.4915 10.3368L14.5642 12.3005C14.5717 12.4828 14.5407 12.6645 14.4733 12.834C14.4059 13.0034 14.3035 13.157 14.1726 13.2848C14.0418 13.4125 13.8854 13.5117 13.7135 13.5759C13.5416 13.6402 13.358 13.668 13.1743 13.6578C11.1359 13.5068 9.16023 12.8838 7.40593 11.8388C5.77454 10.8871 4.37331 9.5915 3.30174 8.04385C2.12344 6.37353 1.35752 4.45255 1.06602 2.43653C1.04282 2.25607 1.05775 2.07292 1.10985 1.89872C1.16194 1.72452 1.25007 1.5631 1.3686 1.42474C1.48714 1.28637 1.6335 1.1741 1.79836 1.09505C1.96322 1.01601 2.14296 0.971936 2.32615 0.965634L4.30552 0.899393C4.62561 0.88555 4.9402 0.987653 5.19065 1.18667C5.4411 1.38568 5.61033 1.66803 5.6668 1.98109C5.77362 2.60672 5.9514 3.21857 6.19677 3.80497C6.29422 4.03629 6.32286 4.29026 6.2793 4.53681C6.23574 4.78336 6.12181 5.01214 5.95101 5.19605L5.14386 6.05539C6.1438 7.6627 7.56173 8.97378 9.24805 9.85032L10.0552 8.99097C10.2281 8.80898 10.4501 8.68012 10.6949 8.61966C10.9397 8.55919 11.197 8.56966 11.4364 8.64983C12.0433 8.8514 12.6709 8.9843 13.3074 9.04598C13.6296 9.08011 13.9282 9.23047 14.1465 9.46847C14.3649 9.70646 14.4876 10.0155 14.4915 10.3368Z" stroke="white" stroke-width="1.5" stroke-linecap="round" stroke-linejoin="round"/>
</svg>
