<svg width="116" height="19" viewBox="0 0 116 19" fill="none" xmlns="http://www.w3.org/2000/svg">
<path d="M106.5 1L109.127 6.59516L115 7.4979L110.75 11.8507L111.753 18L106.5 15.0952L101.247 18L102.25 11.8507L98 7.4979L103.874 6.59516L106.5 1Z" stroke="#FF9E00" stroke-width="1.5" stroke-linecap="round" stroke-linejoin="round"/>
<path d="M82.5 1L85.1265 6.59516L91 7.4979L86.75 11.8507L87.753 18L82.5 15.0952L77.247 18L78.25 11.8507L74 7.4979L79.8735 6.59516L82.5 1Z" stroke="#FF9E00" stroke-width="1.5" stroke-linecap="round" stroke-linejoin="round"/>
<path d="M58 1L60.472 6.59516L66 7.4979L62 11.8507L62.944 18L58 15.0952L53.056 18L54 11.8507L50 7.4979L55.528 6.59516L58 1Z" stroke="#FF9E00" stroke-width="1.5" stroke-linecap="round" stroke-linejoin="round"/>
<path d="M33.5 1L36.1265 6.59516L42 7.4979L37.75 11.8507L38.753 18L33.5 15.0952L28.247 18L29.25 11.8507L25 7.4979L30.8735 6.59516L33.5 1Z" stroke="#FF9E00" stroke-width="1.5" stroke-linecap="round" stroke-linejoin="round"/>
<path d="M9.5 1L12.1265 6.59516L18 7.4979L13.75 11.8507L14.753 18L9.5 15.0952L4.247 18L5.25 11.8507L1 7.4979L6.8735 6.59516L9.5 1Z" stroke="#FF9E00" stroke-width="1.5" stroke-linecap="round" stroke-linejoin="round"/>
</svg>
