<svg width="12" height="15" viewBox="0 0 12 15" fill="none" xmlns="http://www.w3.org/2000/svg">
<path d="M5.49084 9.6941V13.9572H3.73523C3.45418 13.9572 3.22607 14.1908 3.22607 14.4786C3.22607 14.7664 3.45418 15 3.73523 15H8.26477C8.54583 15 8.77393 14.7664 8.77393 14.4786C8.77393 14.1908 8.54583 13.9572 8.26477 13.9572H6.50917V9.6941C9.58045 9.42714 12 6.78671 12 3.57481C12 2.38598 11.666 1.23053 11.0387 0.237764C11.0306 0.221079 11.0143 0.212736 11.002 0.200222C10.9817 0.171023 10.9572 0.145996 10.9287 0.125139C10.9043 0.104283 10.8758 0.0875973 10.8473 0.0709121C10.8187 0.0542269 10.7902 0.041713 10.7617 0.0333704C10.7291 0.0208565 10.6925 0.0166852 10.6599 0.0125139C10.6436 0.0083426 10.6273 0 10.611 0H1.33198C1.07536 0 0.87169 0.200222 0.835031 0.450501C0.289206 1.39739 0 2.46941 0 3.57481C0 6.78671 2.41955 9.42714 5.49084 9.6941ZM1.67821 1.04283H10.3218C10.7536 1.81034 10.9817 2.68215 10.9817 3.57481C10.9817 6.38626 8.74542 8.67631 6 8.67631C3.25458 8.67631 1.01833 6.38626 1.01833 3.57481C1.01833 2.68215 1.24644 1.81034 1.67821 1.04283Z" fill="white"/>
<path d="M6 7.9505C8.35438 7.9505 10.2688 5.98999 10.2688 3.57898C10.2688 3.20356 10.224 2.83231 10.1303 2.47358C10.0815 2.29004 9.92261 2.16073 9.73523 2.16073H2.26069C2.07332 2.16073 1.91446 2.29004 1.86558 2.47358C1.77597 2.82814 1.73116 3.19939 1.73116 3.57481C1.73116 5.98582 3.64562 7.9505 6 7.9505ZM5.97149 7.05367C4.1833 7.05367 2.72912 5.56452 2.72912 3.73331C2.72912 3.50389 2.91242 3.31618 3.13646 3.31618C3.36049 3.31618 3.54379 3.50389 3.54379 3.73331C3.54379 5.1015 4.63136 6.21941 5.97149 6.21941C6.19552 6.21941 6.37882 6.40712 6.37882 6.63654C6.37882 6.86596 6.19552 7.05367 5.97149 7.05367Z" fill="white"/>
</svg>
