<svg width="22" height="18" viewBox="0 0 22 18" fill="none" xmlns="http://www.w3.org/2000/svg">
<path d="M21 15.2222C21 15.6937 20.8084 16.1459 20.4675 16.4793C20.1265 16.8127 19.664 17 19.1818 17H2.81818C2.33597 17 1.87351 16.8127 1.53253 16.4793C1.19156 16.1459 1 15.6937 1 15.2222V5.44444C1 4.97295 1.19156 4.52076 1.53253 4.18737C1.87351 3.85397 2.33597 3.66667 2.81818 3.66667H6.45455L8.27273 1H13.7273L15.5455 3.66667H19.1818C19.664 3.66667 20.1265 3.85397 20.4675 4.18737C20.8084 4.52076 21 4.97295 21 5.44444V15.2222Z" stroke="white" stroke-width="1.5" stroke-linecap="round" stroke-linejoin="round"/>
<path d="M11.0009 13.4444C13.0093 13.4444 14.6373 11.8526 14.6373 9.88889C14.6373 7.92521 13.0093 6.33333 11.0009 6.33333C8.99264 6.33333 7.36458 7.92521 7.36458 9.88889C7.36458 11.8526 8.99264 13.4444 11.0009 13.4444Z" stroke="white" stroke-width="1.5" stroke-linecap="round" stroke-linejoin="round"/>
</svg>
