<svg width="14" height="14" viewBox="0 0 14 14" fill="none" xmlns="http://www.w3.org/2000/svg">
<path d="M12.9494 9.33717L9.68199 5.94245L2.49368 13.4108M2.32771 1.46143H11.6217C12.355 1.46143 12.9494 2.05586 12.9494 2.78914V12.0831C12.9494 12.8164 12.355 13.4108 11.6217 13.4108H2.32771C1.59444 13.4108 1 12.8164 1 12.0831V2.78914C1 2.05586 1.59444 1.46143 2.32771 1.46143ZM5.48103 5.19561C5.48103 5.60808 5.14666 5.94245 4.73419 5.94245C4.32172 5.94245 3.98735 5.60808 3.98735 5.19561C3.98735 4.78315 4.32172 4.44878 4.73419 4.44878C5.14666 4.44878 5.48103 4.78315 5.48103 5.19561Z" stroke="white" stroke-linecap="round" stroke-linejoin="round"/>
</svg>
