<svg width="316" height="316" viewBox="0 0 316 316" fill="none" xmlns="http://www.w3.org/2000/svg">
<g style="mix-blend-mode:screen" opacity="0.8">
<path d="M153.165 18.3206C154.476 13.3549 161.524 13.3549 162.835 18.3206L174.901 64.0467C175.93 67.9475 180.918 69.0859 183.538 66.018L214.249 30.0556C217.584 26.1502 223.934 29.2084 222.96 34.2508L213.992 80.6841C213.227 84.6452 217.227 87.8348 220.918 86.2075L264.191 67.1316C268.891 65.06 273.285 70.5706 270.22 74.6911L241.993 112.635C239.585 115.872 241.805 120.481 245.837 120.616L293.102 122.205C298.234 122.378 299.803 129.249 295.253 131.632L253.358 153.571C249.785 155.442 249.785 160.558 253.358 162.429L295.253 184.368C299.803 186.751 298.234 193.622 293.102 193.795L245.837 195.384C241.805 195.519 239.585 200.128 241.993 203.365L270.22 241.309C273.285 245.429 268.891 250.94 264.191 248.868L220.918 229.793C217.227 228.165 213.227 231.355 213.992 235.316L222.96 281.749C223.934 286.792 217.584 289.85 214.249 285.944L183.538 249.982C180.918 246.914 175.93 248.052 174.901 251.953L162.835 297.679C161.524 302.645 154.476 302.645 153.165 297.679L141.099 251.953C140.07 248.052 135.082 246.914 132.462 249.982L101.751 285.944C98.416 289.85 92.0657 286.792 93.0396 281.749L102.008 235.316C102.773 231.355 98.7735 228.165 95.0819 229.793L51.8085 248.868C47.1092 250.94 42.7147 245.429 45.78 241.309L74.0068 203.365C76.4148 200.128 74.1952 195.519 70.1631 195.384L22.8984 193.795C17.7657 193.622 16.1973 186.751 20.7469 184.368L62.6415 162.429C66.2155 160.558 66.2155 155.442 62.6415 153.571L20.7469 131.632C16.1973 129.249 17.7657 122.378 22.8984 122.205L70.1631 120.616C74.1952 120.481 76.4148 115.872 74.0069 112.635L45.78 74.6911C42.7147 70.5706 47.1092 65.06 51.8085 67.1316L95.0819 86.2075C98.7735 87.8348 102.773 84.6452 102.008 80.6841L93.0396 34.2508C92.0657 29.2084 98.416 26.1502 101.751 30.0556L132.462 66.018C135.082 69.0859 140.07 67.9475 141.099 64.0467L153.165 18.3206Z" stroke="#FFF5BE" stroke-width="2.5"/>
</g>
<g style="mix-blend-mode:screen" opacity="0.8">
<path d="M155.092 79.4594C155.858 76.4432 160.142 76.4432 160.908 79.4594L167.372 104.935C167.974 107.306 171.009 107.999 172.58 106.124L189.458 85.9757C191.456 83.5903 195.316 85.4495 194.697 88.499L189.468 114.257C188.981 116.654 191.415 118.595 193.644 117.587L217.593 106.757C220.428 105.475 223.099 108.825 221.219 111.304L205.331 132.242C203.853 134.191 205.203 136.996 207.649 137.055L233.924 137.688C237.035 137.763 237.989 141.941 235.218 143.358L211.82 155.329C209.642 156.444 209.642 159.556 211.82 160.671L235.218 172.642C237.989 174.059 237.035 178.237 233.924 178.312L207.649 178.945C205.203 179.004 203.853 181.809 205.331 183.758L221.219 204.696C223.099 207.175 220.428 210.525 217.593 209.243L193.644 198.413C191.415 197.405 188.981 199.346 189.468 201.743L194.697 227.501C195.316 230.551 191.456 232.41 189.458 230.024L172.58 209.876C171.009 208.001 167.974 208.694 167.372 211.065L160.908 236.541C160.142 239.557 155.858 239.557 155.092 236.541L148.628 211.065C148.026 208.694 144.991 208.001 143.42 209.876L126.542 230.024C124.544 232.41 120.684 230.551 121.303 227.501L126.532 201.743C127.019 199.346 124.585 197.405 122.356 198.413L98.4075 209.243C95.5722 210.525 92.9005 207.175 94.7815 204.696L110.669 183.758C112.147 181.809 110.797 179.004 108.351 178.945L82.0756 178.312C78.9648 178.237 78.0113 174.059 80.7815 172.642L104.18 160.671C106.358 159.556 106.358 156.444 104.18 155.329L80.7815 143.358C78.0113 141.941 78.9648 137.763 82.0756 137.688L108.351 137.055C110.797 136.996 112.147 134.191 110.669 132.242L94.7815 111.304C92.9005 108.825 95.5722 105.475 98.4075 106.757L122.356 117.587C124.585 118.595 127.019 116.654 126.532 114.257L121.303 88.499C120.684 85.4495 124.544 83.5903 126.542 85.9757L143.42 106.124C144.991 107.999 148.026 107.306 148.628 104.935L155.092 79.4594Z" stroke="#FFF5BE" stroke-width="2.5"/>
</g>
</svg>
