<svg width="161" height="124" viewBox="0 0 161 124" fill="none" xmlns="http://www.w3.org/2000/svg">
<path d="M95.9169 70.4292C97.9763 70.4292 99.6458 65.8289 99.6458 60.1542C99.6458 55.6375 98.5882 51.8015 97.1181 50.4239C96.9492 56.5402 95.638 62.371 93.3901 67.7106C94.0545 69.3984 94.942 70.4292 95.9169 70.4292Z" fill="white"/>
<path d="M95.9169 49.8792C93.8575 49.8792 92.188 54.4794 92.188 60.1542C92.188 63.1426 92.651 65.8331 93.3901 67.7106C95.638 62.371 96.9492 56.5402 97.1181 50.4239C96.7412 50.0707 96.3372 49.8792 95.9169 49.8792Z" fill="white"/>
<path d="M125.565 70.4292C127.625 70.4292 129.294 65.8289 129.294 60.1542C129.294 54.4794 127.625 49.8792 125.565 49.8792C123.506 49.8792 121.836 54.4794 121.836 60.1542C121.836 65.8289 123.506 70.4292 125.565 70.4292Z" fill="white"/>
<path d="M63.5453 45.4165C65.6047 45.4165 67.2742 40.8162 67.2742 35.1415C67.2742 29.4667 65.6047 24.8665 63.5453 24.8665C61.4859 24.8665 59.8164 29.4667 59.8164 35.1415C59.8164 40.8162 61.4859 45.4165 63.5453 45.4165Z" fill="white"/>
<path d="M33.8969 45.4165C35.9563 45.4165 37.6258 40.8162 37.6258 35.1415C37.6258 29.4667 35.9563 24.8665 33.8969 24.8665C31.8375 24.8665 30.168 29.4667 30.168 35.1415C30.168 40.8162 31.8375 45.4165 33.8969 45.4165Z" fill="white"/>
<path d="M76.7305 74.3298C76.7305 74.3298 78.2456 105.326 111.091 105.326C143.934 105.326 145.449 74.3298 145.449 74.3298M150.32 72.0476C150.32 72.0476 145.778 77.2496 140.579 72.0476M81.7567 72.0476C81.7567 72.0476 77.2168 77.2496 72.0151 72.0476M21.3423 75.2684C21.3423 75.2684 22.5662 50.2407 49.0925 50.2407C75.604 50.2407 76.8282 75.2684 76.8282 75.2684M80.7597 77.1153C80.7597 77.1153 77.0935 72.9161 72.8945 77.1153M25.4013 77.1153C25.4013 77.1153 21.7351 72.9161 17.5361 77.1153M97.1181 50.4239C98.5882 51.8015 99.6458 55.6375 99.6458 60.1542C99.6458 65.8289 97.9763 70.4292 95.9169 70.4292C94.942 70.4292 94.0545 69.3984 93.3901 67.7106M97.1181 50.4239C96.9492 56.5402 95.638 62.371 93.3901 67.7106M97.1181 50.4239C97.1305 49.9748 97.1368 49.524 97.1368 49.0718C97.1368 22.5225 75.6158 1 49.0684 1C22.5209 1 1 22.5225 1 49.0718C1 75.6212 22.5209 97.1437 49.0684 97.1437C69.007 97.1437 86.1103 85.0031 93.3901 67.7106M97.1181 50.4239C96.7412 50.0707 96.3372 49.8792 95.9169 49.8792C93.8575 49.8792 92.188 54.4794 92.188 60.1542C92.188 63.1426 92.651 65.8331 93.3901 67.7106M159.157 74.0845C159.157 100.634 137.636 122.156 111.088 122.156C84.541 122.156 63.02 100.634 63.02 74.0845C63.02 47.5352 84.541 26.0127 111.088 26.0127C137.636 26.0127 159.157 47.5352 159.157 74.0845ZM125.565 70.4292C127.625 70.4292 129.294 65.8289 129.294 60.1542C129.294 54.4794 127.625 49.8792 125.565 49.8792C123.506 49.8792 121.836 54.4794 121.836 60.1542C121.836 65.8289 123.506 70.4292 125.565 70.4292ZM33.8969 45.4165C35.9563 45.4165 37.6258 40.8162 37.6258 35.1415C37.6258 29.4667 35.9563 24.8665 33.8969 24.8665C31.8375 24.8665 30.168 29.4667 30.168 35.1415C30.168 40.8162 31.8375 45.4165 33.8969 45.4165ZM63.5453 45.4165C65.6047 45.4165 67.2742 40.8162 67.2742 35.1415C67.2742 29.4667 65.6047 24.8665 63.5453 24.8665C61.4859 24.8665 59.8164 29.4667 59.8164 35.1415C59.8164 40.8162 61.4859 45.4165 63.5453 45.4165Z" stroke="white" stroke-width="2" stroke-miterlimit="10"/>
</svg>
