<svg width="187" height="187" viewBox="0 0 187 187" fill="none" xmlns="http://www.w3.org/2000/svg">
<g opacity="0.5">
<path d="M66.1925 80.7749C70.0449 81.6149 75.0444 73.6903 77.3591 63.0747C79.6739 52.4591 78.4272 43.1725 74.5748 42.3325C70.7223 41.4925 65.7228 49.4171 63.4081 60.0327C61.0933 70.6483 62.34 79.9349 66.1925 80.7749Z" fill="white"/>
<path d="M121.655 92.8682C125.508 93.7083 130.507 85.7836 132.822 75.1681C135.137 64.5525 133.89 55.2659 130.037 54.4258C126.185 53.5858 121.185 61.5105 118.871 72.126C116.556 82.7416 117.803 92.0282 121.655 92.8682Z" fill="white"/>
<path d="M28.7106 80.2455C28.7106 80.2455 18.9016 138.848 80.3436 152.245C141.782 165.642 157.259 108.275 157.259 108.275M167.303 105.993C167.303 105.993 156.685 113.872 149.08 102.02M39.0435 78.0264C39.0435 78.0264 28.4289 85.9059 20.8202 74.0528M183.003 113.408C172.174 163.073 123.136 194.556 73.4745 183.728C23.813 172.899 -7.66664 123.859 3.16275 74.1941C13.9921 24.529 63.0297 -6.95415 112.691 3.87446C162.353 14.7031 193.832 63.7429 183.003 113.408ZM66.1925 80.7749C70.0449 81.6149 75.0444 73.6903 77.3591 63.0747C79.6739 52.4591 78.4272 43.1725 74.5748 42.3325C70.7223 41.4925 65.7228 49.4171 63.4081 60.0327C61.0933 70.6483 62.34 79.9349 66.1925 80.7749ZM121.655 92.8682C125.508 93.7083 130.507 85.7836 132.822 75.1681C135.137 64.5525 133.89 55.2659 130.037 54.4258C126.185 53.5858 121.185 61.5105 118.871 72.126C116.556 82.7416 117.803 92.0282 121.655 92.8682Z" stroke="white" stroke-width="2" stroke-miterlimit="10"/>
</g>
</svg>
