<svg width="70" height="71" viewBox="0 0 70 71" fill="none" xmlns="http://www.w3.org/2000/svg">
<mask id="path-1-inside-1_1240_151" fill="white">
<path d="M33.6619 1.64434C34.2171 0.547588 35.7834 0.547591 36.3385 1.64434L39.6979 8.2809C40.1302 9.13494 41.241 9.37104 41.9833 8.76667L47.7515 4.07024C48.7048 3.29411 50.1356 3.93119 50.1967 5.15892L50.5663 12.5881C50.6138 13.5441 51.5326 14.2116 52.4565 13.9614L59.6363 12.0172C60.8228 11.6959 61.8708 12.8598 61.4273 14.0063L58.7432 20.9435C58.3978 21.8362 58.9656 22.8197 59.9114 22.9669L67.2612 24.111C68.4759 24.3001 68.9599 25.7897 68.0884 26.6566L62.8147 31.9024C62.1361 32.5774 62.2548 33.7068 63.0589 34.226L69.308 38.2606C70.3407 38.9274 70.177 40.4851 69.0282 40.9226L62.0769 43.5698C61.1823 43.9105 60.8314 44.9905 61.3549 45.7919L65.4226 52.0195C66.0949 53.0486 65.3117 54.4051 64.0843 54.3375L56.6572 53.9285C55.7015 53.8758 54.9416 54.7198 55.0938 55.6648L56.2769 63.0084C56.4725 64.222 55.2053 65.1427 54.1115 64.5817L47.4929 61.1872C46.6412 60.7504 45.6037 61.2123 45.3584 62.1375L43.4523 69.3275C43.1373 70.5157 41.6052 70.8414 40.8342 69.884L36.1684 64.0909C35.568 63.3454 34.4324 63.3454 33.832 64.0909L29.1663 69.884C28.3952 70.8414 26.8631 70.5157 26.5481 69.3275L24.642 62.1375C24.3967 61.2123 23.3593 60.7504 22.5076 61.1872L15.8889 64.5817C14.7951 65.1427 13.528 64.2221 13.7235 63.0084L14.9066 55.6648C15.0589 54.7198 14.299 53.8758 13.3432 53.9285L5.91614 54.3375C4.68874 54.4051 3.90559 53.0486 4.57783 52.0195L8.64559 45.7919C9.16905 44.9905 8.81812 43.9105 7.92358 43.5698L0.972233 40.9226C-0.176541 40.4851 -0.340261 38.9274 0.692453 38.2606L6.94151 34.226C7.74568 33.7068 7.86438 32.5774 7.18573 31.9024L1.91208 26.6566C1.04056 25.7897 1.52458 24.3001 2.73921 24.111L10.089 22.9669C11.0349 22.8197 11.6027 21.8362 11.2573 20.9435L8.57317 14.0063C8.1296 12.8598 9.17766 11.6959 10.3642 12.0172L17.5439 13.9614C18.4679 14.2116 19.3866 13.5441 19.4342 12.5881L19.8037 5.15892C19.8648 3.93118 21.2957 3.29411 22.249 4.07024L28.0172 8.76668C28.7595 9.37104 29.8703 9.13493 30.3026 8.2809L33.6619 1.64434Z"/>
</mask>
<path d="M33.7502 49.0004C33.7502 49.6908 34.3099 50.2504 35.0002 50.2504C35.6906 50.2504 36.2502 49.6908 36.2502 49.0004H33.7502ZM35.8841 22.1165C35.396 21.6284 34.6045 21.6284 34.1163 22.1165L26.1614 30.0715C25.6732 30.5597 25.6732 31.3511 26.1614 31.8393C26.6495 32.3274 27.441 32.3274 27.9292 31.8393L35.0002 24.7682L42.0713 31.8393C42.5594 32.3274 43.3509 32.3274 43.8391 31.8393C44.3272 31.3511 44.3272 30.5597 43.8391 30.0715L35.8841 22.1165ZM36.2502 49.0004V23.0004H33.7502V49.0004H36.2502ZM28.0172 8.76668L26.4387 10.7054L28.0172 8.76668ZM30.3026 8.2809L28.0721 7.15184L30.3026 8.2809ZM19.8037 5.15892L17.3068 5.03471L19.8037 5.15892ZM22.249 4.07024L20.6705 6.00892L22.249 4.07024ZM17.5439 13.9614L16.8905 16.3745L17.5439 13.9614ZM19.4342 12.5881L21.9311 12.7123L19.4342 12.5881ZM8.57317 14.0063L6.24161 14.9084L8.57317 14.0063ZM10.3642 12.0172L11.0176 9.60407L10.3642 12.0172ZM10.089 22.9669L10.4736 25.4371L10.089 22.9669ZM11.2573 20.9435L13.5888 20.0414L11.2573 20.9435ZM1.91208 26.6566L3.67515 24.8842L1.91208 26.6566ZM2.73921 24.111L2.35468 21.6408L2.73921 24.111ZM6.94151 34.226L5.58548 32.1257L6.94151 34.226ZM7.18573 31.9024L5.42267 33.6748L7.18573 31.9024ZM0.972233 40.9226L1.86195 38.5863L0.972233 40.9226ZM0.692453 38.2606L2.04848 40.3609H2.04848L0.692453 38.2606ZM8.64559 45.7919L6.55253 44.4248L8.64559 45.7919ZM7.92358 43.5698L7.03386 45.9061L7.92358 43.5698ZM5.91614 54.3375L5.77867 51.8413H5.77867L5.91614 54.3375ZM4.57783 52.0195L6.67088 53.3866L4.57783 52.0195ZM14.9066 55.6648L12.4384 55.2672L14.9066 55.6648ZM13.3432 53.9285L13.4807 56.4247H13.4807L13.3432 53.9285ZM15.8889 64.5817L17.0298 66.8062L15.8889 64.5817ZM13.7235 63.0084L16.1917 63.4061L13.7235 63.0084ZM24.642 62.1375L27.0585 61.4969L24.642 62.1375ZM22.5076 61.1872L21.3667 58.9627L22.5076 61.1872ZM29.1663 69.884L31.1133 71.4521L29.1663 69.884ZM26.5481 69.3275L24.1316 69.9681L26.5481 69.3275ZM36.1684 64.0909L34.2214 65.6591L36.1684 64.0909ZM33.832 64.0909L31.885 62.5228L33.832 64.0909ZM43.4523 69.3275L45.8688 69.9681L43.4523 69.3275ZM40.8342 69.884L38.8872 71.4521L40.8342 69.884ZM47.4929 61.1872L48.6338 58.9627L47.4929 61.1872ZM45.3584 62.1375L42.9419 61.4969L45.3584 62.1375ZM56.2769 63.0084L53.8088 63.4061L56.2769 63.0084ZM54.1115 64.5817L52.9706 66.8062L54.1115 64.5817ZM56.6572 53.9285L56.5198 56.4247L56.6572 53.9285ZM55.0938 55.6648L57.562 55.2672L55.0938 55.6648ZM65.4226 52.0195L63.3296 53.3866L65.4226 52.0195ZM64.0843 54.3375L64.2218 51.8413L64.0843 54.3375ZM62.0769 43.5698L62.9666 45.9061L62.0769 43.5698ZM61.3549 45.7919L63.4479 44.4248L61.3549 45.7919ZM69.308 38.2606L70.664 36.1604L69.308 38.2606ZM69.0282 40.9226L68.1385 38.5863L69.0282 40.9226ZM62.8147 31.9024L64.5778 33.6748L62.8147 31.9024ZM63.0589 34.226L61.7029 36.3263L63.0589 34.226ZM67.2612 24.111L66.8767 26.5813L67.2612 24.111ZM68.0884 26.6566L66.3253 24.8842V24.8842L68.0884 26.6566ZM58.7432 20.9435L61.0748 21.8456L58.7432 20.9435ZM59.9114 22.9669L60.2959 20.4966H60.2959L59.9114 22.9669ZM59.6363 12.0172L60.2897 14.4303L59.6363 12.0172ZM61.4273 14.0063L59.0957 13.1042V13.1042L61.4273 14.0063ZM50.5663 12.5881L53.0632 12.4639V12.4639L50.5663 12.5881ZM52.4565 13.9614L51.8031 11.5483L52.4565 13.9614ZM47.7515 4.07024L49.33 6.00892V6.00892L47.7515 4.07024ZM50.1967 5.15892L47.6998 5.28314V5.28314L50.1967 5.15892ZM39.6979 8.2809L37.4674 9.40996L39.6979 8.2809ZM41.9833 8.76667L40.4048 6.82799L41.9833 8.76667ZM36.3385 1.64434L38.5691 0.515283V0.515283L36.3385 1.64434ZM33.6619 1.64434L31.4314 0.515281L33.6619 1.64434ZM34.108 2.7734L37.4674 9.40996L41.9284 7.15184L38.5691 0.515283L34.108 2.7734ZM43.5617 10.7054L49.33 6.00892L46.173 2.13156L40.4048 6.82799L43.5617 10.7054ZM47.6998 5.28314L48.0694 12.7123L53.0632 12.4639L52.6936 5.03471L47.6998 5.28314ZM53.11 16.3745L60.2897 14.4303L58.9828 9.60407L51.8031 11.5483L53.11 16.3745ZM59.0957 13.1042L56.4116 20.0414L61.0748 21.8456L63.7588 14.9084L59.0957 13.1042ZM59.5269 25.4371L66.8767 26.5813L67.6458 21.6408L60.2959 20.4966L59.5269 25.4371ZM66.3253 24.8842L61.0517 30.1299L64.5778 33.6748L69.8514 28.4291L66.3253 24.8842ZM61.7029 36.3263L67.952 40.3609L70.664 36.1604L64.415 32.1257L61.7029 36.3263ZM68.1385 38.5863L61.1871 41.2335L62.9666 45.9061L69.9179 43.2589L68.1385 38.5863ZM59.2618 47.1591L63.3296 53.3866L67.5157 50.6523L63.4479 44.4248L59.2618 47.1591ZM64.2218 51.8413L56.7947 51.4323L56.5198 56.4247L63.9468 56.8337L64.2218 51.8413ZM52.6257 56.0624L53.8088 63.4061L58.7451 62.6108L57.562 55.2672L52.6257 56.0624ZM55.2524 62.3572L48.6338 58.9627L46.352 63.4117L52.9706 66.8062L55.2524 62.3572ZM42.9419 61.4969L41.0358 68.6869L45.8688 69.9681L47.775 62.7782L42.9419 61.4969ZM42.7812 68.3159L38.1155 62.5228L34.2214 65.6591L38.8872 71.4521L42.7812 68.3159ZM31.885 62.5228L27.2192 68.3159L31.1133 71.4521L35.779 65.659L31.885 62.5228ZM28.9646 68.6869L27.0585 61.4969L22.2255 62.7782L24.1316 69.9681L28.9646 68.6869ZM21.3667 58.9627L14.7481 62.3572L17.0298 66.8062L23.6485 63.4117L21.3667 58.9627ZM16.1917 63.4061L17.3748 56.0624L12.4384 55.2672L11.2553 62.6108L16.1917 63.4061ZM13.2058 51.4323L5.77867 51.8413L6.0536 56.8337L13.4807 56.4247L13.2058 51.4323ZM6.67088 53.3866L10.7386 47.1591L6.55253 44.4248L2.48477 50.6523L6.67088 53.3866ZM8.81331 41.2335L1.86195 38.5863L0.0825116 43.2589L7.03386 45.9061L8.81331 41.2335ZM2.04848 40.3609L8.29754 36.3263L5.58548 32.1257L-0.663575 36.1604L2.04848 40.3609ZM8.9488 30.1299L3.67515 24.8842L0.149013 28.4291L5.42267 33.6748L8.9488 30.1299ZM3.12374 26.5813L10.4736 25.4371L9.70451 20.4966L2.35468 21.6408L3.12374 26.5813ZM13.5888 20.0414L10.9047 13.1042L6.24161 14.9084L8.9257 21.8456L13.5888 20.0414ZM9.71073 14.4303L16.8905 16.3745L18.1974 11.5483L11.0176 9.60407L9.71073 14.4303ZM21.9311 12.7123L22.3006 5.28313L17.3068 5.03471L16.9372 12.4639L21.9311 12.7123ZM20.6705 6.00892L26.4387 10.7054L29.5956 6.82799L23.8274 2.13156L20.6705 6.00892ZM32.5331 9.40996L35.8924 2.7734L31.4314 0.515281L28.0721 7.15184L32.5331 9.40996ZM26.4387 10.7054C28.4182 12.317 31.3803 11.6874 32.5331 9.40996L28.0721 7.15184C28.3603 6.58249 29.1008 6.42508 29.5956 6.82799L26.4387 10.7054ZM22.3006 5.28313C22.2599 6.10163 21.306 6.52634 20.6705 6.00892L23.8274 2.13156C21.2854 0.0618892 17.4697 1.76073 17.3068 5.03471L22.3006 5.28313ZM16.8905 16.3745C19.3543 17.0417 21.8042 15.2617 21.9311 12.7123L16.9372 12.4639C16.969 11.8265 17.5814 11.3815 18.1974 11.5483L16.8905 16.3745ZM10.9047 13.1042C11.2005 13.8685 10.5017 14.6445 9.71073 14.4303L11.0176 9.60407C7.85359 8.74726 5.05875 11.8512 6.24161 14.9084L10.9047 13.1042ZM10.4736 25.4371C12.9958 25.0445 14.5099 22.4219 13.5888 20.0414L8.9257 21.8456C8.69543 21.2504 9.07396 20.5948 9.70451 20.4966L10.4736 25.4371ZM3.67515 24.8842C4.25617 25.4621 3.93348 26.4552 3.12374 26.5813L2.35468 21.6408C-0.884322 22.145 -2.17505 26.1173 0.149013 28.4291L3.67515 24.8842ZM8.29754 36.3263C10.442 34.9417 10.7585 31.93 8.9488 30.1299L5.42267 33.6748C4.97024 33.2248 5.04937 32.4718 5.58548 32.1257L8.29754 36.3263ZM1.86195 38.5863C2.62781 38.8779 2.73695 39.9164 2.04848 40.3609L-0.663575 36.1604C-3.41747 37.9384 -2.9809 42.0923 0.0825116 43.2589L1.86195 38.5863ZM10.7386 47.1591C12.1345 45.022 11.1987 42.1419 8.81331 41.2335L7.03386 45.9061C6.43751 45.679 6.20355 44.959 6.55253 44.4248L10.7386 47.1591ZM5.77867 51.8413C6.59694 51.7962 7.11903 52.7005 6.67088 53.3866L2.48477 50.6523C0.692148 53.3967 2.78054 57.014 6.0536 56.8337L5.77867 51.8413ZM17.3748 56.0624C17.7808 53.5424 15.7545 51.2919 13.2058 51.4323L13.4807 56.4247C12.8435 56.4598 12.3369 55.8972 12.4384 55.2672L17.3748 56.0624ZM14.7481 62.3572C15.4772 61.9832 16.322 62.597 16.1917 63.4061L11.2553 62.6108C10.7339 65.8471 14.113 68.3022 17.0298 66.8062L14.7481 62.3572ZM27.0585 61.4969C26.4044 59.0295 23.6379 57.7978 21.3667 58.9627L23.6485 63.4117C23.0806 63.7029 22.389 63.395 22.2255 62.7782L27.0585 61.4969ZM27.2192 68.3159C27.7333 67.6776 28.7547 67.8947 28.9646 68.6869L24.1316 69.9681C24.9716 73.1367 29.0571 74.0051 31.1133 71.4521L27.2192 68.3159ZM38.1155 62.5228C36.5144 60.5348 33.4861 60.5348 31.885 62.5228L35.779 65.6591C35.3788 66.156 34.6217 66.156 34.2214 65.6591L38.1155 62.5228ZM41.0358 68.6869C41.2458 67.8947 42.2672 67.6776 42.7812 68.3159L38.8872 71.4521C40.9433 74.0051 45.0288 73.1367 45.8688 69.9681L41.0358 68.6869ZM48.6338 58.9627C46.3625 57.7978 43.596 59.0296 42.9419 61.4969L47.775 62.7782C47.6114 63.395 46.9198 63.7029 46.352 63.4117L48.6338 58.9627ZM53.8088 63.4061C53.6784 62.597 54.5232 61.9832 55.2524 62.3572L52.9706 66.8062C55.8874 68.3022 59.2665 65.8471 58.7451 62.6108L53.8088 63.4061ZM56.7947 51.4323C54.246 51.2919 52.2197 53.5424 52.6257 56.0624L57.562 55.2672C57.6635 55.8972 57.1569 56.4598 56.5198 56.4247L56.7947 51.4323ZM63.3296 53.3866C62.8814 52.7005 63.4035 51.7962 64.2218 51.8413L63.9468 56.8337C67.2199 57.014 69.3083 53.3967 67.5157 50.6523L63.3296 53.3866ZM61.1871 41.2335C58.8017 42.1419 57.8659 45.022 59.2618 47.1591L63.4479 44.4248C63.7969 44.959 63.563 45.679 62.9666 45.9061L61.1871 41.2335ZM67.952 40.3609C67.2635 39.9164 67.3727 38.8779 68.1385 38.5863L69.9179 43.2589C72.9813 42.0923 73.4179 37.9384 70.664 36.1604L67.952 40.3609ZM61.0517 30.1299C59.2419 31.93 59.5585 34.9417 61.7029 36.3263L64.415 32.1257C64.9511 32.4719 65.0302 33.2248 64.5778 33.6748L61.0517 30.1299ZM66.8767 26.5813C66.067 26.4552 65.7443 25.4621 66.3253 24.8842L69.8514 28.4291C72.1755 26.1173 70.8848 22.145 67.6458 21.6408L66.8767 26.5813ZM56.4116 20.0414C55.4905 22.422 57.0047 25.0445 59.5269 25.4371L60.2959 20.4966C60.9265 20.5948 61.305 21.2504 61.0748 21.8456L56.4116 20.0414ZM60.2897 14.4303C59.4987 14.6445 58.8 13.8685 59.0957 13.1042L63.7588 14.9084C64.9417 11.8512 62.1469 8.74726 58.9828 9.60407L60.2897 14.4303ZM48.0694 12.7123C48.1962 15.2617 50.6461 17.0417 53.11 16.3745L51.8031 11.5483C52.419 11.3815 53.0315 11.8265 53.0632 12.4639L48.0694 12.7123ZM49.33 6.00892C48.6944 6.52635 47.7405 6.10161 47.6998 5.28314L52.6936 5.03471C52.5308 1.76076 48.7151 0.0618726 46.173 2.13156L49.33 6.00892ZM37.4674 9.40996C38.6202 11.6874 41.5823 12.317 43.5617 10.7054L40.4048 6.82799C40.8997 6.42508 41.6402 6.58249 41.9284 7.15184L37.4674 9.40996ZM38.5691 0.515283C37.0886 -2.40938 32.9118 -2.4094 31.4314 0.515281L35.8924 2.7734C35.5223 3.50458 34.4781 3.50456 34.108 2.7734L38.5691 0.515283Z" fill="white" mask="url(#path-1-inside-1_1240_151)"/>
</svg>
