<svg width="12" height="14" viewBox="0 0 12 14" fill="none" xmlns="http://www.w3.org/2000/svg">
<path d="M8.42016 0C7.9327 0 7.53844 0.386934 7.53844 0.865324L7.53485 13.2578C7.53485 13.5005 7.73557 13.6975 7.98288 13.6975C8.23019 13.6975 8.43091 13.5005 8.43091 13.2578V9.90198C9.19794 9.45877 11.499 7.96732 11.499 6.03265C11.499 3.99597 10.1047 0 8.42016 0ZM8.43091 8.8643L8.42016 0.879395C9.16926 0.879395 10.5994 3.96079 10.5994 6.03265C10.603 7.16531 9.35206 8.25224 8.43091 8.8643Z" fill="white"/>
<path d="M3.96318 3.21869V0.4398C3.96318 0.197087 3.76246 0.000102997 3.51515 0.000102997C3.26784 0.000102997 3.06712 0.197087 3.06712 0.4398V3.21517C3.06712 3.80261 2.57967 4.281 1.9811 4.281C1.38254 4.281 0.895081 3.80261 0.895081 3.21517V0.4398C0.895081 0.197087 0.694364 0.000102997 0.447052 0.000102997C0.19974 0.000102997 -0.000976562 0.197087 -0.000976562 0.4398V3.21517C-0.000976562 4.13678 0.654937 4.90713 1.53307 5.10763V13.2614C1.53307 13.5041 1.73379 13.7011 1.9811 13.7011C2.22841 13.7011 2.42913 13.5041 2.42913 13.2614V5.10763C3.30727 4.91064 3.96318 4.13678 3.96318 3.21869Z" fill="white"/>
<path d="M1.98103 3.65839C2.22834 3.65839 2.42905 3.4614 2.42905 3.21869V0.4398C2.42905 0.197087 2.22834 0.000102997 1.98103 0.000102997C1.73371 0.000102997 1.533 0.197087 1.533 0.4398V3.21517C1.533 3.4614 1.73371 3.65839 1.98103 3.65839Z" fill="white"/>
</svg>
