<svg width="12" height="15" viewBox="0 0 12 15" fill="none" xmlns="http://www.w3.org/2000/svg">
<path fill-rule="evenodd" clip-rule="evenodd" d="M5.99902 14C5.99902 14 10.999 10.4545 10.999 6.31818C10.999 4.90771 10.4722 3.55501 9.53456 2.55766C8.59688 1.56031 7.32511 1 5.99902 1C4.67294 1 3.40117 1.56031 2.46349 2.55766C1.52581 3.55501 0.999023 4.90771 0.999023 6.31818C0.999023 10.4545 5.99902 14 5.99902 14ZM7.99902 6.31818C7.99902 7.49304 7.10359 8.44545 5.99902 8.44545C4.89445 8.44545 3.99902 7.49304 3.99902 6.31818C3.99902 5.14332 4.89445 4.19091 5.99902 4.19091C7.10359 4.19091 7.99902 5.14332 7.99902 6.31818Z" stroke="#FF4747" stroke-linecap="round" stroke-linejoin="round"/>
</svg>
