<svg width="14" height="14" viewBox="0 0 14 14" fill="none" xmlns="http://www.w3.org/2000/svg">
<path d="M4.11566 0C1.85593 0 -0.000976562 1.85436 -0.000976562 4.11664V9.88336C-0.000976562 12.1431 1.85339 14 4.11566 14H9.88239C12.1421 14 13.999 12.1456 13.999 9.88336V4.11727C13.999 1.85691 12.1447 0 9.88239 0H4.11566ZM4.11566 1.27273H9.88239C10.256 1.27222 10.626 1.34544 10.9713 1.48818C11.3166 1.63093 11.6303 1.84039 11.8945 2.10457C12.1586 2.36875 12.3681 2.68246 12.5108 3.02772C12.6536 3.37299 12.7268 3.74303 12.7263 4.11664V9.88336C12.7268 10.257 12.6536 10.627 12.5108 10.9723C12.3681 11.3175 12.1586 11.6313 11.8945 11.8954C11.6303 12.1596 11.3166 12.3691 10.9713 12.5118C10.626 12.6546 10.256 12.7278 9.88239 12.7273H4.1163C3.74263 12.7279 3.37253 12.6547 3.02719 12.512C2.68185 12.3693 2.36806 12.1598 2.10382 11.8957C1.83957 11.6315 1.63005 11.3177 1.48727 10.9724C1.34449 10.6271 1.27125 10.257 1.27175 9.88336C1.27175 9.88336 1.27234 4.49093 1.27175 4.11727C1.27116 3.74361 1.34432 3.37351 1.48702 3.02817C1.62973 2.68283 1.83918 2.36904 2.10337 2.10479C2.36756 1.84054 2.68129 1.63103 3.0266 1.48824C3.37191 1.34546 3.742 1.27222 4.11566 1.27273ZM10.7574 2.66509C10.6816 2.66475 10.6065 2.67944 10.5364 2.70829C10.4663 2.73715 10.4026 2.7796 10.349 2.83321C10.2954 2.88681 10.2529 2.9505 10.224 3.0206C10.1952 3.09071 10.1805 3.16583 10.1808 3.24164C10.1808 3.56236 10.4367 3.81818 10.7574 3.81818C10.8332 3.8186 10.9084 3.80398 10.9786 3.77517C11.0488 3.74635 11.1126 3.70391 11.1662 3.65029C11.2199 3.59668 11.2624 3.53296 11.2913 3.46282C11.3202 3.39267 11.3349 3.3175 11.3346 3.24164C11.3349 3.16578 11.3202 3.0906 11.2913 3.02046C11.2624 2.95031 11.2199 2.88659 11.1662 2.83298C11.1126 2.77937 11.0488 2.73692 10.9786 2.70811C10.9084 2.67929 10.8332 2.66467 10.7574 2.66509ZM6.99902 3.18182C4.89902 3.18182 3.18084 4.9 3.18084 7C3.18084 9.1 4.89902 10.8182 6.99902 10.8182C9.09902 10.8182 10.8172 9.1 10.8172 7C10.8172 4.9 9.09902 3.18182 6.99902 3.18182ZM6.99902 4.45455C8.41366 4.45455 9.54448 5.58536 9.54448 7C9.54448 8.41464 8.41366 9.54545 6.99902 9.54545C5.58439 9.54545 4.45357 8.41464 4.45357 7C4.45357 5.58536 5.58439 4.45455 6.99902 4.45455Z" fill="white"/>
</svg>
