<svg width="15" height="15" viewBox="0 0 15 15" fill="none" xmlns="http://www.w3.org/2000/svg">
<path d="M13.999 7.5C13.999 11.0899 11.0889 14 7.49902 14M13.999 7.5C13.999 3.91015 11.0889 1 7.49902 1M13.999 7.5H0.999023M7.49902 14C3.90917 14 0.999023 11.0899 0.999023 7.5M7.49902 14C9.12486 12.2201 10.0488 9.91018 10.099 7.5C10.0488 5.08982 9.12486 2.77993 7.49902 1M7.49902 14C5.87319 12.2201 4.94923 9.91018 4.89902 7.5C4.94923 5.08982 5.87319 2.77993 7.49902 1M0.999023 7.5C0.999023 3.91015 3.90917 1 7.49902 1" stroke="white" stroke-linecap="round" stroke-linejoin="round"/>
</svg>
