<svg width="12" height="12" viewBox="0 0 12 12" fill="none" xmlns="http://www.w3.org/2000/svg">
<path d="M10.9987 8.48692V9.99232C10.9993 10.1321 10.9706 10.2704 10.9145 10.3985C10.8584 10.5265 10.7761 10.6414 10.6729 10.7359C10.5698 10.8304 10.4479 10.9023 10.3153 10.9471C10.1826 10.9919 10.0421 11.0085 9.90262 10.9959C8.35542 10.8281 6.86924 10.3005 5.56348 9.4554C4.34863 8.68496 3.31865 7.65703 2.54669 6.44459C1.69695 5.13549 1.16814 3.64504 1.0031 2.09397C0.99054 1.95521 1.00706 1.81536 1.05162 1.68331C1.09619 1.55127 1.16781 1.42994 1.26193 1.32703C1.35605 1.22413 1.47061 1.14191 1.59831 1.08562C1.72601 1.02932 1.86406 1.00018 2.00367 1.00005H3.51206C3.75607 0.997652 3.99263 1.08389 4.17765 1.24269C4.36266 1.40148 4.48351 1.622 4.51766 1.86315C4.58132 2.34491 4.69939 2.81794 4.86962 3.27321C4.93726 3.45281 4.9519 3.64801 4.9118 3.83567C4.8717 4.02332 4.77854 4.19557 4.64336 4.33201L4.0048 4.9693C4.72056 6.22558 5.76281 7.26576 7.02159 7.9801L7.66014 7.34281C7.79684 7.2079 7.96944 7.11492 8.15747 7.0749C8.3455 7.03488 8.54108 7.04949 8.72104 7.117C9.17722 7.28689 9.65118 7.40473 10.1339 7.46827C10.3781 7.50265 10.6012 7.62543 10.7607 7.81325C10.9201 8.00107 11.0048 8.24083 10.9987 8.48692Z" fill="white" stroke="black" stroke-linecap="round" stroke-linejoin="round"/>
</svg>
