<svg width="130" height="37" viewBox="0 0 130 37" fill="none" xmlns="http://www.w3.org/2000/svg">
<path d="M17.992 28L13.806 22.02C16.276 21.058 17.68 19.03 17.68 16.274C17.68 12.244 14.716 9.8 9.932 9.8H2.444V28H5.824V22.696H9.932C10.166 22.696 10.4 22.696 10.634 22.67L14.352 28H17.992ZM14.274 16.274C14.274 18.562 12.74 19.914 9.776 19.914H5.824V12.66H9.776C12.74 12.66 14.274 13.986 14.274 16.274ZM27.7536 25.426C25.7256 25.426 24.2176 24.568 23.5416 22.982L34.1756 20.902C34.1496 16.56 31.0296 13.96 27.1556 13.96C23.0216 13.96 20.0056 16.924 20.0056 21.058C20.0056 25.192 23.0216 28.182 27.6756 28.182C30.0676 28.182 32.0176 27.402 33.2396 25.92L31.5236 23.918C30.5096 24.932 29.3136 25.426 27.7536 25.426ZM27.1556 16.56C29.1056 16.56 30.5616 17.704 31.0036 19.394L23.1516 20.902V20.876C23.1516 18.224 24.7896 16.56 27.1556 16.56ZM44.188 24.932C43.694 25.322 43.044 25.504 42.368 25.504C41.146 25.504 40.444 24.776 40.444 23.424V16.82H44.162V14.22H40.444V11.048H37.194V23.502C37.194 26.57 38.936 28.182 41.978 28.182C43.148 28.182 44.318 27.87 45.098 27.246L44.188 24.932ZM50.8783 16.144V14.116H47.7843V28H51.0343V21.266C51.0343 18.432 52.5943 16.976 55.0643 16.976C55.2983 16.976 55.5323 17.002 55.8183 17.054V13.96C53.5043 13.96 51.8143 14.688 50.8783 16.144ZM64.6884 28.182C69.0044 28.182 72.0984 25.218 72.0984 21.058C72.0984 16.898 69.0044 13.96 64.6884 13.96C60.4244 13.96 57.3044 16.898 57.3044 21.058C57.3044 25.218 60.4244 28.182 64.6884 28.182ZM64.6884 25.4C62.3484 25.4 60.5804 23.71 60.5804 21.058C60.5804 18.406 62.3484 16.716 64.6884 16.716C67.0544 16.716 68.8224 18.406 68.8224 21.058C68.8224 23.71 67.0544 25.4 64.6884 25.4Z" fill="white"/>
<path d="M82.4006 24.9131C80.2414 24.6367 77.1232 22.7903 80.4711 16.7578C84.5368 9.43179 91.2212 7.08195 94.1844 6.59815C97.6299 6.03561 102.591 6.94372 98.8014 14.4079C96.9197 18.1137 89.843 23.1853 88.3269 23.8764M89.8429 18.0018C88.8093 21.1119 86.7695 27.6223 86.8798 28.7834M88.258 24.0838C90.9455 21.5266 97.7549 21.1119 96.4584 26.2263C95.4248 30.3039 92.117 33.4807 87.9824 35.0727C81.7115 37.4874 81.4358 34.5889 82.5384 33.1376M105.141 21.803C104.383 22.8858 103.694 25.0993 103.694 26.2954C103.694 27.6776 106.037 28.2997 109.552 21.2501C109.646 21.0439 109.752 20.8154 109.866 20.5694M109.866 20.5694C110.807 18.535 112.228 15.305 110.999 13.5786C109.687 11.7364 107.76 11.367 106.037 13.1639C104.56 14.704 103.794 20.3904 109.866 20.5694ZM109.866 20.5694C110.889 20.5996 112.107 20.4733 113.548 20.1443C113.731 20.1443 110.481 25.7563 111.473 26.9174C112.465 28.0785 115.24 24.7288 116.504 22.9088M95.218 34.1743C95.6315 34.1743 108.311 28.507 121.197 30.7186M119.278 12.6166L118.431 14.1259M126.021 1L123.176 5.82101M123.176 5.82101L122.024 7.77308M123.176 5.82101L109.838 5.14731M123.176 5.82101L128.984 6.11436M109.827 5.14678L109.838 5.14731M109.838 5.14731L109.837 5.14678M109.838 5.14731L118.857 16.0644M118.234 30.2348L118.855 16.0666L118.857 16.0644M118.857 16.0644L118.86 16.0685M118.857 16.0644L129 6.11436M104.108 22.425C103.97 21.2501 102.178 19.5223 100.042 22.0104C96.6072 26.0105 99.6283 29.129 102.109 26.7792C103.832 25.1473 104.108 23.1853 104.108 22.425ZM121.871 8.12382C122.175 8.40855 122.619 9.30547 121.962 10.6153C121.305 11.9251 120.218 12.3129 119.756 12.343C119.264 12.0947 118.507 11.1448 119.416 9.3312C120.325 7.51758 121.432 7.77061 121.871 8.12382Z" stroke="white" stroke-width="2" stroke-linecap="round"/>
</svg>
