<svg width="18" height="18" viewBox="0 0 18 18" fill="none" xmlns="http://www.w3.org/2000/svg">
<path d="M15.6678 16.9707L15.6677 16.9709L15.6759 16.9784C15.9427 17.2227 16.2254 17.2814 16.4728 17.2358C16.7042 17.1932 16.8804 17.0645 16.9737 16.9713C17.346 16.6026 17.346 16.0354 16.9738 15.6667C16.9736 15.6665 16.9734 15.6663 16.9732 15.6661L13.5264 12.2135C14.4492 11.0124 14.9952 9.50701 14.9952 7.87663C14.9952 3.94125 11.8068 0.75 7.87406 0.75C3.94134 0.75 0.75293 3.94125 0.75293 7.87663C0.75293 11.812 3.94134 15.0033 7.87406 15.0033C9.51001 15.0033 11.0176 14.4505 12.2207 13.5208L15.6678 16.9707ZM2.59388 7.87663C2.59388 4.95823 4.95848 2.59202 7.87406 2.59202C10.7898 2.59202 13.1575 4.95842 13.1575 7.87663C13.1575 10.795 10.7929 13.1612 7.87732 13.1612C4.96155 13.1612 2.59388 10.7948 2.59388 7.87663Z" fill="white" stroke="white" stroke-width="0.5"/>
</svg>
