<svg width="103" height="103" viewBox="0 0 103 103" fill="none" xmlns="http://www.w3.org/2000/svg">
<path d="M100.045 67.3636L77.4329 44.751C74.8804 42.1985 70.742 42.1985 68.1895 44.751L12.8972 100.045M12.8935 2H89.1477C95.164 2 100.041 6.8773 100.041 12.8938V89.1501C100.041 95.1665 95.164 100.044 89.1477 100.044H12.8935C6.87717 100.044 2 95.1665 2 89.1501V12.8938C2 6.8773 6.87717 2 12.8935 2ZM40.1234 31.9589C40.1234 36.4712 36.4655 40.1292 31.9533 40.1292C27.4411 40.1292 23.7832 36.4712 23.7832 31.9589C23.7832 27.4466 27.4411 23.7886 31.9533 23.7886C36.4655 23.7886 40.1234 27.4466 40.1234 31.9589Z" stroke="white" stroke-width="4" stroke-linecap="round" stroke-linejoin="round"/>
</svg>
