<svg width="22" height="22" viewBox="0 0 22 22" fill="none" xmlns="http://www.w3.org/2000/svg">
<path d="M6.42699 0C2.89905 0 0 2.89508 0 6.42699V15.4302C0 18.9581 2.89508 21.8571 6.42699 21.8571H15.4302C18.9581 21.8571 21.8571 18.9621 21.8571 15.4302V6.42799C21.8571 2.89905 18.9621 0 15.4302 0H6.42699ZM6.42699 1.98701H15.4302C16.0134 1.98623 16.5911 2.10054 17.1302 2.32339C17.6692 2.54624 18.159 2.87326 18.5714 3.2857C18.9839 3.69815 19.3109 4.18792 19.5338 4.72696C19.7566 5.266 19.8709 5.84371 19.8701 6.42699V15.4302C19.8709 16.0134 19.7566 16.5911 19.5338 17.1302C19.3109 17.6692 18.9839 18.159 18.5714 18.5714C18.159 18.9839 17.6692 19.3109 17.1302 19.5338C16.5911 19.7566 16.0134 19.8709 15.4302 19.8701H6.42799C5.84462 19.871 5.2668 19.7568 4.72765 19.534C4.1885 19.3113 3.69861 18.9843 3.28605 18.5718C2.8735 18.1593 2.5464 17.6695 2.32348 17.1304C2.10057 16.5913 1.98623 16.0135 1.98701 15.4302C1.98701 15.4302 1.98793 7.01136 1.98701 6.42799C1.9861 5.84462 2.10031 5.2668 2.3231 4.72765C2.5459 4.1885 2.87289 3.69861 3.28535 3.28605C3.69781 2.8735 4.18763 2.5464 4.72673 2.32348C5.26583 2.10057 5.84362 1.98623 6.42699 1.98701ZM16.7962 4.16081C16.6779 4.16028 16.5606 4.1832 16.4511 4.22825C16.3417 4.2733 16.2423 4.33958 16.1586 4.42327C16.0749 4.50696 16.0086 4.6064 15.9636 4.71584C15.9185 4.82529 15.8956 4.94257 15.8961 5.06092C15.8961 5.56165 16.2955 5.96104 16.7962 5.96104C16.9147 5.9617 17.0321 5.93887 17.1416 5.89388C17.2512 5.84889 17.3507 5.78263 17.4345 5.69893C17.5183 5.61523 17.5847 5.51575 17.6298 5.40624C17.6749 5.29672 17.6979 5.17936 17.6973 5.06092C17.6979 4.94249 17.6749 4.82512 17.6298 4.71561C17.5847 4.6061 17.5183 4.50662 17.4345 4.42292C17.3507 4.33921 17.2512 4.27295 17.1416 4.22796C17.0321 4.18297 16.9147 4.16015 16.7962 4.16081ZM10.9286 4.96753C7.65 4.96753 4.96753 7.65 4.96753 10.9286C4.96753 14.2071 7.65 16.8896 10.9286 16.8896C14.2071 16.8896 16.8896 14.2071 16.8896 10.9286C16.8896 7.65 14.2071 4.96753 10.9286 4.96753ZM10.9286 6.95455C13.1371 6.95455 14.9026 8.72001 14.9026 10.9286C14.9026 13.1371 13.1371 14.9026 10.9286 14.9026C8.72001 14.9026 6.95455 13.1371 6.95455 10.9286C6.95455 8.72001 8.72001 6.95455 10.9286 6.95455Z" fill="white"/>
</svg>
