<svg width="24" height="24" viewBox="0 0 31 32" fill="none" xmlns="http://www.w3.org/2000/svg">
<g clip-path="url(#clip0_167_7382)">
<path d="M9.04167 29.3333H6.45833C5.43062 29.3333 4.445 28.9119 3.71829 28.1618C2.99159 27.4116 2.58333 26.3942 2.58333 25.3333V6.66667C2.58333 5.6058 2.99159 4.58839 3.71829 3.83824C4.445 3.08809 5.43062 2.66667 6.45833 2.66667H9.04167C9.38424 2.66667 9.71278 2.52619 9.95501 2.27614C10.1972 2.02609 10.3333 1.68696 10.3333 1.33333C10.3333 0.979711 10.1972 0.640573 9.95501 0.390524C9.71278 0.140476 9.38424 0 9.04167 0L6.45833 0C4.74611 0.00211714 3.1046 0.705176 1.89387 1.95496C0.683139 3.20474 0.00205098 4.89921 0 6.66667L0 25.3333C0.00205098 27.1008 0.683139 28.7953 1.89387 30.045C3.1046 31.2948 4.74611 31.9979 6.45833 32H9.04167C9.38424 32 9.71278 31.8595 9.95501 31.6095C10.1972 31.3594 10.3333 31.0203 10.3333 30.6667C10.3333 30.313 10.1972 29.9739 9.95501 29.7239C9.71278 29.4738 9.38424 29.3333 9.04167 29.3333Z" fill="white"/>
<path d="M7.70072 17.3335L28.0794 17.2908C27.9661 17.508 27.8244 17.7081 27.6583 17.8855L22.6479 23.0575C22.5245 23.1805 22.4261 23.3276 22.3584 23.4903C22.2907 23.6529 22.2551 23.8279 22.2536 24.0049C22.2521 24.182 22.2848 24.3575 22.3497 24.5214C22.4147 24.6853 22.5106 24.8341 22.6319 24.9593C22.7532 25.0845 22.8974 25.1835 23.0561 25.2506C23.2149 25.3176 23.3849 25.3513 23.5565 25.3498C23.728 25.3483 23.8975 25.3115 24.055 25.2416C24.2126 25.1717 24.3552 25.0701 24.4743 24.9428L29.4873 19.7708C30.4559 18.7707 31 17.4143 31 16.0001C31 14.5859 30.4559 13.2296 29.4873 12.2295L24.4769 7.05747C24.3577 6.93012 24.2152 6.82855 24.0576 6.75867C23.9 6.68879 23.7305 6.65201 23.559 6.65047C23.3875 6.64893 23.2174 6.68266 23.0587 6.74971C22.9 6.81675 22.7557 6.91575 22.6345 7.04094C22.5132 7.16613 22.4173 7.315 22.3523 7.47886C22.2874 7.64273 22.2547 7.8183 22.2562 7.99534C22.2577 8.17237 22.2933 8.34734 22.361 8.51001C22.4287 8.67268 22.5271 8.81981 22.6505 8.9428L27.6609 14.1148C27.8054 14.2685 27.9316 14.4395 28.0367 14.6241L7.70072 14.6668C7.35815 14.6668 7.02961 14.8073 6.78738 15.0573C6.54514 15.3074 6.40906 15.6465 6.40906 16.0001C6.40906 16.3538 6.54514 16.6929 6.78738 16.9429C7.02961 17.193 7.35815 17.3335 7.70072 17.3335Z" fill="white"/>
</g>
<defs>
<clipPath id="clip0_167_7382">
<rect width="31" height="32" fill="white"/>
</clipPath>
</defs>
</svg>
