<svg width="24" height="21" viewBox="0 0 24 21" fill="none" xmlns="http://www.w3.org/2000/svg">
<path d="M21.361 0.00176747C21.0476 0.0151666 20.7556 0.10363 20.4985 0.204325C20.2577 0.298191 19.3377 0.680585 17.8884 1.28281C16.438 1.88556 14.5174 2.68458 12.4686 3.53832C8.3711 5.24579 3.76442 7.16782 1.40486 8.15153C1.31613 8.18851 1.00654 8.28434 0.677949 8.53292C0.349356 8.7815 0 9.29659 0 9.87053C0 10.3333 0.227615 10.7931 0.514112 11.0676C0.800608 11.3421 1.10376 11.4777 1.36343 11.5804C2.30561 11.9529 5.22772 13.1117 5.77952 13.3304C5.97371 13.9069 7.03138 17.0421 7.27665 17.8104C7.43834 18.3175 7.59226 18.6351 7.79265 18.8871C7.89285 19.0131 8.00932 19.1235 8.15046 19.2101C8.20687 19.2447 8.26873 19.2713 8.33124 19.2959L8.33501 19.2977C8.34941 19.3033 8.36183 19.3128 8.37644 19.3178C8.404 19.3271 8.42243 19.3282 8.4593 19.336C8.60617 19.382 8.75445 19.4108 8.88678 19.4108C9.45099 19.4108 9.79637 19.1097 9.79637 19.1097L9.81708 19.0951L12.7191 16.6626L16.2388 19.8889C16.2883 19.9568 16.7505 20.5714 17.7698 20.5714C18.375 20.5714 18.8551 20.2771 19.1634 19.9638C19.4716 19.6504 19.6636 19.3211 19.7453 18.9072V18.9053C19.8216 18.5142 23.0653 2.37772 23.0653 2.37772L23.0597 2.39961C23.1546 1.97963 23.1795 1.58849 23.0748 1.20252C22.97 0.81654 22.6939 0.446986 22.3516 0.248122C22.0093 0.0493016 21.6745 -0.0116317 21.361 0.00176747ZM21.1803 1.95435C21.1756 1.98162 21.1837 1.96791 21.1765 1.99997L21.1746 2.01092L21.1727 2.02187C21.1727 2.02187 17.9692 17.9519 17.8508 18.5586C17.8594 18.5128 17.8198 18.6039 17.7792 18.659C17.7218 18.6206 17.6041 18.5714 17.6041 18.5714L17.5852 18.5513L12.7775 14.1443L9.3783 16.9911L10.3896 13.0677C10.3896 13.0677 16.711 6.72676 17.0919 6.3577C17.3985 6.06246 17.4628 5.95954 17.4628 5.8577C17.4628 5.72129 17.3895 5.62229 17.2256 5.62229C17.078 5.62229 16.8797 5.76127 16.7736 5.82667C15.3918 6.68022 9.32552 10.1062 6.60624 11.6388C6.1741 11.4674 3.17188 10.2766 2.15437 9.87418C2.16208 9.87091 2.15954 9.87207 2.16755 9.86871C4.52773 8.88474 9.13249 6.96273 13.2294 5.2555C15.2779 4.40188 17.1999 3.60225 18.6493 2.99999C20.0762 2.407 21.0678 1.99889 21.1803 1.95435Z" fill="white"/>
</svg>
