<svg width="31" height="22" viewBox="0 0 31 22" fill="none" xmlns="http://www.w3.org/2000/svg">
<path d="M12.0757 16.2085L11.6882 15.3961L12.0757 16.2085L20.5219 12.1802C21.4504 11.7374 21.4663 10.4214 20.5486 9.95643L12.1024 5.67632C12.1024 5.67631 12.1024 5.6763 12.1024 5.6763C11.2781 5.25859 10.3032 5.85755 10.3032 6.78155V15.0901C10.3032 16.001 11.2532 16.6007 12.0757 16.2085ZM19.7351 11.5621C19.7348 11.562 19.7345 11.5618 19.7343 11.5617L19.735 11.5621L19.7351 11.5621ZM19.7471 10.5554L19.7466 10.5557C19.7468 10.5556 19.747 10.5555 19.7472 10.5554L19.7471 10.5554ZM6.41505 0.9H24.473C27.5189 0.9 29.988 3.36917 29.988 6.41505V15.4421C29.988 18.488 27.5189 20.9571 24.473 20.9571H6.41505C3.36917 20.9571 0.9 18.488 0.9 15.4421V6.41505C0.9 3.36917 3.36917 0.9 6.41505 0.9Z" stroke="white" stroke-width="1.8"/>
</svg>
