<svg width="22" height="22" viewBox="0 0 22 22" fill="none" xmlns="http://www.w3.org/2000/svg">
<path d="M6.42699 0.000976562C2.89905 0.000976562 0 2.89605 0 6.42797V15.4311C0 18.9591 2.89508 21.8581 6.42699 21.8581H15.4302C18.9581 21.8581 21.8571 18.963 21.8571 15.4311V6.42896C21.8571 2.90003 18.9621 0.000976562 15.4302 0.000976562H6.42699ZM6.42699 1.98799H15.4302C16.0134 1.98721 16.5911 2.10151 17.1302 2.32437C17.6692 2.54722 18.159 2.87423 18.5714 3.28668C18.9839 3.69913 19.3109 4.1889 19.5338 4.72794C19.7566 5.26697 19.8709 5.84468 19.8701 6.42797V15.4311C19.8709 16.0144 19.7566 16.5921 19.5338 17.1312C19.3109 17.6702 18.9839 18.16 18.5714 18.5724C18.159 18.9849 17.6692 19.3119 17.1302 19.5347C16.5911 19.7576 16.0134 19.8719 15.4302 19.8711H6.42799C5.84462 19.872 5.2668 19.7578 4.72765 19.535C4.1885 19.3122 3.69861 18.9852 3.28605 18.5728C2.8735 18.1603 2.5464 17.6705 2.32348 17.1314C2.10057 16.5923 1.98623 16.0145 1.98701 15.4311C1.98701 15.4311 1.98793 7.01234 1.98701 6.42896C1.9861 5.84559 2.10031 5.26778 2.3231 4.72862C2.5459 4.18947 2.87289 3.69958 3.28535 3.28703C3.69781 2.87448 4.18763 2.54737 4.72673 2.32446C5.26583 2.10155 5.84362 1.9872 6.42699 1.98799ZM16.7962 4.16178C16.6779 4.16126 16.5606 4.18418 16.4511 4.22923C16.3417 4.27428 16.2423 4.34056 16.1586 4.42425C16.0749 4.50794 16.0086 4.60737 15.9636 4.71682C15.9185 4.82626 15.8956 4.94355 15.8961 5.0619C15.8961 5.56263 16.2955 5.96202 16.7962 5.96202C16.9147 5.96267 17.0321 5.93985 17.1416 5.89486C17.2512 5.84987 17.3507 5.78361 17.4345 5.6999C17.5183 5.6162 17.5847 5.51672 17.6298 5.40721C17.6749 5.2977 17.6979 5.18034 17.6973 5.0619C17.6979 4.94346 17.6749 4.8261 17.6298 4.71659C17.5847 4.60708 17.5183 4.5076 17.4345 4.42389C17.3507 4.34019 17.2512 4.27393 17.1416 4.22894C17.0321 4.18395 16.9147 4.16112 16.7962 4.16178ZM10.9286 4.96851C7.65 4.96851 4.96753 7.65098 4.96753 10.9295C4.96753 14.2081 7.65 16.8906 10.9286 16.8906C14.2071 16.8906 16.8896 14.2081 16.8896 10.9295C16.8896 7.65098 14.2071 4.96851 10.9286 4.96851ZM10.9286 6.95552C13.1371 6.95552 14.9026 8.72098 14.9026 10.9295C14.9026 13.1381 13.1371 14.9036 10.9286 14.9036C8.72001 14.9036 6.95455 13.1381 6.95455 10.9295C6.95455 8.72098 8.72001 6.95552 10.9286 6.95552Z" fill="white"/>
</svg>
