<svg width="24" height="21" viewBox="0 0 24 21" fill="none" xmlns="http://www.w3.org/2000/svg">
<path d="M21.361 0.00274403C21.0476 0.0161431 20.7556 0.104606 20.4985 0.205302C20.2577 0.299167 19.3377 0.681561 17.8884 1.28379C16.438 1.88653 14.5174 2.68556 12.4686 3.53929C8.3711 5.24677 3.76442 7.16879 1.40486 8.1525C1.31613 8.18948 1.00654 8.28532 0.677949 8.5339C0.349356 8.78248 0 9.29757 0 9.87151C0 10.3343 0.227615 10.7941 0.514112 11.0686C0.800608 11.3431 1.10376 11.4787 1.36343 11.5814C2.30561 11.9539 5.22772 13.1127 5.77952 13.3314C5.97371 13.9079 7.03138 17.043 7.27665 17.8114C7.43834 18.3185 7.59226 18.636 7.79265 18.8881C7.89285 19.0141 8.00932 19.1245 8.15046 19.2111C8.20687 19.2457 8.26873 19.2723 8.33124 19.2968L8.33501 19.2987C8.34941 19.3043 8.36183 19.3138 8.37644 19.3187C8.404 19.3281 8.42243 19.3292 8.4593 19.337C8.60617 19.3829 8.75445 19.4118 8.88678 19.4118C9.45099 19.4118 9.79637 19.1107 9.79637 19.1107L9.81708 19.0961L12.7191 16.6636L16.2388 19.8899C16.2883 19.9578 16.7505 20.5724 17.7698 20.5724C18.375 20.5724 18.8551 20.2781 19.1634 19.9647C19.4716 19.6513 19.6636 19.3221 19.7453 18.9081V18.9063C19.8216 18.5152 23.0653 2.37869 23.0653 2.37869L23.0597 2.40059C23.1546 1.9806 23.1795 1.58947 23.0748 1.20349C22.97 0.817516 22.6939 0.447962 22.3516 0.249098C22.0093 0.0502782 21.6745 -0.0106552 21.361 0.00274403ZM21.1803 1.95533C21.1756 1.9826 21.1837 1.96888 21.1765 2.00095L21.1746 2.0119L21.1727 2.02285C21.1727 2.02285 17.9692 17.9529 17.8508 18.5596C17.8594 18.5138 17.8198 18.6049 17.7792 18.66C17.7218 18.6216 17.6041 18.5724 17.6041 18.5724L17.5852 18.5523L12.7775 14.1453L9.3783 16.9921L10.3896 13.0686C10.3896 13.0686 16.711 6.72774 17.0919 6.35868C17.3985 6.06344 17.4628 5.96051 17.4628 5.85867C17.4628 5.72226 17.3895 5.62327 17.2256 5.62327C17.078 5.62327 16.8797 5.76225 16.7736 5.82765C15.3918 6.6812 9.32552 10.1072 6.60624 11.6398C6.1741 11.4684 3.17188 10.2776 2.15437 9.87516C2.16208 9.87189 2.15954 9.87305 2.16755 9.86969C4.52773 8.88572 9.13249 6.96371 13.2294 5.25647C15.2779 4.40286 17.1999 3.60323 18.6493 3.00097C20.0762 2.40798 21.0678 1.99987 21.1803 1.95533Z" fill="white"/>
</svg>
