<svg width="31" height="22" viewBox="0 0 31 22" fill="none" xmlns="http://www.w3.org/2000/svg">
<path d="M12.0757 16.2095L11.6882 15.3971L12.0757 16.2094L20.5219 12.1811C21.4504 11.7384 21.4663 10.4224 20.5486 9.9574L12.1024 5.6773C12.1024 5.67729 12.1024 5.67728 12.1024 5.67727C11.2781 5.25957 10.3032 5.85853 10.3032 6.78252V15.091C10.3032 16.0019 11.2532 16.6017 12.0757 16.2095ZM19.7351 11.5631C19.7348 11.5629 19.7345 11.5628 19.7343 11.5627L19.735 11.563L19.7351 11.5631ZM19.7471 10.5564L19.7466 10.5567C19.7468 10.5566 19.747 10.5565 19.7472 10.5564L19.7471 10.5564ZM6.41505 0.900977H24.473C27.5189 0.900977 29.988 3.37014 29.988 6.41602V15.4431C29.988 18.489 27.5189 20.9581 24.473 20.9581H6.41505C3.36917 20.9581 0.9 18.489 0.9 15.4431V6.41602C0.9 3.37014 3.36917 0.900977 6.41505 0.900977Z" stroke="white" stroke-width="1.8"/>
</svg>
