<svg width="82" height="59" viewBox="0 0 82 59" fill="none" xmlns="http://www.w3.org/2000/svg">
<path d="M7.31877 39.7827C3.95105 39.3459 -0.912395 36.4287 4.30932 26.8976C10.6507 15.3228 21.0763 11.6102 25.698 10.8458C31.072 9.95703 38.8106 11.3918 32.8992 23.1849C29.9643 29.0398 18.9267 37.0528 16.5621 38.1447M18.9266 28.8631C17.3144 33.7769 14.133 44.0631 14.305 45.8976M16.4546 38.4723C20.6464 34.4321 31.2669 33.7769 29.2448 41.8574C27.6326 48.2999 22.4735 53.319 16.0247 55.8344C6.24396 59.6495 5.81405 55.0701 7.53374 52.7769M42.7873 34.8689C41.605 36.5796 40.5302 40.0768 40.5302 41.9666C40.5303 44.1505 44.1846 45.1333 49.6661 33.9953C49.813 33.6694 49.9794 33.3084 50.1568 32.9198M50.1568 32.9198C51.6241 29.7055 53.841 24.6023 51.9232 21.8746C49.8768 18.964 46.8716 18.3803 44.1846 21.2194C41.8816 23.6527 40.6867 32.637 50.1568 32.9198ZM50.1568 32.9198C51.753 32.9675 53.6521 32.7679 55.9 32.2482C56.1851 32.2482 51.1156 41.1148 52.6634 42.9493C54.2111 44.7838 58.539 39.4915 60.5094 36.616M27.3102 54.4149C27.955 54.4149 47.7315 45.4608 67.8304 48.9551M64.8366 20.3547L63.5154 22.7393M75.354 2.00098L70.9168 9.61797M70.9168 9.61797L69.1201 12.7021M70.9168 9.61797L50.1124 8.55355M70.9168 9.61797L79.9757 10.0815M50.0961 8.55271L50.1124 8.55355M50.1124 8.55355L50.1117 8.55271M50.1124 8.55355L64.1795 25.8022M63.2087 48.1907L64.176 25.8056L64.1795 25.8022M64.1795 25.8022L64.1848 25.8086M64.1795 25.8022L80 10.0815M41.1752 35.8516C40.9602 33.9953 38.1657 31.2654 34.8338 35.1964C29.4769 41.5165 34.1889 46.4436 38.0582 42.7309C40.7452 40.1527 41.1752 37.0528 41.1752 35.8516ZM68.8816 13.2563C69.3555 13.7062 70.0473 15.1233 69.023 17.1927C67.9987 19.2622 66.3024 19.8748 65.5822 19.9224C64.8144 19.5302 63.6334 18.0293 65.0517 15.1639C66.4699 12.2985 68.1959 12.6982 68.8816 13.2563Z" stroke="white" stroke-width="3" stroke-linecap="round"/>
</svg>
