<svg width="18" height="18" viewBox="0 0 18 18" fill="none" xmlns="http://www.w3.org/2000/svg">
<path d="M15.6649 16.9717L15.6647 16.9719L15.673 16.9794C15.9398 17.2237 16.2225 17.2824 16.4698 17.2368C16.7013 17.1942 16.8775 17.0654 16.9708 16.9723C17.343 16.6036 17.3431 16.0364 16.9709 15.6677C16.9707 15.6675 16.9705 15.6673 16.9702 15.6671L13.5235 12.2144C14.4462 11.0134 14.9923 9.50799 14.9923 7.87761C14.9923 3.94223 11.8038 0.750977 7.87113 0.750977C3.93841 0.750977 0.75 3.94223 0.75 7.87761C0.75 11.813 3.93841 15.0042 7.87113 15.0042C9.50708 15.0042 11.0147 14.4515 12.2177 13.5218L15.6649 16.9717ZM2.59095 7.87761C2.59095 4.95921 4.95555 2.593 7.87113 2.593C10.7869 2.593 13.1546 4.9594 13.1546 7.87761C13.1546 10.796 10.79 13.1622 7.87439 13.1622C4.95862 13.1622 2.59095 10.7958 2.59095 7.87761Z" fill="white" stroke="white" stroke-width="0.5"/>
</svg>
