<?xml version="1.0" encoding="UTF-8"?>
<svg xmlns="http://www.w3.org/2000/svg" xmlns:xlink="http://www.w3.org/1999/xlink" viewBox="0 0 50 50" width="28px" height="28px">
<g id="surface80260658">
<path style="fill-rule:nonzero;fill:rgb(100%,100%,100%);fill-opacity:1;stroke-width:1;stroke-linecap:butt;stroke-linejoin:round;stroke:rgb(100%,100%,100%);stroke-opacity:1;stroke-miterlimit:10;" d="M 165.124431 85.999999 C 165.124431 129.651595 129.651595 165.124431 85.999999 165.124431 C 72.562499 165.124431 59.976671 161.582555 48.89141 155.661403 L 11.147447 165.016282 C 9.957809 165.313692 8.700578 164.948689 7.848906 164.06998 C 6.997233 163.19127 6.672787 161.934039 7.010752 160.75792 L 17.14971 124.555078 C 10.72837 113.131852 6.875566 100.032317 6.875566 85.999999 C 6.875566 42.348402 42.348402 6.875566 85.999999 6.875566 C 129.651595 6.875566 165.124431 42.348402 165.124431 85.999999 Z M 13.756539 85.999999 C 13.756539 99.383424 17.406564 111.874621 23.746793 122.621917 C 24.219944 123.433034 24.341612 124.406374 24.084758 125.298602 L 15.230068 156.918634 L 48.269554 148.726356 C 49.121227 148.523576 50.013455 148.645244 50.784016 149.064321 C 61.206865 154.904361 73.197873 158.243458 85.999999 158.243458 C 125.933977 158.243458 158.243458 125.933977 158.243458 85.999999 C 158.243458 46.06602 125.933977 13.756539 85.999999 13.756539 C 46.06602 13.756539 13.756539 46.06602 13.756539 85.999999 Z M 61.301495 44.795271 L 61.315014 44.795271 C 61.369088 44.795271 62.950766 44.565454 64.721704 45.39009 C 66.506161 46.228244 67.871541 47.945107 68.885436 50.337902 C 69.737109 52.379212 71.170082 55.839976 72.467868 58.935738 C 73.103243 60.47686 73.711581 61.923352 74.184732 63.045396 C 74.657884 64.153922 75.090479 65.127262 75.036405 65.019114 L 75.036405 65.032632 C 75.752891 66.452086 76.455859 69.169327 75.212147 71.629715 C 74.59029 72.859908 74.00899 74.184732 72.711203 75.685298 C 71.791938 76.73975 70.710449 78.186241 69.480255 79.389398 L 69.466737 79.402916 C 69.304513 79.565139 69.385625 79.456991 69.304513 79.551621 C 70.50767 81.565894 74.319918 87.568157 79.740881 92.353746 C 83.390906 95.571175 86.730004 97.653042 89.39317 99.058977 C 92.056336 100.464913 93.854312 101.086769 95.32784 101.803255 C 95.800992 102.04659 95.692843 101.992516 95.71988 102.006034 C 96.909518 100.654173 100.816397 96.044327 101.776218 94.597835 C 102.803633 93.083751 104.561052 91.799483 106.345509 91.596704 C 108.129965 91.393924 109.360159 91.92115 110.374055 92.286153 C 111.969251 92.853934 114.564824 94.124684 117.565956 95.544138 C 120.567088 96.977111 123.554701 98.437121 124.609153 98.964347 C 126.501758 99.897131 128.313252 99.964724 129.921967 102.600853 C 130.679009 103.844566 130.611416 104.47994 130.679009 105.291057 C 130.746602 106.115692 130.733084 106.994402 130.651972 108.008298 C 130.47623 110.009052 129.98956 112.442402 129.029739 115.09205 C 127.704915 118.769113 124.690264 121.188944 121.608021 123.135624 C 118.525778 125.082304 115.416497 126.434165 112.591107 126.853242 C 108.819415 127.407505 103.790491 127.677878 98.261379 125.947495 C 95.287285 125.001192 91.353369 123.730443 86.365001 121.608021 C 75.536593 116.984656 66.817089 109.441271 60.612046 102.898263 C 57.502766 99.640277 55.042378 96.625627 53.27144 94.327463 C 51.500502 92.029299 50.189197 90.109656 50.270308 90.231324 C 49.296968 88.947056 41.280432 78.970321 41.280432 67.398389 C 41.280432 56.313128 47.755847 49.999936 49.310487 48.323628 C 51.892542 45.538794 55.042378 44.714159 57.245912 44.714159 C 58.638329 44.714159 60.030746 44.741196 61.301495 44.795271 Z M 54.352929 53.014587 C 52.176433 55.353306 48.161405 58.746478 48.161405 67.398389 C 48.161405 75.577149 54.690894 84.661656 55.758865 86.067592 C 56.353684 86.86519 57.083689 87.973716 58.732959 90.123175 C 60.38223 92.272634 62.707431 95.111543 65.600414 98.166749 C 71.399898 104.277161 79.511065 111.19869 89.068723 115.267792 C 93.7732 117.282065 97.409707 118.458185 100.329727 119.37745 C 104.534015 120.702274 108.359782 120.526532 111.59073 120.053381 C 112.6587 119.891157 115.551683 118.823187 117.930959 117.322621 C 120.310234 115.822055 122.20284 113.753708 122.567842 112.753331 C 123.297847 110.698502 123.676369 108.792377 123.798036 107.39996 C 123.838592 106.91329 123.825073 106.575325 123.811555 106.277916 C 123.635813 106.277916 122.973401 105.818283 121.567465 105.115315 C 120.580607 104.642164 117.579475 103.168635 114.60538 101.749181 C 111.644804 100.343245 108.319226 98.856198 108.048854 98.761568 L 108.048854 98.748049 C 107.467553 98.54527 107.481072 98.558789 107.413479 98.531751 C 105.65606 101.100287 102.019553 105.26402 100.789359 106.656437 L 100.775841 106.669955 C 99.856575 107.710888 98.410084 108.724784 96.733776 108.927563 C 95.04395 109.130343 93.610977 108.630154 92.286153 107.967742 C 91.73189 107.69737 89.230947 106.751067 86.17574 105.142352 C 83.120534 103.533638 79.294767 101.140843 75.198628 97.517855 C 68.682657 91.772446 64.478369 84.945547 63.20762 82.782569 C 62.247798 81.160336 61.977426 78.997358 62.572245 77.402162 C 63.167064 75.820484 64.113367 75.022886 64.654111 74.49566 C 65.24893 73.900841 66.398012 72.467868 67.506538 71.1836 C 68.250062 70.331928 68.344692 69.980444 69.074697 68.533953 C 69.088216 68.493397 69.115253 68.466359 69.128771 68.466359 C 69.101734 68.452841 69.034141 68.385248 68.898955 68.114876 L 68.898955 68.101357 C 68.588027 67.506538 68.331173 66.857645 67.844503 65.722081 C 67.357833 64.586518 66.763014 63.126508 66.114121 61.571868 C 64.816334 58.476106 63.369843 55.001822 62.531689 53.014587 C 62.220761 52.244026 61.977426 51.879023 61.855758 51.703281 C 61.734091 51.703281 61.463719 51.689763 60.977049 51.662725 C 59.882041 51.62217 58.570736 51.595132 57.245912 51.595132 C 56.745723 51.595132 55.502011 51.784393 54.352929 53.014587 Z M 54.352929 53.014587 " transform="matrix(0.288953,0,0,0.288953,0.15,0.15)"/>
<path style=" stroke:none;fill-rule:nonzero;fill:rgb(100%,100%,100%);fill-opacity:1;" d="M 25 2.136719 C 12.386719 2.136719 2.136719 12.386719 2.136719 25 C 2.136719 29.054688 3.25 32.839844 5.105469 36.140625 L 2.175781 46.601562 C 2.078125 46.941406 2.171875 47.304688 2.417969 47.558594 C 2.664062 47.8125 3.027344 47.917969 3.371094 47.832031 L 14.277344 45.128906 C 17.480469 46.839844 21.117188 47.863281 25 47.863281 C 37.613281 47.863281 47.863281 37.613281 47.863281 25 C 47.863281 12.386719 37.613281 2.136719 25 2.136719 Z M 25 4.125 C 36.539062 4.125 45.875 13.460938 45.875 25 C 45.875 36.539062 36.539062 45.875 25 45.875 C 21.300781 45.875 17.835938 44.910156 14.824219 43.222656 C 14.601562 43.101562 14.34375 43.066406 14.097656 43.125 L 4.550781 45.492188 L 7.109375 36.355469 C 7.183594 36.097656 7.148438 35.816406 7.011719 35.582031 C 5.179688 32.476562 4.125 28.867188 4.125 25 C 4.125 13.460938 13.460938 4.125 25 4.125 Z M 16.691406 13.070312 C 16.054688 13.070312 15.144531 13.308594 14.398438 14.113281 C 13.949219 14.597656 12.078125 16.421875 12.078125 19.625 C 12.078125 22.96875 14.394531 25.851562 14.675781 26.222656 C 14.652344 26.1875 15.03125 26.742188 15.542969 27.40625 C 16.054688 28.070312 16.765625 28.941406 17.664062 29.882812 C 19.457031 31.773438 21.976562 33.953125 25.105469 35.289062 C 26.546875 35.902344 27.683594 36.269531 28.542969 36.542969 C 30.140625 37.042969 31.59375 36.964844 32.683594 36.804688 C 33.5 36.683594 34.398438 36.292969 35.289062 35.730469 C 36.179688 35.167969 37.050781 34.46875 37.433594 33.40625 C 37.710938 32.640625 37.851562 31.9375 37.902344 31.359375 C 37.925781 31.066406 37.929688 30.8125 37.910156 30.574219 C 37.890625 30.339844 37.910156 30.15625 37.691406 29.796875 C 37.226562 29.035156 36.703125 29.015625 36.15625 28.746094 C 35.851562 28.59375 34.988281 28.171875 34.121094 27.757812 C 33.253906 27.347656 32.503906 26.980469 32.042969 26.816406 C 31.75 26.710938 31.394531 26.558594 30.878906 26.617188 C 30.363281 26.675781 29.855469 27.046875 29.558594 27.484375 C 29.28125 27.902344 28.152344 29.234375 27.808594 29.625 C 27.800781 29.621094 27.832031 29.636719 27.695312 29.566406 C 27.269531 29.359375 26.75 29.179688 25.980469 28.773438 C 25.210938 28.367188 24.246094 27.765625 23.191406 26.835938 C 21.625 25.453125 20.523438 23.71875 20.175781 23.136719 C 20.199219 23.109375 20.175781 23.140625 20.222656 23.09375 L 20.226562 23.089844 C 20.582031 22.742188 20.894531 22.324219 21.160156 22.019531 C 21.535156 21.585938 21.703125 21.203125 21.882812 20.847656 C 22.242188 20.136719 22.039062 19.351562 21.832031 18.941406 L 21.832031 18.9375 C 21.847656 18.96875 21.722656 18.6875 21.585938 18.367188 C 21.449219 18.042969 21.273438 17.625 21.089844 17.179688 C 20.714844 16.285156 20.300781 15.285156 20.054688 14.695312 C 19.761719 14.003906 19.367188 13.507812 18.851562 13.265625 C 18.339844 13.027344 17.882812 13.09375 17.867188 13.09375 L 17.863281 13.09375 C 17.496094 13.078125 17.09375 13.070312 16.691406 13.070312 Z M 16.691406 15.058594 C 17.074219 15.058594 17.453125 15.066406 17.769531 15.078125 C 18.097656 15.09375 18.074219 15.097656 18.011719 15.066406 C 17.949219 15.039062 18.035156 15.027344 18.21875 15.46875 C 18.460938 16.042969 18.878906 17.046875 19.253906 17.941406 C 19.441406 18.390625 19.613281 18.8125 19.753906 19.140625 C 19.894531 19.46875 19.96875 19.65625 20.058594 19.828125 L 20.058594 19.832031 C 20.144531 20.003906 20.136719 19.894531 20.109375 19.953125 C 19.898438 20.371094 19.871094 20.472656 19.65625 20.71875 C 19.335938 21.089844 19.003906 21.503906 18.832031 21.675781 C 18.675781 21.828125 18.402344 22.058594 18.230469 22.515625 C 18.058594 22.976562 18.136719 23.601562 18.414062 24.070312 C 18.78125 24.695312 19.996094 26.667969 21.878906 28.328125 C 23.0625 29.375 24.167969 30.066406 25.050781 30.53125 C 25.933594 30.996094 26.65625 31.269531 26.816406 31.347656 C 27.199219 31.539062 27.613281 31.683594 28.101562 31.625 C 28.585938 31.566406 29.003906 31.273438 29.269531 30.972656 L 29.273438 30.96875 C 29.628906 30.566406 30.679688 29.363281 31.1875 28.621094 C 31.207031 28.628906 31.203125 28.625 31.371094 28.683594 L 31.371094 28.6875 C 31.449219 28.714844 32.410156 29.144531 33.265625 29.550781 C 34.125 29.960938 34.992188 30.386719 35.277344 30.523438 C 35.683594 30.726562 35.875 30.859375 35.925781 30.859375 C 35.929688 30.945312 35.933594 31.042969 35.921875 31.183594 C 35.886719 31.585938 35.777344 32.136719 35.566406 32.730469 C 35.460938 33.019531 34.914062 33.617188 34.226562 34.050781 C 33.539062 34.484375 32.703125 34.792969 32.394531 34.839844 C 31.460938 34.976562 30.355469 35.027344 29.140625 34.644531 C 28.296875 34.378906 27.246094 34.039062 25.886719 33.457031 C 23.125 32.28125 20.78125 30.28125 19.105469 28.515625 C 18.269531 27.632812 17.597656 26.8125 17.121094 26.191406 C 16.644531 25.570312 16.433594 25.25 16.261719 25.019531 C 15.953125 24.613281 14.066406 21.988281 14.066406 19.625 C 14.066406 17.125 15.226562 16.144531 15.855469 15.46875 C 16.1875 15.113281 16.546875 15.058594 16.691406 15.058594 Z M 16.691406 15.058594 "/>
</g>
</svg>
