<svg width="20" height="20" viewBox="0 0 20 20" fill="none" xmlns="http://www.w3.org/2000/svg">
<path d="M14.9146 12.4869V13.9923C14.9151 14.1321 14.8864 14.2704 14.8303 14.3985C14.7742 14.5265 14.692 14.6414 14.5888 14.7359C14.4856 14.8304 14.3638 14.9023 14.2311 14.9471C14.0985 14.9919 13.9579 15.0085 13.8185 14.9959C12.2713 14.8281 10.7851 14.3005 9.47931 13.4554C8.26447 12.685 7.23449 11.657 6.46253 10.4446C5.61279 9.13549 5.08398 7.64504 4.91894 6.09398C4.90638 5.95521 4.9229 5.81536 4.96746 5.68331C5.01202 5.55127 5.08364 5.42994 5.17776 5.32703C5.27189 5.22413 5.38645 5.14191 5.51415 5.08562C5.64185 5.02932 5.7799 5.00018 5.91951 5.00005H7.4279C7.67191 4.99765 7.90847 5.08389 8.09348 5.24269C8.2785 5.40148 8.43349 5.86315 8.43349 5.86315C8.43349 5.86315 8.61523 6.81794 8.78545 7.27321C8.8531 7.45281 8.86774 7.64801 8.82764 7.83567C8.78754 8.02332 8.69438 8.19557 8.55919 8.33201L7.92064 8.9693C8.6364 10.2256 9.67865 11.2658 10.9374 11.9801L11.576 11.3428C11.7127 11.2079 11.8853 11.1149 12.0733 11.0749C12.2613 11.0349 12.4569 11.0495 12.6369 11.117C13.0931 11.2869 13.567 11.4047 14.0497 11.4683C14.294 11.5027 14.517 11.6254 14.6765 11.8133C14.8359 12.0011 14.9207 12.2408 14.9146 12.4869Z" stroke="#66FC7E" stroke-linecap="round" stroke-linejoin="round"/>
<path d="M18.9963 9.92146C19.004 11.3106 18.6815 12.6819 18.0552 13.9236C17.3126 15.4117 16.168 16.6647 14.7496 17.5425C13.3311 18.4203 11.6949 18.8882 10.0242 18.8937C8.62696 18.9013 6.69779 18.098 5.44881 17.4754L1.00084 18.8937L2.33156 14.9754C1.69801 13.7372 1.00042 11.3629 1.00003 9.97374C0.995849 8.31267 1.45691 6.68324 2.33156 5.26794C3.20621 3.85265 4.45992 2.70739 5.95224 1.96045C7.19758 1.33053 8.57497 1.00197 9.9722 1.00154L10.5015 1C12.7084 1.11462 14.7951 2.0345 16.3622 3.58352C17.9294 5.13254 18.8667 7.20185 18.9948 9.39523L18.9963 9.92146Z" stroke="#66FC7E" stroke-linecap="round" stroke-linejoin="round"/>
</svg>
