<svg width="20" height="21" viewBox="0 0 20 21" fill="none" xmlns="http://www.w3.org/2000/svg">
<path d="M18.8889 1.76831e-07C18.743 -7.84992e-05 18.5984 0.0270268 18.4636 0.0797664C18.3287 0.132506 18.2062 0.209845 18.103 0.307363C17.9998 0.40488 17.918 0.520662 17.8622 0.648089C17.8064 0.775517 17.7777 0.91209 17.7778 1.05V1.71856C16.8407 2.81654 15.6563 3.70326 14.3108 4.31415C12.9654 4.92505 11.4927 5.24476 10 5.25H3.33333C2.44957 5.25091 1.60229 5.58308 0.977376 6.17362C0.352464 6.76416 0.000964662 7.56485 0 8.4V10.5C0.000964662 11.3352 0.352464 12.1358 0.977376 12.7264C1.60229 13.3169 2.44957 13.6491 3.33333 13.65H3.87088L1.20118 19.5367C1.12863 19.6964 1.09917 19.8706 1.11546 20.0437C1.13174 20.2167 1.19326 20.3833 1.29448 20.5283C1.3957 20.6734 1.53346 20.7924 1.69539 20.8748C1.85732 20.9571 2.03835 21.0001 2.22222 21H6.66667C6.88417 21.0001 7.09691 20.9398 7.27845 20.8266C7.45999 20.7134 7.60231 20.5523 7.68772 20.3632L10.7141 13.6899C12.0815 13.7848 13.4138 14.1435 14.6287 14.744C15.8436 15.3445 16.9154 16.174 17.7778 17.1812V17.85C17.7778 18.1285 17.8948 18.3955 18.1032 18.5925C18.3116 18.7894 18.5942 18.9 18.8889 18.9C19.1836 18.9 19.4662 18.7894 19.6746 18.5925C19.8829 18.3955 20 18.1285 20 17.85V1.05C20.0001 0.91209 19.9714 0.775516 19.9156 0.648088C19.8598 0.52066 19.7779 0.404877 19.6747 0.30736C19.5716 0.209842 19.449 0.132503 19.3142 0.0797636C19.1793 0.0270245 19.0348 -7.98809e-05 18.8889 1.76831e-07ZM3.33333 11.55C3.03871 11.5498 2.75621 11.4391 2.54788 11.2423C2.33955 11.0454 2.22242 10.7784 2.22222 10.5V8.4C2.22242 8.12158 2.33955 7.85462 2.54788 7.65775C2.75621 7.46088 3.03871 7.35019 3.33333 7.35H4.44444V11.55H3.33333ZM5.93424 18.9H3.90733L6.28798 13.65H8.31489L5.93424 18.9ZM17.7778 14.1979C15.587 12.4923 12.8385 11.5566 10 11.5499H6.66667V7.34995H10C12.8386 7.34309 15.587 6.40721 17.7778 4.70149V14.1979Z" fill="white"/>
</svg>
