<svg width="21" height="21" viewBox="0 0 21 21" fill="none" xmlns="http://www.w3.org/2000/svg">
<path d="M19.9488 7.35328C20.1567 7.35328 20.3599 7.29132 20.5328 7.17523C20.7057 7.05915 20.8404 6.89415 20.92 6.70111C20.9995 6.50807 21.0204 6.29565 20.9798 6.09072C20.9392 5.88578 20.8391 5.69754 20.6921 5.54979C20.5451 5.40204 20.3578 5.30143 20.1539 5.26066C19.9499 5.2199 19.7386 5.24082 19.5465 5.32078C19.3544 5.40074 19.1902 5.53615 19.0747 5.70989C18.9592 5.88362 18.8975 6.08787 18.8975 6.29682C18.8975 6.57701 19.0083 6.84573 19.2054 7.04385C19.4026 7.24197 19.67 7.35328 19.9488 7.35328ZM16.7951 7.35328C17.003 7.35328 17.2062 7.29132 17.3791 7.17523C17.552 7.05915 17.6867 6.89415 17.7663 6.70111C17.8458 6.50807 17.8667 6.29565 17.8261 6.09072C17.7855 5.88578 17.6854 5.69754 17.5384 5.54979C17.3914 5.40204 17.2041 5.30143 17.0002 5.26066C16.7962 5.2199 16.5849 5.24082 16.3928 5.32078C16.2007 5.40074 16.0365 5.53615 15.921 5.70989C15.8055 5.88362 15.7438 6.08787 15.7438 6.29682C15.7438 6.57701 15.8546 6.84573 16.0517 7.04385C16.2489 7.24197 16.5163 7.35328 16.7951 7.35328ZM13.6414 7.35328C13.8493 7.35328 14.0525 7.29132 14.2254 7.17523C14.3983 7.05915 14.533 6.89415 14.6126 6.70111C14.6922 6.50807 14.713 6.29565 14.6724 6.09072C14.6318 5.88578 14.5317 5.69754 14.3847 5.54979C14.2377 5.40204 14.0504 5.30143 13.8465 5.26066C13.6425 5.2199 13.4312 5.24082 13.2391 5.32078C13.047 5.40074 12.8828 5.53615 12.7673 5.70989C12.6518 5.88362 12.5901 6.08787 12.5901 6.29682C12.5901 6.43556 12.6173 6.57294 12.6702 6.70111C12.723 6.82929 12.8004 6.94575 12.898 7.04385C12.9957 7.14195 13.1115 7.21977 13.2391 7.27286C13.3666 7.32595 13.5033 7.35328 13.6414 7.35328ZM18.3088 11.5791C18.0776 11.5791 17.8358 11.5052 17.6045 11.4523C17.1362 11.3486 16.6759 11.2109 16.2274 11.0403C15.7397 10.862 15.2037 10.8713 14.7224 11.0663C14.2411 11.2613 13.8486 11.6284 13.6203 12.0968L13.3891 12.5722C12.3636 11.9973 11.4196 11.2866 10.5823 10.4593C9.76304 9.61824 9.05627 8.67357 8.47982 7.64909L8.94237 7.35328C9.40845 7.12394 9.77366 6.72947 9.96773 6.24578C10.1618 5.7621 10.171 5.22337 9.9936 4.73326C9.82669 4.28155 9.68973 3.81922 9.58362 3.34931C9.53106 3.10632 9.48901 2.8739 9.45747 2.63091C9.32981 1.88677 8.94197 1.21288 8.36379 0.7306C7.78561 0.248325 7.05508 -0.0106426 6.30377 0.000335217H3.15008C2.70566 -0.000249815 2.26615 0.0935656 1.86034 0.275631C1.45453 0.457696 1.09159 0.723901 0.795316 1.05679C0.494336 1.3975 0.269986 1.79941 0.137556 2.23513C0.00512642 2.67086 -0.03227 3.13016 0.0279159 3.58173C0.581612 8.00516 2.58491 12.1175 5.72181 15.2699C8.85871 18.4224 12.9507 20.4357 17.3522 20.9921C17.4887 21.0026 17.6257 21.0026 17.7622 20.9921C18.5986 20.9921 19.4008 20.6582 19.9922 20.0639C20.5836 19.4695 20.9159 18.6633 20.9159 17.8228V14.6534C20.905 13.9162 20.6387 13.2059 20.1628 12.6448C19.687 12.0837 19.0314 11.7068 18.3088 11.5791ZM18.8239 17.9179C18.8257 18.071 18.7943 18.2227 18.7319 18.3624C18.6695 18.5021 18.5776 18.6265 18.4626 18.727C18.3476 18.8275 18.2122 18.9017 18.0659 18.9444C17.9195 18.9871 17.7657 18.9973 17.615 18.9743C13.6899 18.4596 10.0431 16.6587 7.23937 13.8505C4.43784 11.0137 2.64889 7.32522 2.15141 3.35987C2.12857 3.20492 2.1403 3.04681 2.18575 2.89699C2.23121 2.74716 2.30924 2.60936 2.41421 2.49357C2.51155 2.38221 2.63111 2.29267 2.76514 2.23079C2.89916 2.16891 3.04464 2.13606 3.19213 2.13438H6.34582C6.59028 2.12891 6.82899 2.20926 7.02086 2.36159C7.21274 2.51392 7.34577 2.72871 7.39705 2.96898C7.4391 3.25775 7.49167 3.54299 7.55474 3.82471C7.67618 4.38162 7.83779 4.9289 8.03831 5.46222L6.56658 6.14892C6.44075 6.20694 6.32755 6.28937 6.23351 6.39148C6.13946 6.49358 6.06641 6.61335 6.01854 6.74391C5.97068 6.87447 5.94895 7.01324 5.9546 7.15226C5.96026 7.29128 5.99318 7.42781 6.05148 7.55401C7.56441 10.8108 10.1694 13.4288 13.4101 14.9492C13.666 15.0549 13.9531 15.0549 14.209 14.9492C14.4699 14.8516 14.6816 14.6541 14.7977 14.3998L15.46 12.9208C16.0035 13.1161 16.5581 13.2784 17.121 13.4068C17.3943 13.4702 17.6886 13.523 17.9725 13.5652C18.2096 13.6189 18.4209 13.7535 18.5704 13.9461C18.7199 14.1388 18.7984 14.3775 18.7924 14.6217L18.8239 17.9179Z" fill="white"/>
</svg>
