<svg width="21" height="21" viewBox="0 0 21 21" fill="none" xmlns="http://www.w3.org/2000/svg">
<path d="M7.35 11.55H9.45V13.65C9.45 13.9285 9.56062 14.1955 9.75754 14.3925C9.95445 14.5894 10.2215 14.7 10.5 14.7C10.7785 14.7 11.0455 14.5894 11.2425 14.3925C11.4394 14.1955 11.55 13.9285 11.55 13.65V11.55H13.65C13.9285 11.55 14.1955 11.4394 14.3925 11.2425C14.5894 11.0455 14.7 10.7785 14.7 10.5C14.7 10.2215 14.5894 9.95445 14.3925 9.75754C14.1955 9.56062 13.9285 9.45 13.65 9.45H11.55V7.35C11.55 7.07152 11.4394 6.80445 11.2425 6.60754C11.0455 6.41062 10.7785 6.3 10.5 6.3C10.2215 6.3 9.95445 6.41062 9.75754 6.60754C9.56062 6.80445 9.45 7.07152 9.45 7.35V9.45H7.35C7.07152 9.45 6.80445 9.56062 6.60754 9.75754C6.41062 9.95445 6.3 10.2215 6.3 10.5C6.3 10.7785 6.41062 11.0455 6.60754 11.2425C6.80445 11.4394 7.07152 11.55 7.35 11.55ZM19.95 0H1.05C0.771523 0 0.504451 0.110625 0.307538 0.307538C0.110625 0.504451 0 0.771523 0 1.05V19.95C0 20.2285 0.110625 20.4955 0.307538 20.6925C0.504451 20.8894 0.771523 21 1.05 21H19.95C20.2285 21 20.4955 20.8894 20.6925 20.6925C20.8894 20.4955 21 20.2285 21 19.95V1.05C21 0.771523 20.8894 0.504451 20.6925 0.307538C20.4955 0.110625 20.2285 0 19.95 0ZM18.9 18.9H2.1V2.1H18.9V18.9Z" fill="white"/>
</svg>
