<svg width="22" height="22" viewBox="0 0 22 22" fill="none" xmlns="http://www.w3.org/2000/svg">
<path d="M18.7 8.85001L18.701 8.84999C18.8406 8.8472 18.9794 8.87229 19.1093 8.92381C19.2391 8.97532 19.3573 9.05222 19.4571 9.15C19.5568 9.24779 19.636 9.36448 19.6901 9.49326C19.7442 9.62204 19.772 9.76032 19.772 9.89999L19.772 18.953L19.772 18.9532C19.7748 19.602 19.5647 20.2337 19.1739 20.7515C18.7831 21.2694 18.2331 21.6447 17.6085 21.8199L17.6077 21.8201C17.3266 21.9039 17.035 21.9477 16.7416 21.95H3.05818C2.26124 21.9472 1.49775 21.6293 0.934225 21.0658C0.37072 20.5023 0.0528747 19.7388 0.05 18.9419V5.5C0.05 4.63805 0.39241 3.8114 1.0019 3.2019C1.6114 2.59241 2.43805 2.25 3.3 2.25H12.1C12.3785 2.25 12.6455 2.36062 12.8425 2.55754C13.0394 2.75445 13.15 3.02152 13.15 3.3C13.15 3.57848 13.0394 3.84555 12.8425 4.04246C12.6455 4.23938 12.3785 4.35 12.1 4.35H3.3C2.995 4.35 2.70249 4.47116 2.48683 4.68683C2.27116 4.90249 2.15 5.195 2.15 5.5V11.671V11.7923L2.23547 11.7062L3.86322 10.0675C3.86327 10.0674 3.86332 10.0674 3.86337 10.0673C4.42882 9.50643 5.19302 9.19169 5.9895 9.19169C6.78601 9.19169 7.55025 9.50646 8.11571 10.0674C8.11574 10.0674 8.11576 10.0675 8.11578 10.0675L10.8436 12.8063L10.8792 12.842L10.9146 12.8061L11.6842 12.0255C11.6843 12.0254 11.6844 12.0254 11.6844 12.0253C12.2499 11.4644 13.0141 11.1497 13.8105 11.1497C14.607 11.1497 15.3712 11.4644 15.9367 12.0254C15.9367 12.0254 15.9367 12.0255 15.9368 12.0255L17.5646 13.6534L17.65 13.7387V13.618V9.9C17.65 9.62152 17.7606 9.35445 17.9575 9.15754C18.1544 8.96062 18.4215 8.85 18.7 8.85001ZM2.16464 14.7376L2.15 14.7523V14.773V18.7C2.15 19.005 2.27116 19.2975 2.48683 19.5132C2.70249 19.7288 2.995 19.85 3.3 19.85H14.806H14.9268L14.8413 19.7646L6.62433 11.5586L6.62426 11.5585C6.45412 11.3894 6.22394 11.2944 5.984 11.2944C5.74406 11.2944 5.51388 11.3894 5.34374 11.5585L5.34364 11.5586L2.16464 14.7376ZM17.65 18.7017H17.65V18.7V16.731V16.7104L17.6355 16.6958L14.4567 13.495C14.4567 13.495 14.4566 13.4949 14.4566 13.4948C14.3731 13.4097 14.2734 13.342 14.1635 13.2958C14.0535 13.2496 13.9353 13.2258 13.816 13.2258C13.6967 13.2258 13.5785 13.2496 13.4685 13.2958C13.3586 13.342 13.259 13.4096 13.1756 13.4947C13.1755 13.4948 13.1754 13.4949 13.1753 13.495L12.3949 14.2644L12.3591 14.2997L12.3946 14.3353L17.3666 19.3293L17.4087 19.3716L17.443 19.3227C17.5707 19.1401 17.6426 18.9243 17.65 18.7017ZM19.75 2.2V2.25H19.8H20.9C21.1785 2.25 21.4456 2.36063 21.6425 2.55754C21.8394 2.75445 21.95 3.02152 21.95 3.3C21.95 3.57848 21.8394 3.84555 21.6425 4.04246C21.4456 4.23938 21.1785 4.35 20.9 4.35H19.8H19.75V4.4V5.5C19.75 5.77848 19.6394 6.04555 19.4425 6.24246C19.2456 6.43938 18.9785 6.55 18.7 6.55C18.4215 6.55 18.1544 6.43938 17.9575 6.24246C17.7606 6.04555 17.65 5.77848 17.65 5.5V4.4V4.35H17.6H16.5C16.2215 4.35 15.9545 4.23938 15.7575 4.04246C15.5606 3.84555 15.45 3.57848 15.45 3.3C15.45 3.02152 15.5606 2.75445 15.7575 2.55754C15.9545 2.36062 16.2215 2.25 16.5 2.25H17.6H17.65V2.2V1.1C17.65 0.821523 17.7606 0.554451 17.9575 0.357538C18.1544 0.160625 18.4215 0.05 18.7 0.05C18.9785 0.05 19.2456 0.160625 19.4425 0.357538C19.6394 0.554451 19.75 0.821523 19.75 1.1V2.2Z" fill="white" stroke="black" stroke-width="0.1"/>
</svg>
