<svg width="23" height="15" viewBox="0 0 23 15" fill="none" xmlns="http://www.w3.org/2000/svg">
<path d="M22.4595 1.4375C22.2847 1.32779 22.0864 1.27003 21.8845 1.27003C21.6826 1.27003 21.4843 1.32779 21.3095 1.4375L17.25 3.6125C17.2172 2.64196 16.8393 1.72309 16.1959 1.0493C15.5524 0.375506 14.6935 -0.000652219 13.8 8.48946e-07H3.45C2.535 8.48946e-07 1.65748 0.395089 1.01048 1.09835C0.363481 1.80161 0 2.75544 0 3.75V11.25C0 12.2446 0.363481 13.1984 1.01048 13.9017C1.65748 14.6049 2.535 15 3.45 15H13.8C14.6935 15.0007 15.5524 14.6245 16.1959 13.9507C16.8393 13.2769 17.2172 12.358 17.25 11.3875L21.344 13.6125C21.5007 13.6999 21.6739 13.7469 21.85 13.75C22.0653 13.7508 22.2765 13.6858 22.4595 13.5625C22.6252 13.4499 22.7618 13.2933 22.8564 13.1074C22.951 12.9215 23.0004 12.7124 23 12.5V2.5C23.0004 2.28757 22.951 2.07854 22.8564 1.89263C22.7618 1.70673 22.6252 1.55009 22.4595 1.4375ZM14.95 11.25C14.95 11.5815 14.8288 11.8995 14.6132 12.1339C14.3975 12.3683 14.105 12.5 13.8 12.5H3.45C3.145 12.5 2.85249 12.3683 2.63683 12.1339C2.42116 11.8995 2.3 11.5815 2.3 11.25V3.75C2.3 3.41848 2.42116 3.10054 2.63683 2.86612C2.85249 2.6317 3.145 2.5 3.45 2.5H13.8C14.105 2.5 14.3975 2.6317 14.6132 2.86612C14.8288 3.10054 14.95 3.41848 14.95 3.75V11.25ZM20.7 10.475L17.25 8.6V6.4L20.7 4.525V10.475Z" fill="white"/>
</svg>
