<svg width="70" height="71" viewBox="0 0 70 71" fill="none" xmlns="http://www.w3.org/2000/svg">
<mask id="path-1-inside-1_484_4547" fill="white">
<path d="M33.6617 1.64434C34.2168 0.547588 35.7831 0.547591 36.3383 1.64434L39.6976 8.2809C40.1299 9.13494 41.2407 9.37104 41.983 8.76667L47.7513 4.07024C48.7045 3.29411 50.1354 3.93119 50.1965 5.15892L50.566 12.5881C50.6136 13.5441 51.5323 14.2116 52.4563 13.9614L59.636 12.0172C60.8225 11.6959 61.8706 12.8598 61.427 14.0063L58.7429 20.9435C58.3975 21.8362 58.9653 22.8197 59.9112 22.9669L67.261 24.111C68.4756 24.3001 68.9596 25.7897 68.0881 26.6566L62.8145 31.9024C62.1358 32.5774 62.2545 33.7068 63.0587 34.226L69.3078 38.2606C70.3405 38.9274 70.1767 40.4851 69.028 40.9226L62.0766 43.5698C61.1821 43.9105 60.8312 44.9905 61.3546 45.7919L65.4224 52.0195C66.0946 53.0486 65.3115 54.4051 64.0841 54.3375L56.657 53.9285C55.7012 53.8758 54.9413 54.7198 55.0936 55.6648L56.2767 63.0084C56.4722 64.222 55.2051 65.1427 54.1113 64.5817L47.4926 61.1872C46.6409 60.7504 45.6035 61.2123 45.3582 62.1375L43.4521 69.3275C43.1371 70.5157 41.605 70.8414 40.8339 69.884L36.1682 64.0909C35.5678 63.3454 34.4322 63.3454 33.8318 64.0909L29.166 69.884C28.395 70.8414 26.8629 70.5157 26.5479 69.3275L24.6418 62.1375C24.3965 61.2123 23.3591 60.7504 22.5073 61.1872L15.8887 64.5817C14.7949 65.1427 13.5277 64.2221 13.7233 63.0084L14.9064 55.6648C15.0586 54.7198 14.2988 53.8758 13.343 53.9285L5.91589 54.3375C4.6885 54.4051 3.90535 53.0486 4.57758 52.0195L8.64534 45.7919C9.1688 44.9905 8.81788 43.9105 7.92334 43.5698L0.971989 40.9226C-0.176786 40.4851 -0.340505 38.9274 0.692209 38.2606L6.94127 34.226C7.74543 33.7068 7.86413 32.5774 7.18549 31.9024L1.91184 26.6566C1.04032 25.7897 1.52433 24.3001 2.73896 24.111L10.0888 22.9669C11.0346 22.8197 11.6024 21.8362 11.257 20.9435L8.57293 14.0063C8.12935 12.8598 9.17742 11.6959 10.3639 12.0172L17.5437 13.9614C18.4676 14.2116 19.3864 13.5441 19.4339 12.5881L19.8035 5.15892C19.8646 3.93118 21.2955 3.29411 22.2487 4.07024L28.017 8.76668C28.7592 9.37104 29.87 9.13493 30.3023 8.2809L33.6617 1.64434Z"/>
</mask>
<path d="M33.75 49.0004C33.75 49.6908 34.3096 50.2504 35 50.2504C35.6903 50.2504 36.25 49.6908 36.25 49.0004H33.75ZM35.8839 22.1165C35.3957 21.6284 34.6043 21.6284 34.1161 22.1165L26.1611 30.0715C25.673 30.5597 25.673 31.3511 26.1611 31.8393C26.6493 32.3274 27.4408 32.3274 27.9289 31.8393L35 24.7682L42.071 31.8393C42.5592 32.3274 43.3507 32.3274 43.8388 31.8393C44.327 31.3511 44.327 30.5597 43.8388 30.0715L35.8839 22.1165ZM36.25 49.0004V23.0004H33.75V49.0004H36.25ZM28.017 8.76668L26.4385 10.7054L28.017 8.76668ZM30.3023 8.2809L28.0718 7.15184L30.3023 8.2809ZM19.8035 5.15892L17.3066 5.03471L19.8035 5.15892ZM22.2487 4.07024L20.6703 6.00892L22.2487 4.07024ZM17.5437 13.9614L16.8902 16.3745L17.5437 13.9614ZM19.4339 12.5881L21.9308 12.7123L19.4339 12.5881ZM8.57293 14.0063L6.24136 14.9084L8.57293 14.0063ZM10.3639 12.0172L11.0174 9.60407L10.3639 12.0172ZM10.0888 22.9669L10.4733 25.4371L10.0888 22.9669ZM11.257 20.9435L13.5886 20.0414L11.257 20.9435ZM1.91184 26.6566L3.67491 24.8842L1.91184 26.6566ZM2.73896 24.111L2.35443 21.6408L2.73896 24.111ZM6.94127 34.226L5.58524 32.1257L6.94127 34.226ZM7.18549 31.9024L5.42242 33.6748L7.18549 31.9024ZM0.971989 40.9226L1.86171 38.5863L0.971989 40.9226ZM0.692209 38.2606L2.04824 40.3609H2.04824L0.692209 38.2606ZM8.64534 45.7919L6.55229 44.4248L8.64534 45.7919ZM7.92334 43.5698L7.03362 45.9061L7.92334 43.5698ZM5.91589 54.3375L5.77843 51.8413H5.77843L5.91589 54.3375ZM4.57758 52.0195L6.67064 53.3866L4.57758 52.0195ZM14.9064 55.6648L12.4382 55.2672L14.9064 55.6648ZM13.343 53.9285L13.4805 56.4247H13.4805L13.343 53.9285ZM15.8887 64.5817L17.0296 66.8062L15.8887 64.5817ZM13.7233 63.0084L16.1914 63.4061L13.7233 63.0084ZM24.6418 62.1375L27.0583 61.4969L24.6418 62.1375ZM22.5073 61.1872L21.3664 58.9627L22.5073 61.1872ZM29.166 69.884L31.113 71.4521L29.166 69.884ZM26.5479 69.3275L24.1314 69.9681L26.5479 69.3275ZM36.1682 64.0909L34.2212 65.6591L36.1682 64.0909ZM33.8318 64.0909L31.8847 62.5228L33.8318 64.0909ZM43.4521 69.3275L45.8686 69.9681L43.4521 69.3275ZM40.8339 69.884L38.8869 71.4521L40.8339 69.884ZM47.4926 61.1872L48.6335 58.9627L47.4926 61.1872ZM45.3582 62.1375L42.9417 61.4969L45.3582 62.1375ZM56.2767 63.0084L53.8085 63.4061L56.2767 63.0084ZM54.1113 64.5817L52.9704 66.8062L54.1113 64.5817ZM56.657 53.9285L56.5195 56.4247L56.657 53.9285ZM55.0936 55.6648L57.5618 55.2672L55.0936 55.6648ZM65.4224 52.0195L63.3293 53.3866L65.4224 52.0195ZM64.0841 54.3375L64.2215 51.8413L64.0841 54.3375ZM62.0766 43.5698L62.9663 45.9061L62.0766 43.5698ZM61.3546 45.7919L63.4477 44.4248L61.3546 45.7919ZM69.3078 38.2606L70.6638 36.1604L69.3078 38.2606ZM69.028 40.9226L68.1382 38.5863L69.028 40.9226ZM62.8145 31.9024L64.5775 33.6748L62.8145 31.9024ZM63.0587 34.226L61.7027 36.3263L63.0587 34.226ZM67.261 24.111L66.8765 26.5813L67.261 24.111ZM68.0881 26.6566L66.3251 24.8842V24.8842L68.0881 26.6566ZM58.7429 20.9435L61.0745 21.8456L58.7429 20.9435ZM59.9112 22.9669L60.2957 20.4966H60.2957L59.9112 22.9669ZM59.636 12.0172L60.2895 14.4303L59.636 12.0172ZM61.427 14.0063L59.0955 13.1042V13.1042L61.427 14.0063ZM50.566 12.5881L53.063 12.4639V12.4639L50.566 12.5881ZM52.4563 13.9614L51.8028 11.5483L52.4563 13.9614ZM47.7513 4.07024L49.3297 6.00892V6.00892L47.7513 4.07024ZM50.1965 5.15892L47.6996 5.28314V5.28314L50.1965 5.15892ZM39.6976 8.2809L37.4671 9.40996L39.6976 8.2809ZM41.983 8.76667L40.4046 6.82799L41.983 8.76667ZM36.3383 1.64434L38.5688 0.515283V0.515283L36.3383 1.64434ZM33.6617 1.64434L31.4312 0.515281L33.6617 1.64434ZM34.1078 2.7734L37.4671 9.40996L41.9282 7.15184L38.5688 0.515283L34.1078 2.7734ZM43.5615 10.7054L49.3297 6.00892L46.1728 2.13156L40.4046 6.82799L43.5615 10.7054ZM47.6996 5.28314L48.0691 12.7123L53.063 12.4639L52.6934 5.03471L47.6996 5.28314ZM53.1097 16.3745L60.2895 14.4303L58.9826 9.60407L51.8028 11.5483L53.1097 16.3745ZM59.0955 13.1042L56.4114 20.0414L61.0745 21.8456L63.7586 14.9084L59.0955 13.1042ZM59.5266 25.4371L66.8765 26.5813L67.6455 21.6408L60.2957 20.4966L59.5266 25.4371ZM66.3251 24.8842L61.0514 30.1299L64.5775 33.6748L69.8512 28.4291L66.3251 24.8842ZM61.7027 36.3263L67.9517 40.3609L70.6638 36.1604L64.4147 32.1257L61.7027 36.3263ZM68.1382 38.5863L61.1869 41.2335L62.9663 45.9061L69.9177 43.2589L68.1382 38.5863ZM59.2616 47.1591L63.3293 53.3866L67.5154 50.6523L63.4477 44.4248L59.2616 47.1591ZM64.2215 51.8413L56.7944 51.4323L56.5195 56.4247L63.9466 56.8337L64.2215 51.8413ZM52.6254 56.0624L53.8085 63.4061L58.7449 62.6108L57.5618 55.2672L52.6254 56.0624ZM55.2522 62.3572L48.6335 58.9627L46.3517 63.4117L52.9704 66.8062L55.2522 62.3572ZM42.9417 61.4969L41.0356 68.6869L45.8686 69.9681L47.7747 62.7782L42.9417 61.4969ZM42.781 68.3159L38.1152 62.5228L34.2212 65.6591L38.8869 71.4521L42.781 68.3159ZM31.8847 62.5228L27.219 68.3159L31.113 71.4521L35.7788 65.659L31.8847 62.5228ZM28.9644 68.6869L27.0583 61.4969L22.2252 62.7782L24.1314 69.9681L28.9644 68.6869ZM21.3664 58.9627L14.7478 62.3572L17.0296 66.8062L23.6482 63.4117L21.3664 58.9627ZM16.1914 63.4061L17.3745 56.0624L12.4382 55.2672L11.2551 62.6108L16.1914 63.4061ZM13.2055 51.4323L5.77843 51.8413L6.05336 56.8337L13.4805 56.4247L13.2055 51.4323ZM6.67064 53.3866L10.7384 47.1591L6.55229 44.4248L2.48453 50.6523L6.67064 53.3866ZM8.81306 41.2335L1.86171 38.5863L0.0822674 43.2589L7.03362 45.9061L8.81306 41.2335ZM2.04824 40.3609L8.29729 36.3263L5.58524 32.1257L-0.663819 36.1604L2.04824 40.3609ZM8.94856 30.1299L3.67491 24.8842L0.148769 28.4291L5.42242 33.6748L8.94856 30.1299ZM3.12349 26.5813L10.4733 25.4371L9.70427 20.4966L2.35443 21.6408L3.12349 26.5813ZM13.5886 20.0414L10.9045 13.1042L6.24136 14.9084L8.92545 21.8456L13.5886 20.0414ZM9.71048 14.4303L16.8902 16.3745L18.1972 11.5483L11.0174 9.60407L9.71048 14.4303ZM21.9308 12.7123L22.3004 5.28313L17.3066 5.03471L16.937 12.4639L21.9308 12.7123ZM20.6703 6.00892L26.4385 10.7054L29.5954 6.82799L23.8272 2.13156L20.6703 6.00892ZM32.5329 9.40996L35.8922 2.7734L31.4312 0.515281L28.0718 7.15184L32.5329 9.40996ZM26.4385 10.7054C28.4179 12.317 31.3801 11.6874 32.5329 9.40996L28.0718 7.15184C28.36 6.58249 29.1005 6.42508 29.5954 6.82799L26.4385 10.7054ZM22.3004 5.28313C22.2597 6.10163 21.3058 6.52634 20.6703 6.00892L23.8272 2.13156C21.2852 0.0618892 17.4694 1.76073 17.3066 5.03471L22.3004 5.28313ZM16.8902 16.3745C19.3541 17.0417 21.804 15.2617 21.9308 12.7123L16.937 12.4639C16.9687 11.8265 17.5812 11.3815 18.1972 11.5483L16.8902 16.3745ZM10.9045 13.1042C11.2002 13.8685 10.5015 14.6445 9.71048 14.4303L11.0174 9.60407C7.85335 8.74726 5.0585 11.8512 6.24136 14.9084L10.9045 13.1042ZM10.4733 25.4371C12.9955 25.0445 14.5097 22.4219 13.5886 20.0414L8.92545 21.8456C8.69518 21.2504 9.07371 20.5948 9.70427 20.4966L10.4733 25.4371ZM3.67491 24.8842C4.25593 25.4621 3.93323 26.4552 3.12349 26.5813L2.35443 21.6408C-0.884566 22.145 -2.17529 26.1173 0.148769 28.4291L3.67491 24.8842ZM8.29729 36.3263C10.4417 34.9417 10.7583 31.93 8.94856 30.1299L5.42242 33.6748C4.96999 33.2248 5.04912 32.4718 5.58524 32.1257L8.29729 36.3263ZM1.86171 38.5863C2.62757 38.8779 2.7367 39.9164 2.04824 40.3609L-0.663819 36.1604C-3.41771 37.9384 -2.98114 42.0923 0.0822674 43.2589L1.86171 38.5863ZM10.7384 47.1591C12.1343 45.022 11.1985 42.1419 8.81306 41.2335L7.03362 45.9061C6.43726 45.679 6.20331 44.959 6.55229 44.4248L10.7384 47.1591ZM5.77843 51.8413C6.59669 51.7962 7.11879 52.7005 6.67064 53.3866L2.48453 50.6523C0.691904 53.3967 2.7803 57.014 6.05336 56.8337L5.77843 51.8413ZM17.3745 56.0624C17.7805 53.5424 15.7542 51.2919 13.2055 51.4323L13.4805 56.4247C12.8433 56.4598 12.3367 55.8972 12.4382 55.2672L17.3745 56.0624ZM14.7478 62.3572C15.477 61.9832 16.3218 62.597 16.1914 63.4061L11.2551 62.6108C10.7337 65.8471 14.1128 68.3022 17.0296 66.8062L14.7478 62.3572ZM27.0583 61.4969C26.4042 59.0295 23.6377 57.7978 21.3664 58.9627L23.6482 63.4117C23.0804 63.7029 22.3888 63.395 22.2252 62.7782L27.0583 61.4969ZM27.219 68.3159C27.733 67.6776 28.7544 67.8947 28.9644 68.6869L24.1314 69.9681C24.9714 73.1367 29.0569 74.0051 31.113 71.4521L27.219 68.3159ZM38.1152 62.5228C36.5141 60.5348 33.4858 60.5348 31.8847 62.5228L35.7788 65.6591C35.3785 66.156 34.6214 66.156 34.2212 65.6591L38.1152 62.5228ZM41.0356 68.6869C41.2456 67.8947 42.267 67.6776 42.781 68.3159L38.8869 71.4521C40.9431 74.0051 45.0286 73.1367 45.8686 69.9681L41.0356 68.6869ZM48.6335 58.9627C46.3622 57.7978 43.5958 59.0296 42.9417 61.4969L47.7747 62.7782C47.6112 63.395 46.9196 63.7029 46.3517 63.4117L48.6335 58.9627ZM53.8085 63.4061C53.6782 62.597 54.5229 61.9832 55.2522 62.3572L52.9704 66.8062C55.8872 68.3022 59.2663 65.8471 58.7449 62.6108L53.8085 63.4061ZM56.7944 51.4323C54.2458 51.2919 52.2194 53.5424 52.6254 56.0624L57.5618 55.2672C57.6633 55.8972 57.1567 56.4598 56.5195 56.4247L56.7944 51.4323ZM63.3293 53.3866C62.8812 52.7005 63.4033 51.7962 64.2215 51.8413L63.9466 56.8337C67.2197 57.014 69.3081 53.3967 67.5154 50.6523L63.3293 53.3866ZM61.1869 41.2335C58.8014 42.1419 57.8657 45.022 59.2616 47.1591L63.4477 44.4248C63.7966 44.959 63.5627 45.679 62.9663 45.9061L61.1869 41.2335ZM67.9517 40.3609C67.2632 39.9164 67.3724 38.8779 68.1382 38.5863L69.9177 43.2589C72.9811 42.0923 73.4177 37.9384 70.6638 36.1604L67.9517 40.3609ZM61.0514 30.1299C59.2417 31.93 59.5582 34.9417 61.7027 36.3263L64.4147 32.1257C64.9508 32.4719 65.03 33.2248 64.5775 33.6748L61.0514 30.1299ZM66.8765 26.5813C66.0667 26.4552 65.744 25.4621 66.3251 24.8842L69.8512 28.4291C72.1752 26.1173 70.8845 22.145 67.6455 21.6408L66.8765 26.5813ZM56.4114 20.0414C55.4903 22.422 57.0045 25.0445 59.5266 25.4371L60.2957 20.4966C60.9262 20.5948 61.3048 21.2504 61.0745 21.8456L56.4114 20.0414ZM60.2895 14.4303C59.4985 14.6445 58.7998 13.8685 59.0955 13.1042L63.7586 14.9084C64.9415 11.8512 62.1466 8.74726 58.9826 9.60407L60.2895 14.4303ZM48.0691 12.7123C48.196 15.2617 50.6459 17.0417 53.1097 16.3745L51.8028 11.5483C52.4188 11.3815 53.0313 11.8265 53.063 12.4639L48.0691 12.7123ZM49.3297 6.00892C48.6942 6.52635 47.7403 6.10161 47.6996 5.28314L52.6934 5.03471C52.5305 1.76076 48.7148 0.0618726 46.1728 2.13156L49.3297 6.00892ZM37.4671 9.40996C38.6199 11.6874 41.582 12.317 43.5615 10.7054L40.4046 6.82799C40.8994 6.42508 41.64 6.58249 41.9282 7.15184L37.4671 9.40996ZM38.5688 0.515283C37.0884 -2.40938 32.9116 -2.4094 31.4312 0.515281L35.8922 2.7734C35.5221 3.50458 34.4779 3.50456 34.1078 2.7734L38.5688 0.515283Z" fill="white" mask="url(#path-1-inside-1_484_4547)"/>
</svg>
