<svg width="12" height="16" viewBox="0 0 12 16" fill="none" xmlns="http://www.w3.org/2000/svg">
<path d="M11.9265 9.78503C11.8618 9.70863 11.7634 9.66406 11.6591 9.66406H10.7931L10.9637 9.37178C11.2324 8.91157 11.2219 8.36766 10.9358 7.91675C10.6496 7.46585 10.144 7.19666 9.58331 7.19666H9.38552C9.44394 6.86257 9.37686 6.51672 9.18412 6.21304C8.89797 5.76216 8.39233 5.49297 7.83162 5.49297H7.43304C7.683 5.20185 7.83306 4.83263 7.83306 4.43116C7.83306 3.60366 7.19702 2.91279 6.35814 2.76254C6.38204 2.27669 6.55352 1.0841 7.63731 0.607195C7.80766 0.532226 7.88075 0.342382 7.80058 0.183101C7.72043 0.023851 7.51736 -0.0445552 7.34701 0.0304135C5.89853 0.667757 5.69593 2.16598 5.67441 2.76232C4.83493 2.9121 4.19832 3.60319 4.19832 4.43113C4.19832 4.83266 4.34838 5.20185 4.59834 5.49294H4.16834C3.60759 5.49294 3.10199 5.76213 2.81584 6.213C2.6231 6.51669 2.55602 6.86254 2.61444 7.19663H2.41665C1.85591 7.19663 1.35034 7.46582 1.06415 7.91672C0.778001 8.36763 0.767573 8.91156 1.03625 9.37175L1.2069 9.66403H0.340882C0.236674 9.66403 0.138248 9.7086 0.073544 9.785C0.00890694 9.86141 -0.0148223 9.96125 0.00914082 10.0561L1.44967 15.7546C1.486 15.8984 1.62333 16 1.78138 16H10.2186C10.3767 16 10.514 15.8984 10.5503 15.7546L11.9909 10.0561C12.0148 9.96128 11.9911 9.86144 11.9265 9.78503ZM6.01571 3.36932C6.64189 3.36932 7.1513 3.84566 7.1513 4.43113C7.1513 5.0166 6.64186 5.49294 6.01571 5.49294C5.38952 5.49294 4.88011 5.0166 4.88011 4.43113C4.88011 3.84566 5.38952 3.36932 6.01571 3.36932ZM3.40212 6.53835C3.56424 6.28291 3.85067 6.13041 4.16837 6.13041H7.83166C8.0886 6.13041 8.32502 6.23025 8.49186 6.40357H6.73828C6.55005 6.40357 6.39741 6.54625 6.39741 6.72229C6.39741 6.89832 6.55005 7.041 6.73828 7.041H8.71963C8.71428 7.09338 8.70376 7.14547 8.68758 7.19663H3.31248C3.24313 6.97744 3.27338 6.74125 3.40212 6.53835ZM1.6505 8.24203C1.81263 7.98657 2.09902 7.8341 2.41672 7.8341H9.58331C9.90098 7.8341 10.1874 7.9866 10.3495 8.24203C10.5117 8.49747 10.5176 8.80563 10.3654 9.06631L10.0164 9.664H1.98361L1.77272 9.30275H3.94234C4.13057 9.30275 4.28321 9.16006 4.28321 8.98403C4.28321 8.808 4.13057 8.66532 3.94234 8.66532H1.52494C1.52524 8.51935 1.56695 8.37369 1.6505 8.24203ZM2.05109 15.3626L0.771717 10.3015H3.65772L4.12325 15.3626H2.05109ZM7.19254 15.3626H4.80745L4.34193 10.3015H7.65807L7.19254 15.3626ZM9.94894 15.3626H7.87678L8.3423 10.3015H11.2283L9.94894 15.3626Z" fill="black"/>
<path d="M5.32458 8.66535H5.13609C4.94786 8.66535 4.79522 8.80803 4.79522 8.98407C4.79522 9.1601 4.94786 9.30278 5.13609 9.30278H5.32458C5.51281 9.30278 5.66545 9.1601 5.66545 8.98407C5.66545 8.80803 5.51281 8.66535 5.32458 8.66535Z" fill="black"/>
</svg>
