<svg width="12" height="12" viewBox="0 0 12 12" fill="none" xmlns="http://www.w3.org/2000/svg">
<path d="M10.9997 8.48741V9.99281C11.0003 10.1326 10.9716 10.2709 10.9155 10.3989C10.8594 10.527 10.7771 10.6419 10.6739 10.7364C10.5707 10.8309 10.4489 10.9028 10.3163 10.9476C10.1836 10.9924 10.0431 11.009 9.90359 10.9964C8.3564 10.8286 6.87022 10.301 5.56445 9.45589C4.34961 8.68545 3.31963 7.65752 2.54767 6.44508C1.69793 5.13598 1.16912 3.64553 1.00408 2.09446C0.991516 1.9557 1.00804 1.81584 1.0526 1.6838C1.09716 1.55176 1.16878 1.43042 1.2629 1.32752C1.35703 1.22462 1.47158 1.1424 1.59929 1.08611C1.72699 1.02981 1.86504 1.00067 2.00465 1.00054H3.51304C3.75705 0.99814 3.99361 1.08438 4.17862 1.24317C4.36364 1.40197 4.48448 1.62249 4.51863 1.86363C4.5823 2.3454 4.70037 2.81843 4.87059 3.2737C4.93824 3.4533 4.95288 3.6485 4.91278 3.83615C4.87268 4.02381 4.77952 4.19606 4.64433 4.3325L4.00578 4.96978C4.72154 6.22607 5.76379 7.26625 7.02256 7.98059L7.66112 7.3433C7.79782 7.20839 7.97041 7.11541 8.15844 7.07539C8.34647 7.03537 8.54206 7.04998 8.72202 7.11749C9.17819 7.28738 9.65216 7.40521 10.1349 7.46875C10.3791 7.50314 10.6022 7.62592 10.7616 7.81374C10.9211 8.00156 11.0058 8.24131 10.9997 8.48741Z" stroke="#3FC610" stroke-linecap="round" stroke-linejoin="round"/>
</svg>
