<svg width="12" height="17" viewBox="0 0 12 17" fill="none" xmlns="http://www.w3.org/2000/svg">
<path fill-rule="evenodd" clip-rule="evenodd" d="M10.5108 8.62156C10.8244 7.92567 11 7.14596 11 6.32258C11 3.383 8.76142 1 6 1C3.23858 1 1 3.383 1 6.32258C1 7.18026 1.19057 7.99053 1.52908 8.7081C2.59968 11.5732 6 16 6 16C6 16 9.77807 10.6657 10.5108 8.62156ZM6 8.62104C7.38071 8.62104 8.49999 7.42956 8.49999 5.95976C8.49999 4.48997 7.38071 3.29847 6 3.29847C4.61929 3.29847 3.49999 4.48997 3.49999 5.95976C3.49999 7.42956 4.61929 8.62104 6 8.62104Z" stroke="#FF2A05"/>
</svg>
