<svg width="14" height="16" viewBox="0 0 14 16" fill="none" xmlns="http://www.w3.org/2000/svg">
<path d="M6.99853 16.0005C10.8587 16.0005 13.9971 12.9896 13.9971 9.28631C13.9971 9.02662 13.7774 8.81586 13.5067 8.81586C13.236 8.81586 13.0163 9.02662 13.0163 9.28631C13.0163 12.4703 10.3173 15.0596 6.99853 15.0596C3.84448 15.0596 1.25142 12.7224 1.00035 9.75675H6.99853C7.26921 9.75675 7.4889 9.54599 7.4889 9.28631C7.4889 9.02662 7.26921 8.81586 6.99853 8.81586H0.490368C0.219685 8.81586 0 9.02662 0 9.28631C0 12.9896 3.13835 16.0005 6.99853 16.0005Z" fill="black"/>
<path d="M7.13583 11.902C6.87299 11.8418 6.60624 11.9961 6.54347 12.2482C6.4807 12.5004 6.64154 12.7563 6.90438 12.8165C7.08876 12.8579 7.27314 12.8805 7.45359 12.8805C8.05772 12.8805 8.63832 12.6547 9.08161 12.2294C9.58767 11.7439 9.82305 11.0815 9.74459 10.4116L13.8558 6.46741C14.0481 6.28299 14.0481 5.98567 13.8558 5.80126C13.6636 5.61684 13.3537 5.61684 13.1615 5.80126L8.86977 9.91858C8.85408 9.93364 8.84624 9.95246 8.83447 9.97127C8.81485 9.99386 8.79916 10.0164 8.78739 10.039C8.7717 10.0691 8.75993 10.0992 8.75208 10.1331C8.74424 10.1595 8.74032 10.1858 8.73639 10.2121C8.73247 10.246 8.73639 10.2799 8.74032 10.3138C8.74424 10.3288 8.73639 10.3476 8.74424 10.3627C8.85408 10.7993 8.7207 11.2471 8.39117 11.5633C8.05772 11.8794 7.59089 12.0074 7.13583 11.902Z" fill="black"/>
<path d="M7.3006 5.12758C7.27706 5.77868 6.70823 6.25665 6.70431 6.26041C6.49639 6.42977 6.47286 6.72333 6.64546 6.9228C6.74354 7.03194 6.88084 7.08839 7.01814 7.08839C7.13191 7.08839 7.24175 7.05076 7.3359 6.97549C7.37121 6.94538 8.23426 6.23783 8.27741 5.16898C8.30879 4.48025 7.99888 3.82163 7.36336 3.21193C6.93184 2.79794 6.72 2.38019 6.73569 1.9662C6.75923 1.31886 7.32021 0.844656 7.33198 0.829602C7.53597 0.660242 7.56343 0.366685 7.3869 0.167217C7.21429 -0.0322518 6.90438 -0.0548331 6.69646 0.110763C6.66116 0.140872 5.80203 0.84842 5.75496 1.91727C5.72357 2.606 6.03349 3.26462 6.669 3.87432C7.10445 4.29584 7.31629 4.71359 7.3006 5.12758Z" fill="black"/>
<path d="M4.40546 5.12758C4.38193 5.77868 3.8131 6.25665 3.80918 6.26041C3.60126 6.42977 3.57772 6.72333 3.75033 6.9228C3.84841 7.03194 3.98571 7.08839 4.12301 7.08839C4.23678 7.08839 4.34662 7.05076 4.44077 6.97549C4.47608 6.94538 5.33912 6.23783 5.38228 5.16898C5.41366 4.48025 5.10375 3.82163 4.46823 3.21193C4.03671 2.79794 3.82487 2.38019 3.84056 1.9662C3.8641 1.31886 4.42508 0.844656 4.43685 0.829602C4.64084 0.660242 4.6683 0.366685 4.49177 0.167217C4.31916 -0.0322518 4.00925 -0.0548331 3.80133 0.110763C3.76602 0.140872 2.9069 0.84842 2.85982 1.91727C2.82844 2.606 3.13835 3.26462 3.77387 3.87432C4.20932 4.29584 4.42116 4.71359 4.40546 5.12758Z" fill="black"/>
</svg>
