<svg width="17" height="15" viewBox="0 0 17 15" fill="none" xmlns="http://www.w3.org/2000/svg">
<path d="M16.0274 6.70793C16.4179 7.09846 16.4179 7.73162 16.0274 8.12215L9.66346 14.4861C9.27293 14.8766 8.63977 14.8766 8.24924 14.4861C7.85872 14.0956 7.85872 13.4624 8.24924 13.0719L13.9061 7.41504L8.24924 1.75818C7.85872 1.36766 7.85872 0.734496 8.24924 0.343971C8.63977 -0.0465531 9.27293 -0.0465531 9.66346 0.343971L16.0274 6.70793ZM1.50899 8.41504C0.956706 8.41504 0.508991 7.96732 0.508991 7.41504C0.508991 6.86275 0.956706 6.41504 1.50899 6.41504V8.41504ZM15.3203 8.41504H1.50899V6.41504H15.3203V8.41504Z" fill="white"/>
</svg>
