<svg width="20" height="12" viewBox="0 0 20 12" fill="none" xmlns="http://www.w3.org/2000/svg">
<path d="M17.5369 0.256834C17.147 0.256834 16.8315 0.588576 16.8315 0.998729L16.8287 11.6235C16.8287 11.8316 16.9892 12.0005 17.1871 12.0005C17.3849 12.0005 17.5455 11.8316 17.5455 11.6235V8.7464C18.1591 8.36641 20 7.0877 20 5.42899C19.9971 3.68282 18.8817 0.256834 17.5369 0.256834ZM17.5427 7.85673L17.5369 1.01079C18.1362 1.01079 19.2803 3.65266 19.2803 5.42899C19.2803 6.40009 18.2796 7.33198 17.5427 7.85673Z" fill="black"/>
<path d="M3.16846 3.01331V0.633813C3.16846 0.425721 3.00789 0.256834 2.81004 0.256834C2.61219 0.256834 2.45161 0.425721 2.45161 0.633813V3.01331C2.45161 3.51695 2.06165 3.9271 1.5828 3.9271C1.10394 3.9271 0.716846 3.51695 0.716846 3.01331V0.633813C0.716846 0.425721 0.556272 0.256834 0.358423 0.256834C0.160573 0.256834 0 0.425721 0 0.633813V3.01331C0 3.80345 0.524731 4.46392 1.22724 4.63582V11.6235C1.22724 11.8316 1.38781 12.0005 1.58566 12.0005C1.78351 12.0005 1.94409 11.8316 1.94409 11.6235V4.63582C2.64373 4.46392 3.16846 3.80345 3.16846 3.01331Z" fill="black"/>
<path d="M1.58566 3.39028C1.78351 3.39028 1.94409 3.2214 1.94409 3.01331V0.633813C1.94409 0.425721 1.78351 0.256834 1.58566 0.256834C1.38781 0.256834 1.22724 0.425721 1.22724 0.633813V3.01331C1.22724 3.2214 1.38495 3.39028 1.58566 3.39028Z" fill="black"/>
<path d="M9.99857 10.9178C12.8602 10.9178 15.1885 8.46895 15.1885 5.45915C15.1885 2.44935 12.8602 0.000488281 9.99857 0.000488281C7.13692 0.000488281 4.8086 2.44935 4.8086 5.45915C4.8086 8.46895 7.13692 10.9178 9.99857 10.9178ZM9.99857 0.754447C12.4645 0.754447 14.4717 2.86553 14.4717 5.45915C14.4717 8.05276 12.4645 10.1638 9.99857 10.1638C7.53262 10.1638 5.52545 8.05276 5.52545 5.45915C5.52545 2.86553 7.53262 0.754447 9.99857 0.754447Z" fill="black"/>
<path d="M9.99857 9.75068C12.2495 9.75068 14.0789 7.82658 14.0789 5.45915C14.0789 3.09172 12.2495 1.16762 9.99857 1.16762C7.74767 1.16762 5.91828 3.09172 5.91828 5.45915C5.91828 7.82658 7.74767 9.75068 9.99857 9.75068ZM9.99857 1.92157C11.8538 1.92157 13.362 3.5079 13.362 5.45915C13.362 7.41039 11.8538 8.99672 9.99857 8.99672C8.14337 8.99672 6.63513 7.41039 6.63513 5.45915C6.63513 3.5079 8.14337 1.92157 9.99857 1.92157Z" fill="black"/>
</svg>
