<svg width="17" height="15" viewBox="0 0 17 15" fill="none" xmlns="http://www.w3.org/2000/svg">
<path d="M0.802659 6.70793C0.412135 7.09846 0.412135 7.73162 0.802659 8.12215L7.16662 14.4861C7.55714 14.8766 8.19031 14.8766 8.58083 14.4861C8.97136 14.0956 8.97136 13.4624 8.58083 13.0719L2.92398 7.41504L8.58083 1.75818C8.97136 1.36766 8.97136 0.734496 8.58083 0.343971C8.19031 -0.0465531 7.55714 -0.0465531 7.16662 0.343971L0.802659 6.70793ZM15.3211 8.41504C15.8734 8.41504 16.3211 7.96732 16.3211 7.41504C16.3211 6.86275 15.8734 6.41504 15.3211 6.41504V8.41504ZM1.50977 8.41504H15.3211V6.41504H1.50977V8.41504Z" fill="white"/>
</svg>
