<svg width="37" height="37" viewBox="0 0 37 37" fill="none" xmlns="http://www.w3.org/2000/svg">
<g filter="url(#filter0_b_445_785)">
<rect width="36.8302" height="36.8302" rx="8" transform="matrix(-1 0 0 1 36.833 0)" fill="#B8B8B8" fill-opacity="0.5"/>
<rect x="-1" y="1" width="34.8302" height="34.8302" rx="7" transform="matrix(-1 0 0 1 34.833 0)" stroke="white" stroke-width="2"/>
</g>
<path d="M26.0303 17.7079C26.4209 18.0985 26.4209 18.7316 26.0303 19.1221L19.6664 25.4861C19.2759 25.8766 18.6427 25.8766 18.2522 25.4861C17.8616 25.0956 17.8616 24.4624 18.2522 24.0719L23.909 18.415L18.2522 12.7582C17.8616 12.3677 17.8616 11.7345 18.2522 11.344C18.6427 10.9534 19.2759 10.9534 19.6664 11.344L26.0303 17.7079ZM11.5119 19.415C10.9596 19.415 10.5119 18.9673 10.5119 18.415C10.5119 17.8628 10.9596 17.415 11.5119 17.415V19.415ZM25.3232 19.415H11.5119V17.415H25.3232V19.415Z" fill="white"/>
<defs>
<filter id="filter0_b_445_785" x="-3.99707" y="-4" width="44.8301" height="44.8302" filterUnits="userSpaceOnUse" color-interpolation-filters="sRGB">
<feFlood flood-opacity="0" result="BackgroundImageFix"/>
<feGaussianBlur in="BackgroundImage" stdDeviation="2"/>
<feComposite in2="SourceAlpha" operator="in" result="effect1_backgroundBlur_445_785"/>
<feBlend mode="normal" in="SourceGraphic" in2="effect1_backgroundBlur_445_785" result="shape"/>
</filter>
</defs>
</svg>
